<svg id="Capa_1" data-name="Capa 1" xmlns="http://www.w3.org/2000/svg" xmlns:xlink="http://www.w3.org/1999/xlink" viewBox="0 0 150 150"><defs><style>.cls-1{fill:url(#Degradado_sin_nombre)}.cls-2{fill:url(#Degradado_sin_nombre_2)}.cls-3{fill:#fff}</style><linearGradient id="Degradado_sin_nombre" x1="-599.78" y1="472.52" x2="-599.13" y2="472.52" gradientTransform="matrix(0 37.44 37.48 0 -17633.55 22529.67)" gradientUnits="userSpaceOnUse"><stop offset="0" stop-color="#d90754"/><stop offset="1" stop-color="#972874"/></linearGradient><linearGradient id="Degradado_sin_nombre_2" x1="-601.83" y1="458.42" x2="-601.18" y2="458.42" gradientTransform="matrix(111.2 0 0 -216.66 66996.85 99452.72)" xlink:href="#Degradado_sin_nombre"/></defs><title>OB3</title><g id="Canvas"><g id="OB2"><g id="Union"><path id="path0_fill" data-name="path0 fill" class="cls-1" d="M74 10.31a14.05 14.05 0 0 0-20.19-.06 4.33 4.33 0 0 1-6.19 0 14.06 14.06 0 0 0-20.25 0 15.09 15.09 0 0 0 0 21l23.31 24 23.37-24A15.08 15.08 0 0 0 74 10.31zm3.17 24l-23.44 24-3 3.05-.07.07-3-3.13-23.37-24a19.5 19.5 0 0 1 0-27.1 18.39 18.39 0 0 1 26.14-.31l.31.31.31-.31a18.38 18.38 0 0 1 26.06.38 19.49 19.49 0 0 1 .07 27zm-48.36 68.43a3.42 3.42 0 1 1-3.42-3.43 3.42 3.42 0 0 1 3.42 3.43zm9.52-3.43a3.43 3.43 0 1 0 3.42 3.43 3.42 3.42 0 0 0-3.42-3.43zm12.94 0a3.43 3.43 0 1 0 3.42 3.43 3.42 3.42 0 0 0-3.42-3.43zm11.54 33.07L51 123.16H11.46a6.31 6.31 0 0 1-6.31-6.32V87.28A6.31 6.31 0 0 1 11.46 81h53.78a6.31 6.31 0 0 1 6.31 6.32v29.48a6.31 6.31 0 0 1-6.31 6.32h-2.39zM11.46 84.27a3 3 0 0 0-3 3v29.53a3 3 0 0 0 3 3h41.38l6.63 5v-5h5.73a3 3 0 0 0 3-3V87.28a3 3 0 0 0-3-3zm86-51.64a16.12 16.12 0 1 0 16.14-16.11 16.14 16.14 0 0 0-16.12 16.11zm4.21 0a11.92 11.92 0 1 1 11.92 11.9 11.92 11.92 0 0 1-11.9-11.9zm8.8 56.47H89.81a6.52 6.52 0 0 1-4.7-1.79 3.94 3.94 0 0 1-1.19-2.91l.17-9.4c0-12.18 12.69-21.39 29.51-21.39s29.51 9.16 29.51 21.39v2.42a2.11 2.11 0 0 1-2.07 2.14 2.1 2.1 0 0 1-2.1-2.07v-2.45c0-9.84-10.86-17.26-25.3-17.26S88.3 65.15 88.3 75l-.18 9.38a2.48 2.48 0 0 0 1.68.53h20.68a2.1 2.1 0 1 1 0 4.2zm30.56 0a2.1 2.1 0 1 0 0-4.2h-8v-8a2.1 2.1 0 0 0-4.21 0v8h-8a2.1 2.1 0 1 0 0 4.2h8v8a2.1 2.1 0 0 0 4.21 0v-8z"/></g><g id="Switch_Active" data-name="Switch Active"><g id="Rectangle_4" data-name="Rectangle 4"><path id="path1_fill" data-name="path1 fill" class="cls-2" d="M88 130.1a14.37 14.37 0 0 1 14.37-14.37h26.35a14.37 14.37 0 0 1 14.37 14.37 14.37 14.37 0 0 1-14.37 14.37h-26.3A14.37 14.37 0 0 1 88 130.1z"/></g><g id="Ellipse_4" data-name="Ellipse 4"><path id="path2_fill" data-name="path2 fill" class="cls-3" d="M146.5 130.1a16.82 16.82 0 1 1-16.81-17.25 17 17 0 0 1 16.81 17.25z"/></g></g></g></g></svg>