<svg viewBox="0 0 50 30" xmlns="http://www.w3.org/2000/svg" fill-rule="evenodd" clip-rule="evenodd" stroke-linejoin="round" stroke-miterlimit="1.414"><path d="M50 25H0V5h50v20zM48 7H2v16h46V7zm-4.906 13.005h-2.248l-.825-1.605h2.248l.825 1.605zM12.065 10a5.067 5.067 0 0 1 2.102.493 5.039 5.039 0 0 1 2.391 2.45c.44.973.555 2.082.327 3.125a4.944 4.944 0 0 1-.489 1.314 5.03 5.03 0 0 1-2.451 2.225 5.018 5.018 0 0 1-3.721.068 5.041 5.041 0 0 1-2.5-2.083 5.008 5.008 0 0 1-.377-4.425 5.029 5.029 0 0 1 2.271-2.563A5.027 5.027 0 0 1 12.065 10zm16.797 5.619L31.749 10 34 9.995l-4.014 7.812-1.124 2.189-1.124-2.189-2.123-4.131L27.003 12l1.859 3.619zM41.545 17h-2.249l-1.35-2.629-2.887 5.619-2.251.006 4.014-7.813 1.124-2.188L41.545 17zm-21.294-7L18 9.995 22.113 18l1.387-1.676L20.251 10zm-8.29 2a3.027 3.027 0 0 0-1.259.295 3.015 3.015 0 0 0-1.497 1.612 3.009 3.009 0 0 0 .726 3.264c.262.25.569.453.903.594a3.007 3.007 0 0 0 2.259.03 3.088 3.088 0 0 0 1.028-.674c.221-.222.409-.479.552-.758a3.02 3.02 0 0 0 .133-2.427 3.016 3.016 0 0 0-1.379-1.575A3.01 3.01 0 0 0 11.961 12z" fill="#D10A57"/></svg>