<svg viewBox="0 0 160 55" xmlns="http://www.w3.org/2000/svg" fill-rule="evenodd" clip-rule="evenodd" stroke-linejoin="round" stroke-miterlimit="1.414"><g transform="scale(1 1.1)"><path fill="#fff" d="M0 0h160v50H0z"/><clipPath id="a"><path d="M0 0h160v50H0z"/></clipPath><g clip-path="url(#a)"><path fill="#003087" d="M1.628-22.865L78.241-2.337 48.06 110.303l-76.614-20.529z"/></g></g><path d="M129.72 23.109c-.31 2.03-1.86 2.03-3.36 2.03h-.852l.598-3.79a.471.471 0 0 1 .466-.398h.391c1.021 0 1.985 0 2.483.581.296.348.386.865.274 1.577m-.653-5.297h-5.656a.79.79 0 0 0-.777.663l-2.286 14.503a.475.475 0 0 0 .465.545h2.903a.55.55 0 0 0 .543-.464l.65-4.113a.786.786 0 0 1 .775-.664h1.79c3.726 0 5.876-1.802 6.437-5.376.254-1.562.01-2.79-.72-3.65-.805-.945-2.23-1.445-4.123-1.445" fill="#009cde" fill-rule="nonzero"/><path d="M89.377 23.109c-.309 2.03-1.86 2.03-3.36 2.03h-.853l.599-3.79a.471.471 0 0 1 .465-.398h.392c1.02 0 1.985 0 2.482.581.298.348.388.865.275 1.577m-.652-5.297h-5.657a.787.787 0 0 0-.776.663l-2.286 14.503a.474.474 0 0 0 .465.545h2.701a.786.786 0 0 0 .776-.664l.618-3.912a.785.785 0 0 1 .776-.664h1.79c3.726 0 5.875-1.803 6.437-5.377.253-1.562.01-2.79-.721-3.65-.805-.945-2.23-1.445-4.123-1.445m13.131 10.505c-.262 1.547-1.49 2.587-3.057 2.587-.785 0-1.415-.253-1.819-.732-.4-.474-.55-1.15-.424-1.902.244-1.534 1.492-2.606 3.035-2.606.77 0 1.393.255 1.806.738.415.486.578 1.166.46 1.915m3.774-5.273h-2.709a.473.473 0 0 0-.466.4l-.118.756-.19-.274c-.586-.851-1.894-1.136-3.2-1.136-2.991 0-5.547 2.268-6.045 5.447-.259 1.588.109 3.104 1.009 4.162.826.972 2.005 1.377 3.41 1.377 2.413 0 3.75-1.549 3.75-1.549l-.12.753a.474.474 0 0 0 .465.545h2.439c.386 0 .716-.281.777-.664l1.464-9.271a.474.474 0 0 0-.466-.545" fill="#003087" fill-rule="nonzero"/><path d="M142.199 28.316c-.263 1.547-1.49 2.587-3.057 2.587-.786 0-1.415-.253-1.82-.732-.4-.474-.55-1.15-.423-1.902.243-1.534 1.49-2.606 3.035-2.606.769 0 1.393.255 1.805.738.415.486.579 1.166.46 1.915m3.774-5.273h-2.708a.473.473 0 0 0-.467.4l-.118.756-.19-.274c-.586-.851-1.893-1.136-3.199-1.136-2.991 0-5.547 2.268-6.045 5.447-.26 1.588.11 3.104 1.009 4.162.826.972 2.005 1.377 3.41 1.377 2.414 0 3.751-1.549 3.751-1.549l-.12.753a.472.472 0 0 0 .464.545c-.001 0 0 0 0 0h2.438c.386 0 .716-.281.777-.664l1.464-9.271a.474.474 0 0 0-.466-.545" fill="#009cde" fill-rule="nonzero"/><path d="M120.056 23.044h-2.723c-.26 0-.503.13-.649.345l-3.755 5.53-1.592-5.314a.79.79 0 0 0-.754-.562h-2.675a.474.474 0 0 0-.447.625l2.998 8.799-2.82 3.978a.47.47 0 0 0 .385.744h2.72a.787.787 0 0 0 .646-.338l9.053-13.067a.473.473 0 0 0-.387-.74" fill="#003087" fill-rule="nonzero"/><path d="M149.165 18.21l-2.322 14.769a.474.474 0 0 0 .466.545h2.335a.787.787 0 0 0 .776-.664l2.29-14.504a.474.474 0 0 0-.465-.545h-2.614c-.23 0-.43.17-.466.399" fill="#009cde" fill-rule="nonzero"/><g fill="#fff" fill-rule="nonzero"><path d="M7.864 26.207v-2.86h2.03c.589 0 1.02.122 1.293.366.273.244.41.598.41 1.064 0 .466-.137.822-.41 1.07-.273.247-.704.367-1.293.36h-2.03zm-1.037-3.732v7.791h1.037V27.08h2.379c.786.007 1.38-.193 1.784-.6.404-.408.606-.975.606-1.703 0-.727-.202-1.293-.606-1.697-.404-.404-.998-.605-1.784-.605H6.827zM14.422 27.45c0-.341.046-.645.137-.91.09-.266.216-.49.376-.672.16-.182.348-.32.562-.414.215-.095.442-.142.682-.142.24 0 .468.047.682.142.215.094.402.232.562.414.16.182.286.406.377.671.09.266.136.57.136.912 0 .342-.045.645-.136.91-.091.266-.217.488-.377.667-.16.178-.347.314-.562.409a1.673 1.673 0 0 1-.682.142c-.24 0-.467-.048-.682-.142a1.634 1.634 0 0 1-.562-.41c-.16-.178-.285-.4-.376-.665a2.807 2.807 0 0 1-.137-.911zm-.982 0c0 .415.058.8.175 1.157.116.357.29.668.524.933.233.266.52.473.862.622.342.15.735.224 1.178.224.451 0 .846-.074 1.184-.224.339-.149.624-.356.857-.622a2.64 2.64 0 0 0 .524-.933c.116-.356.174-.742.174-1.156 0-.415-.058-.802-.174-1.163a2.633 2.633 0 0 0-.524-.938 2.48 2.48 0 0 0-.857-.627c-.338-.153-.733-.23-1.184-.23-.443 0-.836.077-1.178.23-.342.152-.63.361-.862.627a2.633 2.633 0 0 0-.524.938c-.117.36-.175.748-.175 1.163zM25.597 30.266l1.8-5.642h-.96l-1.266 4.616h-.021l-1.179-4.616h-1.015l-1.135 4.616H21.8l-1.276-4.616h-1.026l1.811 5.642h1.004l1.135-4.485h.022l1.146 4.485h.982zM32.2 26.905h-3.242c.015-.218.062-.424.142-.617.08-.192.19-.361.327-.507a1.5 1.5 0 0 1 .497-.344c.193-.083.409-.125.65-.125a1.587 1.587 0 0 1 1.14.464c.141.141.254.31.338.507.083.196.133.404.147.622zm.894 1.571h-.917c-.08.371-.245.648-.496.83-.251.182-.573.273-.966.273-.306 0-.571-.051-.797-.153a1.561 1.561 0 0 1-.556-.41 1.594 1.594 0 0 1-.317-.589 2.24 2.24 0 0 1-.087-.704h4.223a4.492 4.492 0 0 0-.093-1.08 3.127 3.127 0 0 0-.414-1.047c-.2-.32-.466-.584-.797-.792-.33-.207-.747-.31-1.25-.31a2.5 2.5 0 0 0-1.904.83c-.236.26-.42.57-.55.926-.132.357-.197.75-.197 1.179.014.43.078.826.19 1.19.114.363.283.676.508.938.226.262.504.465.835.61.331.146.722.22 1.173.22.64 0 1.172-.16 1.593-.481.422-.32.695-.797.819-1.43zM34.109 24.624v5.642h.927v-2.51c0-.364.037-.685.11-.966.072-.28.189-.518.349-.714.16-.197.37-.346.633-.448.262-.102.578-.153.95-.153v-.982c-.503-.014-.918.088-1.245.306-.327.218-.604.556-.83 1.015h-.021v-1.19h-.873zM41.497 26.905h-3.241c.014-.218.061-.424.141-.617.08-.192.19-.361.328-.507a1.5 1.5 0 0 1 .496-.344c.193-.083.41-.125.65-.125a1.587 1.587 0 0 1 1.14.464c.142.141.255.31.338.507.084.196.133.404.148.622zm.895 1.571h-.917c-.08.371-.246.648-.497.83-.25.182-.573.273-.965.273-.306 0-.572-.051-.797-.153a1.561 1.561 0 0 1-.557-.41 1.594 1.594 0 0 1-.316-.589 2.24 2.24 0 0 1-.087-.704h4.223a4.492 4.492 0 0 0-.093-1.08 3.127 3.127 0 0 0-.415-1.047c-.2-.32-.465-.584-.796-.792-.331-.207-.748-.31-1.25-.31a2.5 2.5 0 0 0-1.904.83c-.236.26-.42.57-.551.926-.131.357-.197.75-.197 1.179.015.43.079.826.191 1.19.113.363.282.676.508.938.225.262.504.465.835.61.33.146.722.22 1.173.22.64 0 1.171-.16 1.593-.481.422-.32.695-.797.819-1.43zM44.116 27.494c0-.276.029-.545.087-.807.058-.262.153-.495.284-.699.13-.203.305-.367.524-.49.218-.124.483-.186.796-.186.32 0 .593.06.819.18.225.12.409.278.55.475.143.196.246.423.312.682a3.271 3.271 0 0 1 .005 1.577 2.03 2.03 0 0 1-.3.682c-.138.2-.316.361-.535.485-.218.124-.483.186-.796.186-.299 0-.559-.059-.78-.175a1.55 1.55 0 0 1-.546-.47 2.076 2.076 0 0 1-.317-.67 2.885 2.885 0 0 1-.103-.77zm4.365 2.772v-7.791h-.928v2.902h-.022a1.494 1.494 0 0 0-.376-.42 2.139 2.139 0 0 0-.475-.273 2.383 2.383 0 0 0-.502-.147 2.748 2.748 0 0 0-.47-.044c-.428 0-.805.079-1.129.235a2.319 2.319 0 0 0-.807.633 2.672 2.672 0 0 0-.48.933 3.98 3.98 0 0 0-.158 1.135c0 .4.054.778.163 1.135.11.356.271.67.486.938.214.27.484.484.807.644.324.16.704.24 1.14.24.394 0 .754-.069 1.081-.207.327-.138.568-.364.72-.677h.022v.764h.928zM52.977 22.475v7.791h.927v-.753h.022c.102.167.228.308.377.42.149.113.307.202.474.268a2.788 2.788 0 0 0 .971.186c.43 0 .806-.077 1.13-.23.324-.153.593-.362.808-.627.214-.266.374-.577.48-.934a3.98 3.98 0 0 0 .158-1.134c0-.4-.055-.779-.164-1.135a2.868 2.868 0 0 0-.485-.944 2.32 2.32 0 0 0-.808-.65c-.324-.16-.704-.24-1.14-.24-.393 0-.753.071-1.08.213-.328.142-.568.37-.72.682h-.023v-2.913h-.927zm4.365 4.921c0 .277-.03.546-.087.808a2.136 2.136 0 0 1-.284.698 1.491 1.491 0 0 1-.519.491c-.214.124-.482.186-.802.186-.32 0-.593-.06-.818-.18a1.589 1.589 0 0 1-.551-.475 1.985 1.985 0 0 1-.311-.682 3.271 3.271 0 0 1-.005-1.577 2.03 2.03 0 0 1 .3-.682c.138-.2.316-.362.534-.486.218-.123.484-.185.797-.185.298 0 .558.058.78.174.222.117.404.273.546.47.142.196.247.42.316.67.07.252.104.508.104.77zM61.63 31.02a5.9 5.9 0 0 1-.321.698 1.91 1.91 0 0 1-.35.463c-.127.12-.269.208-.425.262a1.637 1.637 0 0 1-.54.082c-.11 0-.219-.007-.328-.022a1.545 1.545 0 0 1-.316-.076v-.851a1.557 1.557 0 0 0 .545.13c.19 0 .348-.045.475-.136a.835.835 0 0 0 .29-.387l.381-.95-2.237-5.609h1.048L61.5 29.24h.021l1.583-4.616h.982L61.63 31.02z"/></g></svg>