<?xml version="1.0" encoding="UTF-8" standalone="no"?>
<!DOCTYPE svg PUBLIC "-//W3C//DTD SVG 1.1//EN" "http://www.w3.org/Graphics/SVG/1.1/DTD/svg11.dtd">
<svg width="100%" height="100%" viewBox="0 0 160 55" version="1.1" xmlns="http://www.w3.org/2000/svg" xmlns:xlink="http://www.w3.org/1999/xlink" xml:space="preserve" style="fill-rule:evenodd;clip-rule:evenodd;stroke-linejoin:round;stroke-miterlimit:1.41421;">
    <g transform="matrix(1,0,0,1.1,0,0)">
        <rect x="0" y="0" width="160" height="50" style="fill:white;"/>
        <clipPath id="_clip1">
            <rect x="0" y="0" width="160" height="50"/>
        </clipPath>
        <g clip-path="url(#_clip1)">
            <g transform="matrix(0.965926,0.258819,-0.258819,0.965926,12.1616,-4.94039)">
                <rect x="-14.814" y="-14.588" width="79.316" height="116.613" style="fill:rgb(0,48,135);"/>
            </g>
        </g>
    </g>
    <g transform="matrix(1.52794,0,0,1.52794,-86.2767,-27.9847)">
        <g transform="matrix(0.477281,0,0,-0.477281,85.3646,46.2608)">
            <path d="M117.331,26.863C116.907,24.079 114.781,24.079 112.725,24.079L111.555,24.079L112.376,29.277C112.426,29.591 112.696,29.822 113.014,29.822L113.551,29.822C114.951,29.822 116.273,29.822 116.955,29.025C117.362,28.548 117.485,27.84 117.331,26.863M116.436,34.127L108.68,34.127C108.152,34.127 107.697,33.739 107.614,33.217L104.48,13.33C104.475,13.297 104.472,13.263 104.472,13.23C104.472,12.876 104.764,12.584 105.118,12.583L109.098,12.583C109.469,12.583 109.785,12.853 109.843,13.219L110.733,18.859C110.815,19.382 111.267,19.769 111.797,19.769L114.251,19.769C119.361,19.769 122.309,22.24 123.079,27.141C123.426,29.283 123.093,30.967 122.09,32.146C120.987,33.442 119.032,34.128 116.437,34.128" style="fill:rgb(0,156,222);fill-rule:nonzero;"/>
        </g>
        <g transform="matrix(0.477281,0,0,-0.477281,85.3646,46.2608)">
            <path d="M62.011,26.863C61.587,24.079 59.461,24.079 57.404,24.079L56.234,24.079L57.055,29.277C57.105,29.591 57.375,29.822 57.693,29.822L58.23,29.822C59.63,29.822 60.952,29.822 61.634,29.025C62.042,28.548 62.165,27.84 62.011,26.863M61.116,34.127L53.36,34.127C52.83,34.127 52.378,33.741 52.295,33.217L49.16,13.33C49.155,13.297 49.152,13.263 49.152,13.229C49.152,12.875 49.444,12.583 49.798,12.583L53.502,12.583C54.032,12.583 54.483,12.969 54.566,13.493L55.413,18.858C55.495,19.382 55.947,19.768 56.477,19.768L58.931,19.768C64.041,19.768 66.989,22.24 67.759,27.141C68.106,29.283 67.773,30.967 66.77,32.146C65.667,33.442 63.712,34.128 61.117,34.128M79.123,19.723C78.763,17.601 77.08,16.176 74.931,16.176C73.854,16.176 72.991,16.523 72.437,17.179C71.887,17.829 71.681,18.756 71.855,19.787C72.189,21.891 73.901,23.361 76.017,23.361C77.072,23.361 77.927,23.011 78.493,22.349C79.062,21.682 79.286,20.75 79.123,19.723M84.299,26.953L80.585,26.953C80.267,26.953 79.994,26.72 79.945,26.406L79.783,25.368L79.523,25.744C78.719,26.911 76.926,27.302 75.136,27.302C71.033,27.302 67.528,24.192 66.846,19.832C66.491,17.655 66.995,15.576 68.229,14.125C69.362,12.792 70.979,12.237 72.906,12.237C76.214,12.237 78.048,14.361 78.048,14.361L77.882,13.329C77.877,13.296 77.874,13.262 77.874,13.228C77.874,12.874 78.166,12.582 78.52,12.582C78.52,12.582 78.521,12.582 78.521,12.582L81.865,12.582C82.395,12.582 82.847,12.967 82.93,13.492L84.938,26.205C84.943,26.238 84.946,26.272 84.946,26.305C84.946,26.66 84.654,26.952 84.299,26.952C84.299,26.952 84.298,26.952 84.298,26.952" style="fill:rgb(0,48,135);fill-rule:nonzero;"/>
        </g>
        <g transform="matrix(0.477281,0,0,-0.477281,85.3646,46.2608)">
            <path d="M134.443,19.723C134.083,17.601 132.4,16.176 130.251,16.176C129.174,16.176 128.311,16.523 127.757,17.179C127.207,17.829 127.001,18.756 127.175,19.787C127.509,21.891 129.22,23.361 131.337,23.361C132.392,23.361 133.247,23.011 133.813,22.349C134.382,21.682 134.606,20.75 134.443,19.723M139.619,26.953L135.905,26.953C135.587,26.953 135.314,26.72 135.265,26.406L135.103,25.368L134.843,25.744C134.039,26.911 132.246,27.302 130.456,27.302C126.354,27.302 122.849,24.192 122.166,19.832C121.811,17.655 122.316,15.576 123.55,14.125C124.683,12.792 126.3,12.237 128.227,12.237C131.536,12.237 133.37,14.361 133.37,14.361L133.204,13.329C133.198,13.295 133.196,13.26 133.196,13.226C133.196,12.873 133.486,12.582 133.84,12.582C133.84,12.582 133.841,12.582 133.841,12.582L137.184,12.582C137.714,12.582 138.166,12.967 138.25,13.492L140.258,26.205C140.263,26.238 140.266,26.272 140.266,26.305C140.266,26.66 139.974,26.952 139.619,26.952C139.619,26.952 139.618,26.952 139.618,26.952" style="fill:rgb(0,156,222);fill-rule:nonzero;"/>
        </g>
        <g transform="matrix(0.477281,0,0,-0.477281,85.3646,46.2608)">
            <path d="M104.08,26.952L100.346,26.952C99.989,26.952 99.656,26.775 99.456,26.479L94.306,18.895L92.123,26.183C91.987,26.638 91.565,26.952 91.09,26.953L87.421,26.953C87.066,26.953 86.774,26.661 86.774,26.306C86.774,26.235 86.786,26.164 86.809,26.097L90.919,14.031L87.053,8.576C86.976,8.467 86.935,8.337 86.935,8.203C86.935,7.848 87.226,7.556 87.581,7.556L91.311,7.556C91.663,7.556 91.994,7.729 92.196,8.019L104.61,25.937C104.685,26.045 104.726,26.174 104.726,26.306C104.726,26.66 104.434,26.952 104.08,26.952" style="fill:rgb(0,48,135);fill-rule:nonzero;"/>
        </g>
        <g transform="matrix(0.477281,0,0,-0.477281,85.3646,46.2608)">
            <path d="M143.996,33.58L140.812,13.329C140.807,13.296 140.804,13.262 140.804,13.229C140.804,12.874 141.096,12.582 141.451,12.582L144.652,12.582C145.182,12.582 145.634,12.968 145.717,13.492L148.856,33.38C148.861,33.413 148.864,33.447 148.864,33.481C148.864,33.835 148.572,34.127 148.218,34.127C148.218,34.127 148.217,34.127 148.217,34.127L144.635,34.127C144.318,34.128 144.045,33.894 143.996,33.581" style="fill:rgb(0,156,222);fill-rule:nonzero;"/>
        </g>
    </g>
    <g transform="matrix(0.454693,0,0,0.454693,1.26725,21.5383)">
        <path d="M14.508,10.267L14.508,3.979L18.972,3.979C20.268,3.979 21.216,4.247 21.816,4.783C22.416,5.319 22.716,6.099 22.716,7.123C22.716,8.147 22.416,8.931 21.816,9.475C21.216,10.019 20.268,10.283 18.972,10.267L14.508,10.267ZM12.228,2.059L12.228,19.195L14.508,19.195L14.508,12.187L19.74,12.187C21.468,12.203 22.776,11.763 23.664,10.867C24.552,9.971 24.996,8.723 24.996,7.123C24.996,5.523 24.552,4.279 23.664,3.391C22.776,2.503 21.468,2.059 19.74,2.059L12.228,2.059Z" style="fill:white;fill-rule:nonzero;"/>
        <path d="M28.932,13.003C28.932,12.251 29.032,11.583 29.232,10.999C29.432,10.415 29.708,9.923 30.06,9.523C30.412,9.123 30.824,8.819 31.296,8.611C31.768,8.403 32.268,8.299 32.796,8.299C33.324,8.299 33.824,8.403 34.296,8.611C34.768,8.819 35.18,9.123 35.532,9.523C35.884,9.923 36.16,10.415 36.36,10.999C36.56,11.583 36.66,12.251 36.66,13.003C36.66,13.755 36.56,14.423 36.36,15.007C36.16,15.591 35.884,16.079 35.532,16.471C35.18,16.863 34.768,17.163 34.296,17.371C33.824,17.579 33.324,17.683 32.796,17.683C32.268,17.683 31.768,17.579 31.296,17.371C30.824,17.163 30.412,16.863 30.06,16.471C29.708,16.079 29.432,15.591 29.232,15.007C29.032,14.423 28.932,13.755 28.932,13.003ZM26.772,13.003C26.772,13.915 26.9,14.763 27.156,15.547C27.412,16.331 27.796,17.015 28.308,17.599C28.82,18.183 29.452,18.639 30.204,18.967C30.956,19.295 31.82,19.459 32.796,19.459C33.788,19.459 34.656,19.295 35.4,18.967C36.144,18.639 36.772,18.183 37.284,17.599C37.796,17.015 38.18,16.331 38.436,15.547C38.692,14.763 38.82,13.915 38.82,13.003C38.82,12.091 38.692,11.239 38.436,10.447C38.18,9.655 37.796,8.967 37.284,8.383C36.772,7.799 36.144,7.339 35.4,7.003C34.656,6.667 33.788,6.499 32.796,6.499C31.82,6.499 30.956,6.667 30.204,7.003C29.452,7.339 28.82,7.799 28.308,8.383C27.796,8.967 27.412,9.655 27.156,10.447C26.9,11.239 26.772,12.091 26.772,13.003Z" style="fill:white;fill-rule:nonzero;"/>
        <path d="M53.508,19.195L57.468,6.787L55.356,6.787L52.572,16.939L52.524,16.939L49.932,6.787L47.7,6.787L45.204,16.939L45.156,16.939L42.348,6.787L40.092,6.787L44.076,19.195L46.284,19.195L48.78,9.331L48.828,9.331L51.348,19.195L53.508,19.195Z" style="fill:white;fill-rule:nonzero;"/>
        <path d="M68.028,11.803L60.9,11.803C60.932,11.323 61.036,10.871 61.212,10.447C61.388,10.023 61.628,9.651 61.932,9.331C62.236,9.011 62.6,8.759 63.024,8.575C63.448,8.391 63.924,8.299 64.452,8.299C64.964,8.299 65.432,8.391 65.856,8.575C66.28,8.759 66.648,9.007 66.96,9.319C67.272,9.631 67.52,10.003 67.704,10.435C67.888,10.867 67.996,11.323 68.028,11.803ZM69.996,15.259L67.98,15.259C67.804,16.075 67.44,16.683 66.888,17.083C66.336,17.483 65.628,17.683 64.764,17.683C64.092,17.683 63.508,17.571 63.012,17.347C62.516,17.123 62.108,16.823 61.788,16.447C61.468,16.071 61.236,15.639 61.092,15.151C60.948,14.663 60.884,14.147 60.9,13.603L70.188,13.603C70.22,12.851 70.152,12.059 69.984,11.227C69.816,10.395 69.512,9.627 69.072,8.923C68.632,8.219 68.048,7.639 67.32,7.183C66.592,6.727 65.676,6.499 64.572,6.499C63.724,6.499 62.944,6.659 62.232,6.979C61.52,7.299 60.904,7.747 60.384,8.323C59.864,8.899 59.46,9.579 59.172,10.363C58.884,11.147 58.74,12.011 58.74,12.955C58.772,13.899 58.912,14.771 59.16,15.571C59.408,16.371 59.78,17.059 60.276,17.635C60.772,18.211 61.384,18.659 62.112,18.979C62.84,19.299 63.7,19.459 64.692,19.459C66.1,19.459 67.268,19.107 68.196,18.403C69.124,17.699 69.724,16.651 69.996,15.259Z" style="fill:white;fill-rule:nonzero;"/>
        <path d="M72.228,6.787L72.228,19.195L74.268,19.195L74.268,13.675C74.268,12.875 74.348,12.167 74.508,11.551C74.668,10.935 74.924,10.411 75.276,9.979C75.628,9.547 76.092,9.219 76.668,8.995C77.244,8.771 77.94,8.659 78.756,8.659L78.756,6.499C77.652,6.467 76.74,6.691 76.02,7.171C75.3,7.651 74.692,8.395 74.196,9.403L74.148,9.403L74.148,6.787L72.228,6.787Z" style="fill:white;fill-rule:nonzero;"/>
        <path d="M88.476,11.803L81.348,11.803C81.38,11.323 81.484,10.871 81.66,10.447C81.836,10.023 82.076,9.651 82.38,9.331C82.684,9.011 83.048,8.759 83.472,8.575C83.896,8.391 84.372,8.299 84.9,8.299C85.412,8.299 85.88,8.391 86.304,8.575C86.728,8.759 87.096,9.007 87.408,9.319C87.72,9.631 87.968,10.003 88.152,10.435C88.336,10.867 88.444,11.323 88.476,11.803ZM90.444,15.259L88.428,15.259C88.252,16.075 87.888,16.683 87.336,17.083C86.784,17.483 86.076,17.683 85.212,17.683C84.54,17.683 83.956,17.571 83.46,17.347C82.964,17.123 82.556,16.823 82.236,16.447C81.916,16.071 81.684,15.639 81.54,15.151C81.396,14.663 81.332,14.147 81.348,13.603L90.636,13.603C90.668,12.851 90.6,12.059 90.432,11.227C90.264,10.395 89.96,9.627 89.52,8.923C89.08,8.219 88.496,7.639 87.768,7.183C87.04,6.727 86.124,6.499 85.02,6.499C84.172,6.499 83.392,6.659 82.68,6.979C81.968,7.299 81.352,7.747 80.832,8.323C80.312,8.899 79.908,9.579 79.62,10.363C79.332,11.147 79.188,12.011 79.188,12.955C79.22,13.899 79.36,14.771 79.608,15.571C79.856,16.371 80.228,17.059 80.724,17.635C81.22,18.211 81.832,18.659 82.56,18.979C83.288,19.299 84.148,19.459 85.14,19.459C86.548,19.459 87.716,19.107 88.644,18.403C89.572,17.699 90.172,16.651 90.444,15.259Z" style="fill:white;fill-rule:nonzero;"/>
        <path d="M94.236,13.099C94.236,12.491 94.3,11.899 94.428,11.323C94.556,10.747 94.764,10.235 95.052,9.787C95.34,9.339 95.724,8.979 96.204,8.707C96.684,8.435 97.268,8.299 97.956,8.299C98.66,8.299 99.26,8.431 99.756,8.695C100.252,8.959 100.656,9.307 100.968,9.739C101.28,10.171 101.508,10.671 101.652,11.239C101.796,11.807 101.868,12.395 101.868,13.003C101.868,13.579 101.8,14.147 101.664,14.707C101.528,15.267 101.308,15.767 101.004,16.207C100.7,16.647 100.308,17.003 99.828,17.275C99.348,17.547 98.764,17.683 98.076,17.683C97.42,17.683 96.848,17.555 96.36,17.299C95.872,17.043 95.472,16.699 95.16,16.267C94.848,15.835 94.616,15.343 94.464,14.791C94.312,14.239 94.236,13.675 94.236,13.099ZM103.836,19.195L103.836,2.059L101.796,2.059L101.796,8.443L101.748,8.443C101.524,8.075 101.248,7.767 100.92,7.519C100.592,7.271 100.244,7.071 99.876,6.919C99.508,6.767 99.14,6.659 98.772,6.595C98.404,6.531 98.06,6.499 97.74,6.499C96.796,6.499 95.968,6.671 95.256,7.015C94.544,7.359 93.952,7.823 93.48,8.407C93.008,8.991 92.656,9.675 92.424,10.459C92.192,11.243 92.076,12.075 92.076,12.955C92.076,13.835 92.196,14.667 92.436,15.451C92.676,16.235 93.032,16.923 93.504,17.515C93.976,18.107 94.568,18.579 95.28,18.931C95.992,19.283 96.828,19.459 97.788,19.459C98.652,19.459 99.444,19.307 100.164,19.003C100.884,18.699 101.412,18.203 101.748,17.515L101.796,17.515L101.796,19.195L103.836,19.195Z" style="fill:white;fill-rule:nonzero;"/>
        <path d="M113.724,2.059L113.724,19.195L115.764,19.195L115.764,17.539L115.812,17.539C116.036,17.907 116.312,18.215 116.64,18.463C116.968,18.711 117.316,18.907 117.684,19.051C118.052,19.195 118.424,19.299 118.8,19.363C119.176,19.427 119.516,19.459 119.82,19.459C120.764,19.459 121.592,19.291 122.304,18.955C123.016,18.619 123.608,18.159 124.08,17.575C124.552,16.991 124.904,16.307 125.136,15.523C125.368,14.739 125.484,13.907 125.484,13.027C125.484,12.147 125.364,11.315 125.124,10.531C124.884,9.747 124.528,9.055 124.056,8.455C123.584,7.855 122.992,7.379 122.28,7.027C121.568,6.675 120.732,6.499 119.772,6.499C118.908,6.499 118.116,6.655 117.396,6.967C116.676,7.279 116.148,7.779 115.812,8.467L115.764,8.467L115.764,2.059L113.724,2.059ZM123.324,12.883C123.324,13.491 123.26,14.083 123.132,14.659C123.004,15.235 122.796,15.747 122.508,16.195C122.22,16.643 121.84,17.003 121.368,17.275C120.896,17.547 120.308,17.683 119.604,17.683C118.9,17.683 118.3,17.551 117.804,17.287C117.308,17.023 116.904,16.675 116.592,16.243C116.28,15.811 116.052,15.311 115.908,14.743C115.764,14.175 115.692,13.587 115.692,12.979C115.692,12.403 115.76,11.835 115.896,11.275C116.032,10.715 116.252,10.215 116.556,9.775C116.86,9.335 117.252,8.979 117.732,8.707C118.212,8.435 118.796,8.299 119.484,8.299C120.14,8.299 120.712,8.427 121.2,8.683C121.688,8.939 122.088,9.283 122.4,9.715C122.712,10.147 122.944,10.639 123.096,11.191C123.248,11.743 123.324,12.307 123.324,12.883Z" style="fill:white;fill-rule:nonzero;"/>
        <path d="M132.756,20.851C132.516,21.459 132.28,21.971 132.048,22.387C131.816,22.803 131.56,23.143 131.28,23.407C131,23.671 130.688,23.863 130.344,23.983C130,24.103 129.604,24.163 129.156,24.163C128.916,24.163 128.676,24.147 128.436,24.115C128.196,24.083 127.964,24.027 127.74,23.947L127.74,22.075C127.916,22.155 128.12,22.223 128.352,22.279C128.584,22.335 128.78,22.363 128.94,22.363C129.356,22.363 129.704,22.263 129.984,22.063C130.264,21.863 130.476,21.579 130.62,21.211L131.46,19.123L126.54,6.787L128.844,6.787L132.468,16.939L132.516,16.939L135.996,6.787L138.156,6.787L132.756,20.851Z" style="fill:white;fill-rule:nonzero;"/>
    </g>
</svg>
