<svg id="Capa_1" data-name="Capa 1" xmlns="http://www.w3.org/2000/svg" xmlns:xlink="http://www.w3.org/1999/xlink" viewBox="0 0 150 150"><defs><style>.cls-1{fill:#fff}.cls-2{fill:url(#Degradado_sin_nombre)}.cls-3{fill:#828282}.cls-4{fill:url(#Degradado_sin_nombre_2)}.cls-5{fill:url(#Degradado_sin_nombre_3)}.cls-6{fill:url(#Degradado_sin_nombre_4)}.cls-7{fill:url(#Degradado_sin_nombre_5)}.cls-8{fill:url(#Degradado_sin_nombre_6)}</style><linearGradient id="Degradado_sin_nombre" x1="-594.26" y1="489.08" x2="-593.78" y2="489.08" gradientTransform="matrix(0 19.15 19.47 0 -9489.83 11480.47)" gradientUnits="userSpaceOnUse"><stop offset="0" stop-color="#e10952"/><stop offset="1" stop-color="#a02671"/></linearGradient><linearGradient id="Degradado_sin_nombre_2" x1="-590.4" y1="485.53" x2="-589.93" y2="485.53" gradientTransform="matrix(0 19.15 19.47 0 -9357.83 11339.47)" xlink:href="#Degradado_sin_nombre"/><linearGradient id="Degradado_sin_nombre_3" x1="-593.76" y1="485.53" x2="-593.29" y2="485.53" gradientTransform="matrix(0 19.15 19.47 0 -9357.83 11462.47)" xlink:href="#Degradado_sin_nombre"/><linearGradient id="Degradado_sin_nombre_4" x1="-592.78" y1="490.02" x2="-592.3" y2="490.02" gradientTransform="matrix(0 19.15 19.47 0 -9524.9 11426.4)" xlink:href="#Degradado_sin_nombre"/><linearGradient id="Degradado_sin_nombre_5" x1="-591.11" y1="489.99" x2="-590.63" y2="489.99" gradientTransform="matrix(0 19.15 19.47 0 -9523.9 11365.4)" xlink:href="#Degradado_sin_nombre"/><linearGradient id="Degradado_sin_nombre_6" x1="-592.12" y1="485.8" x2="-591.65" y2="485.8" gradientTransform="matrix(0 19.15 19.47 0 -9367.9 11402.4)" xlink:href="#Degradado_sin_nombre"/></defs><title>OB2</title><g id="Canvas"><g id="OB3"><g id="Rectangle_6" data-name="Rectangle 6"><path id="path0_fill" data-name="path0 fill" class="cls-1" d="M19.93 106.61a11.2 11.2 0 0 1 11.2-11.2h37.2a11.2 11.2 0 1 1 0 22.41H31.14a11.2 11.2 0 0 1-11.21-11.21z"/></g><g id="Ellipse"><path id="path1_fill" data-name="path1 fill" class="cls-2" d="M37.8 106.17a4.64 4.64 0 1 1-4.64-4.56 4.6 4.6 0 0 1 4.64 4.56z"/></g><g id="Rectangle_8" data-name="Rectangle 8"><path id="path2_fill" data-name="path2 fill" class="cls-1" d="M35.27 104l.47.46L31 109l-.47-.46z"/></g><g id="Rectangle_8-2" data-name="Rectangle 8"><path id="path3_fill" data-name="path3 fill" class="cls-1" d="M30.58 104.42L31 104l4.69 4.61-.47.46z"/></g><g id="Craft"><path id="path4_fill" data-name="path4 fill" class="cls-3" d="M43.31 106.78c0 2.28 1.37 3.53 3.12 3.53a2.74 2.74 0 0 0 2.14-1l-.67-.74a1.86 1.86 0 0 1-1.45.68c-1.14 0-1.89-.94-1.89-2.51s.81-2.49 1.93-2.49a1.75 1.75 0 0 1 1.27.57l.67-.76a2.69 2.69 0 0 0-2-.87c-1.71.01-3.12 1.34-3.12 3.59zm6.29 3.41h1.2V107c.31-.78.81-1.06 1.22-1.06a1.68 1.68 0 0 1 .53.08l.21-1a1.31 1.31 0 0 0-.59-.1 1.75 1.75 0 0 0-1.46 1l-.08-.91h-1zm3.4-1.39a1.45 1.45 0 0 0 1.53 1.51 2.51 2.51 0 0 0 1.59-.69l.09.57h1v-3.05c0-1.44-.63-2.22-1.92-2.22a4 4 0 0 0-2.11.67l.44.81a2.87 2.87 0 0 1 1.45-.5c.69 0 .92.46.93 1-2.07.22-3 .8-3 1.9zm1.17-.09c0-.51.46-.88 1.86-1.06v1.15a1.62 1.62 0 0 1-1.12.57c-.43 0-.73-.2-.73-.66zm10.14.52a1.48 1.48 0 0 1-.53.12c-.49 0-.73-.29-.73-.9V106h1.32v-1H63v-1.41h-1l-.1 1.41h-1.77v-.56c0-.6.23-.87.65-.87a1.42 1.42 0 0 1 .57.13l.23-.9a2.61 2.61 0 0 0-.94-.18c-1.22 0-1.71.78-1.71 1.85v.53l-.69.05v.9h.69v4.2h1.21V106h1.71v2.45c0 1.11.44 1.87 1.63 1.87a3.3 3.3 0 0 0 1.06-.19z"/></g><g id="Rectangle_6-2" data-name="Rectangle 6"><path id="path5_fill" data-name="path5 fill" class="cls-1" d="M82.87 39.39a11.2 11.2 0 0 1 11.2-11.2h23.84a11.2 11.2 0 0 1 0 22.41H94.07a11.2 11.2 0 0 1-11.2-11.21z"/></g><g id="Ellipse-2" data-name="Ellipse"><path id="path1_fill-2" data-name="path1 fill" class="cls-4" d="M100.73 38.95a4.64 4.64 0 1 1-4.64-4.56 4.6 4.6 0 0 1 4.64 4.56z"/></g><g id="Rectangle_8-3" data-name="Rectangle 8"><path id="path2_fill-2" data-name="path2 fill" class="cls-1" d="M98.2 36.74l.47.46L94 41.81l-.47-.46z"/></g><g id="Rectangle_8-4" data-name="Rectangle 8"><path id="path3_fill-2" data-name="path3 fill" class="cls-1" d="M93.51 37.2l.47-.46 4.69 4.61-.47.46z"/></g><g id="Art"><path id="path6_fill" data-name="path6 fill" class="cls-3" d="M107.77 40.15l.24-.84c.22-.72.42-1.5.61-2.27.2.76.41 1.54.62 2.27l.24.84zm2.55 2.85h1.29l-2.23-6.86H108L105.71 43H107l.53-1.86h2.3zm2 0h1.21v-3.18c.31-.78.81-1.06 1.22-1.06a1.68 1.68 0 0 1 .53.08l.21-1a1.31 1.31 0 0 0-.59-.1 1.75 1.75 0 0 0-1.46 1l-.08-.91h-1zm4.09-1.74c0 1.11.44 1.87 1.64 1.87a3.29 3.29 0 0 0 1-.19l-.15-.94a1.48 1.48 0 0 1-.53.12c-.49 0-.72-.29-.72-.9v-2.45H119v-1h-1.31v-1.36h-1l-.15 1.41-.8.05v.9h.73z"/></g><g id="Rectangle_6-3" data-name="Rectangle 6"><path id="path0_fill-2" data-name="path0 fill" class="cls-1" d="M82.87 98a11.2 11.2 0 0 1 11.2-11.2h37.19a11.2 11.2 0 1 1 0 22.41H94.07A11.2 11.2 0 0 1 82.87 98z"/></g><g id="Ellipse-3" data-name="Ellipse"><path id="path1_fill-3" data-name="path1 fill" class="cls-5" d="M100.73 97.59A4.64 4.64 0 1 1 96.09 93a4.6 4.6 0 0 1 4.64 4.59z"/></g><g id="Rectangle_8-5" data-name="Rectangle 8"><path id="path2_fill-3" data-name="path2 fill" class="cls-1" d="M98.2 95.38l.47.46-4.67 4.61-.47-.46z"/></g><g id="Rectangle_8-6" data-name="Rectangle 8"><path id="path3_fill-3" data-name="path3 fill" class="cls-1" d="M93.51 95.84l.47-.46 4.69 4.62-.47.46z"/></g><g id="Music"><path id="path7_fill" data-name="path7 fill" class="cls-3" d="M106.61 101.61h1.11v-3.14c0-.64-.09-1.55-.15-2.18l.55 1.56 1.19 3.12h.56l1.19-3.12.56-1.56c-.06.63-.16 1.54-.16 2.18v3.14h1.14v-6.86h-1.34l-1.21 3.38-.45 1.3-.45-1.3-1.24-3.38h-1.33zm7.64-1.92c0 1.3.48 2 1.58 2a2.1 2.1 0 0 0 1.66-.88l.09.76h1v-5.11h-1.18V100c-.39.5-.69.71-1.14.71s-.8-.31-.8-1.16v-3.09h-1.21zm5.37 1.33a3.26 3.26 0 0 0 2 .71c1.3 0 2-.71 2-1.59s-.78-1.3-1.48-1.56-1.07-.37-1.07-.77.24-.57.76-.57a1.92 1.92 0 0 1 1.13.44l.56-.73a2.78 2.78 0 0 0-1.71-.62c-1.15 0-1.88.64-1.88 1.54s.77 1.25 1.45 1.5 1.1.4 1.1.83-.26.62-.82.62a2.29 2.29 0 0 1-1.43-.58zm5.64-5.46a.69.69 0 1 0-.74-.68.69.69 0 0 0 .74.67zm-.61 6.05h1.21v-5.15h-1.21zm2.41-2.61a2.45 2.45 0 0 0 2.49 2.7 2.58 2.58 0 0 0 1.69-.66l-.5-.77a1.7 1.7 0 0 1-1.06.44c-.81 0-1.37-.68-1.37-1.71s.58-1.72 1.41-1.72a1.28 1.28 0 0 1 .87.38l.58-.77a2.12 2.12 0 0 0-1.51-.6 2.54 2.54 0 0 0-2.6 2.71z"/></g><g id="Rectangle_6-4" data-name="Rectangle 6"><path id="path8_fill" data-name="path8 fill" class="cls-1" d="M4.2 80.39a11.2 11.2 0 0 1 11.2-11.2h47.2a11.2 11.2 0 0 1 0 22.41H15.4A11.2 11.2 0 0 1 4.2 80.39z"/></g><g id="Ellipse-4" data-name="Ellipse"><path id="path1_fill-4" data-name="path1 fill" class="cls-6" d="M21.08 80.39a4.64 4.64 0 1 1-4.64-4.56 4.6 4.6 0 0 1 4.64 4.56z"/></g><g id="Rectangle_8-7" data-name="Rectangle 8"><path id="path2_fill-4" data-name="path2 fill" class="cls-1" d="M18.55 78.18l.47.46-4.69 4.61-.47-.46z"/></g><g id="Rectangle_8-8" data-name="Rectangle 8"><path id="path3_fill-4" data-name="path3 fill" class="cls-1" d="M13.86 78.64l.47-.46L19 82.79l-.47.46z"/></g><g id="Fashion"><path id="path9_fill" data-name="path9 fill" class="cls-3" d="M27.95 84h1.22v-2.9h2.49v-1h-2.5v-1.97h2.93v-1h-4.14zm4.61-1.38a1.45 1.45 0 0 0 1.53 1.51 2.51 2.51 0 0 0 1.59-.69l.09.57h1v-3.1c0-1.44-.63-2.22-1.92-2.22a4 4 0 0 0-2.11.67l.44.81a2.87 2.87 0 0 1 1.45-.5c.69 0 .92.46.93 1-2.08.23-3 .81-3 1.91zm1.17-.09c0-.51.46-.88 1.86-1.06v1.15a1.62 1.62 0 0 1-1.12.57c-.47-.04-.74-.24-.74-.7zm4 .89a3.26 3.26 0 0 0 2 .71c1.3 0 2-.71 2-1.59s-.78-1.3-1.48-1.56-1.07-.37-1.07-.77.24-.57.76-.57A1.92 1.92 0 0 1 41 80l.56-.73a2.78 2.78 0 0 0-1.71-.62c-1.15 0-1.88.64-1.88 1.54s.77 1.25 1.45 1.5 1.1.4 1.1.83-.26.62-.82.62a2.29 2.29 0 0 1-1.43-.58zm5 .59H44v-3.6a1.63 1.63 0 0 1 1.17-.64c.57 0 .81.31.81 1.16V84h1.21v-3.26c0-1.3-.48-2-1.58-2a2.36 2.36 0 0 0-1.65.78v-2.96h-1.17zm6.46-6.05a.69.69 0 1 0-.74-.68.69.69 0 0 0 .79.63zM48.63 84h1.21v-5.18h-1.21zM51 81.4a2.46 2.46 0 1 0 2.44-2.71A2.49 2.49 0 0 0 51 81.4zm1.24 0c0-1 .45-1.72 1.21-1.72s1.22.68 1.22 1.72-.46 1.71-1.22 1.71-1.17-.69-1.17-1.71zm4.9 2.6h1.21v-3.6a1.63 1.63 0 0 1 1.17-.64c.57 0 .81.31.81 1.16V84h1.21v-3.26c0-1.3-.48-2-1.58-2a2.39 2.39 0 0 0-1.69.82l-.08-.69h-1z"/></g><g id="Rectangle_6-5" data-name="Rectangle 6"><path id="path10_fill" data-name="path10 fill" class="cls-1" d="M4.68 51.31a11.2 11.2 0 0 1 11.2-11.2h52a11.2 11.2 0 1 1 0 22.41h-52a11.2 11.2 0 0 1-11.2-11.21z"/></g><g id="Ellipse-5" data-name="Ellipse"><path id="path1_fill-5" data-name="path1 fill" class="cls-7" d="M21.56 51.31a4.64 4.64 0 1 1-4.64-4.56 4.6 4.6 0 0 1 4.64 4.56z"/></g><g id="Rectangle_8-9" data-name="Rectangle 8"><path id="path2_fill-5" data-name="path2 fill" class="cls-1" d="M19 49.1l.47.46-4.67 4.61-.47-.46z"/></g><g id="Rectangle_8-10" data-name="Rectangle 8"><path id="path3_fill-5" data-name="path3 fill" class="cls-1" d="M14.34 49.56l.47-.46 4.69 4.61-.47.46z"/></g><g id="Business"><path id="path11_fill" data-name="path11 fill" class="cls-3" d="M28.42 54.88h2.37c1.51 0 2.63-.64 2.63-2 0-.92-.56-1.46-1.54-1.63a1.49 1.49 0 0 0 1.17-1.49c0-1.26-1-1.69-2.44-1.69h-2.19zm1.22-4V49h.89c.89 0 1.33.26 1.33.89s-.4 1-1.36 1zm0 3.07v-2.2h1c1 0 1.56.34 1.56 1s-.56 1.15-1.56 1.15zm4.86-1c0 1.3.48 2 1.58 2a2.1 2.1 0 0 0 1.66-.88l.09.76h1v-5.1h-1.18v3.52c-.39.5-.69.71-1.14.71s-.8-.31-.8-1.16v-3.07H34.5zm5.37 1.33a3.26 3.26 0 0 0 2 .71c1.3 0 2-.71 2-1.59s-.78-1.3-1.48-1.56-1.07-.37-1.07-.77.24-.57.76-.57a1.92 1.92 0 0 1 1.13.44l.56-.73a2.78 2.78 0 0 0-1.77-.6c-1.15 0-1.88.64-1.88 1.54s.77 1.25 1.45 1.5 1.1.4 1.1.83-.26.62-.82.62a2.29 2.29 0 0 1-1.43-.58zm5.64-5.46a.69.69 0 1 0-.74-.68.69.69 0 0 0 .74.69zm-.61 6.05h1.21v-5.14H44.9zm2.75 0h1.21v-3.6a1.63 1.63 0 0 1 1.14-.62c.57 0 .81.31.81 1.16v3.07H52v-3.23c0-1.3-.48-2-1.58-2a2.39 2.39 0 0 0-1.69.82l-.08-.69h-1zm5.53-2.57a2.48 2.48 0 0 0 2.54 2.7 3.25 3.25 0 0 0 1.76-.56l-.41-.76a2.15 2.15 0 0 1-1.2.38 1.48 1.48 0 0 1-1.52-1.46h3.27a2.59 2.59 0 0 0 .05-.57c0-1.44-.73-2.44-2.13-2.44a2.51 2.51 0 0 0-2.36 2.72zm1.16-.46c.1-.86.63-1.31 1.24-1.31s1 .49 1 1.31zm4 2.44a3.26 3.26 0 0 0 2 .71c1.3 0 2-.71 2-1.59s-.78-1.3-1.48-1.56-1.07-.37-1.07-.77.24-.57.76-.57a1.92 1.92 0 0 1 1.13.44l.56-.73a2.78 2.78 0 0 0-1.71-.62c-1.15 0-1.88.64-1.88 1.54s.77 1.25 1.45 1.5 1.1.4 1.1.83-.26.62-.82.62a2.29 2.29 0 0 1-1.43-.58zm4.52 0a3.26 3.26 0 0 0 2 .71c1.3 0 2-.71 2-1.59s-.78-1.3-1.48-1.56-1.07-.37-1.07-.77.24-.57.76-.57a1.92 1.92 0 0 1 1.13.44l.56-.73a2.78 2.78 0 0 0-1.76-.6c-1.15 0-1.88.64-1.88 1.54s.77 1.25 1.45 1.5 1.1.4 1.1.83-.26.62-.82.62a2.29 2.29 0 0 1-1.43-.58z"/></g><g id="Rectangle_6-6" data-name="Rectangle 6"><path id="path12_fill" data-name="path12 fill" class="cls-1" d="M79.05 68.95a11.2 11.2 0 0 1 11.2-11.2h44.35a11.2 11.2 0 0 1 0 22.41H90.26a11.2 11.2 0 0 1-11.21-11.21z"/></g><g id="Ellipse-6" data-name="Ellipse"><path id="path1_fill-6" data-name="path1 fill" class="cls-8" d="M95.93 68.95a4.64 4.64 0 1 1-4.64-4.56 4.6 4.6 0 0 1 4.64 4.56z"/></g><g id="Rectangle_8-11" data-name="Rectangle 8"><path id="path2_fill-6" data-name="path2 fill" class="cls-1" d="M93.4 66.74l.47.46-4.69 4.61-.47-.46z"/></g><g id="Rectangle_8-12" data-name="Rectangle 8"><path id="path3_fill-6" data-name="path3 fill" class="cls-1" d="M88.71 67.2l.47-.46 4.69 4.61-.47.46z"/></g><g id="Mexico"><path id="path13_fill" data-name="path13 fill" class="cls-3" d="M102.8 72.52h1.11v-3.13c0-.64-.09-1.55-.15-2.18l.55 1.56 1.19 3.12h.56l1.19-3.12.56-1.56c-.06.63-.16 1.54-.16 2.18v3.14h1.14v-6.87h-1.34L106.31 69l-.45 1.3-.45-1.3-1.24-3.38h-1.37zm7.35-2.52a2.48 2.48 0 0 0 2.54 2.7 3.25 3.25 0 0 0 1.76-.56l-.41-.76a2.15 2.15 0 0 1-1.2.38 1.48 1.48 0 0 1-1.52-1.46h3.27a2.59 2.59 0 0 0 .05-.57c0-1.44-.73-2.44-2.13-2.44a2.51 2.51 0 0 0-2.36 2.71zm1.16-.46c.1-.86.63-1.31 1.24-1.31s1 .49 1 1.31zm3.75 3h1.26l.55-1c.15-.31.3-.62.45-.91.18.29.36.61.52.91l.63 1h1.3L118.18 70l1.52-2.6h-1.25l-.49 1-.4.87c-.16-.28-.33-.59-.47-.87l-.58-1h-1.3l1.53 2.46zm6.28-6.05a.69.69 0 1 0-.74-.68.69.69 0 0 0 .74.66zm-.61 6.05h1.21v-5.17h-1.21zm2.41-2.54a2.45 2.45 0 0 0 2.49 2.7 2.58 2.58 0 0 0 1.69-.66l-.5-.77a1.7 1.7 0 0 1-1.06.44c-.81 0-1.37-.68-1.37-1.71s.58-1.72 1.41-1.72a1.28 1.28 0 0 1 .87.38l.58-.77a2.12 2.12 0 0 0-1.51-.6 2.54 2.54 0 0 0-2.6 2.71zm4.59 0a2.46 2.46 0 1 0 2.44-2.71 2.49 2.49 0 0 0-2.44 2.71zm1.27 0c0-1 .45-1.72 1.21-1.72s1.22.68 1.22 1.72-.46 1.71-1.22 1.71S129 71 129 70z"/></g></g></g></svg>