<svg id="Capa_1" data-name="Capa 1" xmlns="http://www.w3.org/2000/svg" viewBox="0 0 150 150"><defs><style>.cls-1{fill:url(#Degradado_sin_nombre)}</style><linearGradient id="Degradado_sin_nombre" x1="-602.29" y1="462.43" x2="-601.73" y2="462.43" gradientTransform="matrix(75.03 101.38 101.38 -75.03 -1660.92 95777.38)" gradientUnits="userSpaceOnUse"><stop offset="0" stop-color="#f9104e"/><stop offset="1" stop-color="#a02671"/></linearGradient></defs><title>OB1</title><g id="Canvas"><g id="OB1"><path id="path0_fill" data-name="path0 fill" class="cls-1" d="M43.14 42.85A33.85 33.85 0 1 1 77 76.71a33.89 33.89 0 0 1-33.86-33.86zm7 0A26.87 26.87 0 1 0 77 16a26.88 26.88 0 0 0-26.88 26.85zm23.36 3.49h21.64v-7H80.48V24.71h-7zm28.24 42.6a23.61 23.61 0 1 1 23.61 23.61 23.63 23.63 0 0 1-23.61-23.61zm4.87 0a18.74 18.74 0 1 0 18.74-18.74 18.75 18.75 0 0 0-18.74 18.74zm16.31 2.43H138v-4.86h-10.21V76.28h-4.87zm-59.3-7.27a28.45 28.45 0 1 0 28.45 28.45A28.47 28.47 0 0 0 63.62 84.1zm0 51a22.58 22.58 0 1 1 22.58-22.55 22.59 22.59 0 0 1-22.58 22.58zm15.25-19.65H60.69V97.3h5.87v12.32h12.31zM1 75a18.21 18.21 0 1 1 18.24 18.21A18.22 18.22 0 0 1 1 75zm3.75 0a14.45 14.45 0 1 0 14.49-14.45A14.46 14.46 0 0 0 4.79 75zm12.58 1.88H29v-3.76h-7.88v-7.88h-3.76z"/></g></g></svg>