<svg width="209" height="114" viewBox="0 0 209 114" xmlns="http://www.w3.org/2000/svg" xmlns:xlink="http://www.w3.org/1999/xlink" xmlns:figma="http://www.figma.com/figma/ns"><title>Todos_icon</title><desc>Created using Figma</desc><use xlink:href="#a" transform="translate(10 6)" fill="url(#b)" filter="url(#c)" figma:type="vector"/><defs><filter id="c" filterUnits="userSpaceOnUse" x="8359" y="897" width="209" height="114" color-interpolation-filters="sRGB"><feFlood flood-opacity="0" result="BackgroundImageFix"/><desc>type=&quot;dropShadow&quot; x=&quot;0&quot; y=&quot;4&quot; size=&quot;10&quot; spread=&quot;0&quot; color=&quot;0.333333,0.0666667,0.247059,0.5&quot; blend=&quot;normal&quot;</desc><feColorMatrix in="SourceAlpha" values="0 0 0 0 0 0 0 0 0 0 0 0 0 0 0 0 0 0 255 0"/><feOffset dy="4"/><feGaussianBlur stdDeviation="5"/><feColorMatrix values="0 0 0 0 0.333333 0 0 0 0 0.0666667 0 0 0 0 0.247059 0 0 0 0.5 0"/><feBlend in2="BackgroundImageFix" result="effect1_dropShadow"/><feBlend in="SourceGraphic" in2="effect1_dropShadow" result="shape"/></filter><linearGradient id="b" x2="1" gradientUnits="userSpaceOnUse" gradientTransform="scale(452.003 226) rotate(90 .4 .309)"><stop offset="0" stop-color="#D90754"/><stop offset=".983" stop-color="#972874"/></linearGradient><path id="a" fill-rule="evenodd" d="M67.007 20.859c0 11.517 9.413 20.858 20.917 20.858 11.505 0 20.918-9.34 20.918-20.858S99.475 0 87.924 0c-11.55 0-20.917 9.341-20.917 20.859zm5.457 0c0-8.525 6.957-15.418 15.46-15.418 8.504 0 15.461 6.893 15.461 15.418 0 8.524-6.912 15.417-15.46 15.417-8.55 0-15.46-6.893-15.46-15.417zm53.794 57.222h-.013l-.034-2.355c0-15.825-16.461-27.751-38.288-27.751-21.826 0-38.287 11.926-38.287 27.706l-.227 12.243c-.046 1.36.5 2.72 1.546 3.763C52.41 93.184 54.637 94 57.047 94h22.826a2.732 2.732 0 0 0 2.729-2.72 2.732 2.732 0 0 0-2.729-2.721H57.047c-1.227 0-1.955-.454-2.182-.68l.227-12.153c0-12.742 14.097-22.31 32.831-22.31 18.735 0 32.831 9.613 32.831 22.355l.033 2.31h-.132v10.477H97.337a2.732 2.732 0 0 0-2.728 2.721A2.732 2.732 0 0 0 97.337 94h26.193a2.732 2.732 0 0 0 2.709-3.039h.019V78.08zm57.641-8.12h.097l-.024-1.691c0-9.328-10.32-16.365-24.037-16.365-13.716 0-24.037 7.004-24.037 16.331l-.166 8.896c.166.166.699.498 1.597.498h16.712a2 2 0 0 1 1.998 1.992 2 2 0 0 1-1.998 1.992h-16.712c-1.764 0-3.395-.598-4.46-1.693-.766-.764-1.166-1.76-1.132-2.755l.166-8.963c0-11.551 12.052-20.282 28.032-20.282s28.032 8.73 28.032 20.315l.034 1.724-.001.567.001 8.861h-.014a2 2 0 0 1-1.985 2.225h-19.176a2 2 0 0 1-1.998-1.991 2 2 0 0 1 1.998-1.992h17.073v-7.67zm-39.278-41.89c0 8.432 6.892 15.27 15.315 15.27 8.423 0 15.314-6.838 15.314-15.27 0-8.431-6.858-15.27-15.314-15.27s-15.315 6.839-15.315 15.27zm3.996 0c0-6.24 5.093-11.286 11.319-11.286 6.225 0 11.319 5.046 11.319 11.286 0 6.24-5.06 11.286-11.319 11.286-6.259 0-11.319-5.045-11.319-11.286zm-87.188 12.75h.04l-.01-.727c0-4.011-4.28-7.037-9.966-7.037-5.688 0-9.967 3.011-9.967 7.022l-.07 3.825c.07.072.29.215.663.215h6.93c.455 0 .827.385.827.856s-.372.856-.828.856H42.12c-.733 0-1.409-.256-1.851-.728a1.634 1.634 0 0 1-.469-1.184l.069-3.854c0-4.967 4.998-8.721 11.624-8.721 6.625 0 11.622 3.754 11.622 8.735l.015.741v4.054h-.008a.85.85 0 0 1 .006.1c0 .472-.372.857-.828.857h-7.95c-.455 0-.828-.385-.828-.856s.373-.857.828-.857h7.08V40.82zM45.143 22.807c0 3.626 2.857 6.566 6.35 6.566 3.493 0 6.35-2.94 6.35-6.566 0-3.625-2.844-6.566-6.35-6.566s-6.35 2.94-6.35 6.566zm1.656 0c0-2.683 2.112-4.853 4.694-4.853s4.693 2.17 4.693 4.853c0 2.684-2.098 4.853-4.693 4.853-2.595 0-4.694-2.17-4.694-4.853zm88.78 8.612h.041l-.01-.693c0-3.824-4.154-6.71-9.674-6.71s-9.673 2.872-9.673 6.696l-.067 3.648c.067.068.281.204.643.204h6.726c.441 0 .804.367.804.816 0 .45-.363.817-.804.817h-6.726c-.71 0-1.367-.245-1.796-.694a1.549 1.549 0 0 1-.455-1.13l.067-3.674c0-4.736 4.85-8.316 11.281-8.316 6.432 0 11.281 3.58 11.281 8.33l.014.706v3.865a.342.342 0 0 1 .001.064l-.001.032c0 .45-.362.817-.804.817h-7.718a.812.812 0 0 1-.803-.817c0-.45.361-.816.803-.816h6.87V31.42zm-15.805-17.175c0 3.457 2.773 6.26 6.163 6.26s6.163-2.803 6.163-6.26c0-3.456-2.76-6.26-6.163-6.26-3.403 0-6.163 2.804-6.163 6.26zm1.607 0c0-2.558 2.05-4.627 4.556-4.627 2.506 0 4.556 2.069 4.556 4.627 0 2.559-2.038 4.628-4.556 4.628-2.519 0-4.556-2.069-4.556-4.628zM36.897 65.77h.068l-.016-1.2c0-6.623-7.3-11.619-17.002-11.619-9.701 0-17.001 4.973-17.001 11.595l-.118 6.317c.118.118.494.353 1.13.353h11.82c.777 0 1.413.637 1.413 1.414 0 .778-.636 1.414-1.412 1.414H3.957c-1.248 0-2.401-.424-3.155-1.202-.54-.542-.824-1.249-.8-1.956l.118-6.363c0-8.202 8.524-14.4 19.827-14.4 11.303 0 19.828 6.198 19.828 14.423l.024 1.224v6.694h-.01a1.418 1.418 0 0 1-1.403 1.58H24.822a1.418 1.418 0 0 1-1.412-1.414c0-.778.635-1.414 1.413-1.414h12.074V65.77zM9.115 36.03c0 5.986 4.875 10.84 10.832 10.84 5.958 0 10.832-4.854 10.832-10.84 0-5.987-4.85-10.842-10.832-10.842-5.982 0-10.832 4.855-10.832 10.841zm2.826 0c0-4.432 3.602-8.014 8.006-8.014 4.403 0 8.006 3.582 8.006 8.013s-3.58 8.013-8.006 8.013a8.003 8.003 0 0 1-8.006-8.013z"/></defs></svg>