<svg viewBox="0 0 280 175" xmlns="http://www.w3.org/2000/svg" fill-rule="evenodd" clip-rule="evenodd" stroke-linejoin="round" stroke-miterlimit="1.414"><path d="M141.5 88.3c0-2.3 1.9-4.2 4.2-4.2 2.3 0 4.3 1.9 4.3 4.2 0 2.3-1.9 4.2-4.2 4.2-.4 0-.9-.1-1.3-.2l-4.9 10.3c2 1.2 3.3 3.3 3.3 5.8 0 3.7-3 6.8-6.7 6.8-3.3 0-6-2.3-6.6-5.4l-17.7.7c-.2 2.4-2.2 4.4-4.7 4.4-2.6 0-4.7-2.1-4.7-4.7 0-.9.3-1.8.8-2.6l-6.7-7.7.1-.1c-.4.2-.8.3-1.2.3-.4 0-.8-.1-1.1-.2L84 113.7c.4.5.7 1.2.7 2 0 1.7-1.3 3-3 3s-3-1.4-3-3c0-.4.1-.8.2-1.1l-9.7-6c-.8 1.1-2.2 1.8-3.6 1.8-1.7 0-3.2-.9-4-2.2l.2.4-12.2 6.6-.2-.4c.3.8.4 1.7.4 2.6 0 4.8-3.8 8.6-8.6 8.6s-8.6-3.8-8.6-8.6c0-2.3.8-4.3 2.3-5.9L26 100.6c-.5.3-1 .4-1.5.4-1.7 0-3-1.4-3-3s1.3-3 3-3c.5 0 1 .1 1.4.4l6.2-12 .1.1c-.6-.6-1.1-1.5-1.3-2.3l-14.6.3c-.2 2.4-2.2 4.4-4.7 4.4-2.6 0-4.7-2.1-4.7-4.7s2.1-4.7 4.7-4.7c1 0 2 .3 2.8.9l10.7-11.3c-1.7-1.7-2.7-4-2.7-6.5 0-4.8 3.7-8.7 8.4-9.1l-1.3-13c-.7-.1-1.2-.5-1.7-1l-22.3 14c.4.5.6 1.1.6 1.8 0 1.7-1.3 3-3 3s-3-1.4-3-3c0-1.7 1.3-3 3-3 .6 0 1.2.2 1.7.5l22.5-14.6c-.3-.3-.3-.7-.3-1.1 0-1.7 1.3-3 3-3 1.5 0 2.7 1 3 2.4l21-.4c.2-4.9 4.2-8.8 9.1-8.8 5 0 9.1 4.1 9.1 9.1 0 4.1-2.7 7.5-6.4 8.7l3.3 8.8c1.6-.4 3.3-.6 5.1-.6 3.6 0 7 .9 10 2.5l3.5-7.6c-1.2-.8-2.1-2.2-2.1-3.7 0-2.4 2-4.4 4.4-4.4 2 0 3.7 1.4 4.2 3.3l-.1-.3 11.3-1.9c0-1.7 1.3-3 3-3s3 1.4 3 3c0 .6-.2 1.1-.4 1.6l13 11.7c.5-.4 1.2-.7 2-.7 1.7 0 3 1.4 3 3 0 1.7-1.3 3-3 3h-.4l-3.3 13c2.5.8 4.7 2.4 6.2 4.5l9.4-4.9c-.1-.3-.2-.7-.2-1.1 0-2.1 1.7-3.7 3.7-3.7s3.7 1.7 3.7 3.7c0 2.1-1.7 3.7-3.7 3.7-1.3 0-2.4-.7-3.1-1.7l-9.3 4.8c1 1.8 1.6 3.8 1.6 6 0 6.5-5.3 11.8-11.8 11.8-.6 0-1.2 0-1.8-.1l-7.2 13.5c1 .7 1.8 1.9 1.9 3.2l17.6-.7v-.3c0-3.7 3-6.8 6.7-6.8.9 0 1.8.2 2.6.5l4.8-10.3c-1.1-.7-1.9-2.1-1.9-3.6zm3.4-20.1c0-1.9-1.5-3.4-3.4-3.4s-3.4 1.5-3.4 3.4 1.5 3.4 3.4 3.4 3.4-1.5 3.4-3.4zM3 55.1c1.5 0 2.8-1.2 2.8-2.8 0-1.5-1.2-2.8-2.8-2.8-1.5 0-2.8 1.2-2.8 2.8.1 1.6 1.3 2.8 2.8 2.8zm115.9 36.7c5.9 0 10.7-4.8 10.7-10.7 0-5.9-4.8-10.7-10.7-10.7-5.9 0-10.7 4.8-10.7 10.7 0 5.9 4.8 10.7 10.7 10.7zm9.9-38.1c0-1.5-1.2-2.8-2.8-2.8-1.6 0-2.8 1.2-2.8 2.8 0 1.5 1.2 2.8 2.8 2.8 1.6 0 2.8-1.3 2.8-2.8zm-17.5-15.5c0-1.5-1.2-2.8-2.8-2.8-1.6 0-2.8 1.2-2.8 2.8 0 1.5 1.2 2.8 2.8 2.8 1.6 0 2.8-1.3 2.8-2.8zM90 37.6c-2.2 0-4 1.8-4 4s1.8 4 4 4 4-1.8 4-4c-.1-2.2-1.9-4-4-4zm0 8.3c-.5 0-1-.1-1.4-.2l-3.5 7.7c4 2.4 7.1 6.1 8.9 10.5l10.8-4.9c-.2-.5-.3-1-.3-1.5 0-2.3 1.6-4.2 3.7-4.6l-.3-11.7c-1-.2-1.9-1-2.2-2l-11.3 1.9v.4c-.1 2.5-2 4.4-4.4 4.4zm23.4 11.5c0-2.4-1.9-4.3-4.3-4.3s-4.3 1.9-4.3 4.3 1.9 4.3 4.3 4.3 4.3-1.9 4.3-4.3zm-20 14.2c0-10.6-8.7-19.3-19.3-19.3-10.6 0-19.3 8.7-19.3 19.3 0 10.6 8.7 19.3 19.3 19.3 10.6 0 19.3-8.7 19.3-19.3zM71.3 33.4c0-4.6-3.7-8.3-8.3-8.3-4.5 0-8.3 3.7-8.3 8.3 0 4.6 3.7 8.3 8.3 8.3 4.6 0 8.3-3.7 8.3-8.3zM30 31.3c-1.5 0-2.8 1.2-2.8 2.8 0 1.5 1.2 2.8 2.8 2.8 1.5 0 2.8-1.2 2.8-2.8-.1-1.5-1.3-2.8-2.8-2.8zm1.3 19.5c-4.5 0-8.3 3.7-8.3 8.3 0 4.6 3.7 8.3 8.3 8.3 4.5 0 8.3-3.7 8.3-8.3 0-4.5-3.7-8.3-8.3-8.3zM7.2 80.7c0 2.4 1.9 4.3 4.3 4.3s4.3-1.9 4.3-4.3-1.9-4.3-4.3-4.3-4.3 2-4.3 4.3zm8.9-.7l14.5-.3c0-2.6 2.1-4.7 4.7-4.7 2.3 0 4.3 1.7 4.6 4L53 74.9c-.1-1.1-.2-2.2-.2-3.3 0-9.6 6.4-17.8 15.2-20.4l-3.3-8.8c-.6.1-1.1.2-1.8.2-4.8 0-8.7-3.7-9.1-8.4l-21 .4c-.2 1.4-1.3 2.4-2.7 2.6L31.7 50c3 .1 5.6 1.7 7.1 4l7.6-3.9c-.2-.4-.3-.9-.3-1.4 0-2.2 1.8-4.1 4-4.1s4 1.8 4 4.1c0 2.2-1.8 4.1-4 4.1-1.3 0-2.6-.7-3.3-1.8l-7.5 3.9c.7 1.3 1.1 2.7 1.1 4.3 0 5-4.1 9.1-9.1 9.1-2.2 0-4.1-.7-5.7-2L15 77.6c.6.7 1 1.5 1.1 2.4zm34.1-35c-2 0-3.7 1.7-3.7 3.7s1.7 3.7 3.7 3.7 3.7-1.7 3.7-3.7-1.7-3.7-3.7-3.7zM35.4 75.4c-2.4 0-4.3 1.9-4.3 4.3S33 84 35.4 84s4.3-1.9 4.3-4.3-2-4.3-4.3-4.3zM21.5 97.6c0 1.5 1.2 2.8 2.8 2.8 1.5 0 2.8-1.3 2.8-2.8 0-.8-.4-1.6-1-2.1-.1-.1-.3-.2-.4-.3-.4-.2-.8-.3-1.3-.3-1.7-.1-2.9 1.2-2.9 2.7zm5.8 0c0 .7-.3 1.4-.7 2l8.8 10.9c1.5-1.3 3.4-2.1 5.6-2.1.6 0 1.2.1 1.9.2l3-10.3c-1-.5-1.7-1.6-1.7-2.7 0-.7.3-1.4.7-2l-7.1-9.8c-.7.4-1.5.6-2.4.6-1 0-1.9-.3-2.7-.8l-6.2 12c.5.5.8 1.2.8 2zm22.6-2c0-1.5-1.2-2.8-2.8-2.8-1.5 0-2.8 1.3-2.8 2.8 0 1.5 1.2 2.8 2.8 2.8 1.6 0 2.8-1.3 2.8-2.8zm-7 13.8c-.6-.1-1.3-.2-2-.2-4.3 0-7.8 3.5-7.8 7.8s3.5 7.8 7.8 7.8 7.8-3.5 7.8-7.9c0-3.4-2.3-6.4-5.4-7.4l-.4-.1zm18.2-4c0 2.4 1.9 4.3 4.3 4.3s4.3-1.9 4.3-4.3-1.9-4.3-4.3-4.3-4.3 1.9-4.3 4.3zm20.4 12.9c1.5 0 2.8-1.3 2.8-2.8 0-1.5-1.2-2.8-2.8-2.8-1.5 0-2.8 1.3-2.8 2.8.1 1.5 1.3 2.8 2.8 2.8zm11.1-21.4c0 1.5 1.2 2.8 2.8 2.8 1.5 0 2.8-1.3 2.8-2.8 0-1.5-1.2-2.8-2.8-2.8-1.6.1-2.8 1.3-2.8 2.8zm5.8 0c0 .9-.4 1.7-1 2.3l6.5 7.4c.8-.8 2-1.4 3.3-1.4.6 0 1.3.1 1.9.4l6.9-13.3c-5.1-1.4-8.8-6-8.8-11.4 0-6.5 5.3-11.8 11.8-11.8.9 0 1.7.1 2.5.3l3.2-13.1c-1-.5-1.7-1.5-1.7-2.7 0-.6.2-1.1.4-1.6l-13-11.7c-.4.4-1 .6-1.6.7l.3 11.5c2.6 0 4.7 2.1 4.7 4.7s-2.1 4.7-4.7 4.7c-1.7 0-3.2-.9-4-2.3l-10.9 5c.7 2.1 1.1 4.4 1.1 6.8 0 11.7-9.5 21.3-21.2 21.3-10.2 0-18.8-7.3-20.8-17L40 80c-.1 1.3-.7 2.4-1.5 3.2l7.1 9.7c.5-.3 1-.4 1.5-.4 1.7 0 3 1.4 3 3s-1.3 3-3 3h-.4l-3 10.3c2.4.8 4.3 2.7 5.2 5.1l12.1-6.6c-.3-.6-.5-1.3-.5-2 0-2.6 2.1-4.7 4.7-4.7s4.7 2.1 4.7 4.7c0 .7-.2 1.5-.5 2.1l9.7 6c.5-.6 1.4-1 2.3-1 .6 0 1.1.2 1.6.4l10.3-13.6c-.6-.5-1-1.4-1-2.3 0-1.7 1.3-3 3-3s3.1 1.3 3.1 3zm4.5 13.2c0 2.4 1.9 4.3 4.3 4.3s4.3-1.9 4.3-4.3-1.9-4.3-4.3-4.3-4.3 1.9-4.3 4.3zm33.2 4.5c3.4 0 6.1-2.8 6.1-6.1 0-3.4-2.7-6.1-6.1-6.1-3.4 0-6.1 2.8-6.1 6.1s2.7 6.1 6.1 6.1zm5.8-26.3c0 2.1 1.7 3.8 3.8 3.8 2.1 0 3.8-1.7 3.8-3.8 0-2.1-1.7-3.9-3.8-3.9-2.1 0-3.8 1.8-3.8 3.9zM29.2 33c0-.4.3-.8.8-.8.4 0 .8.3.8.8 0 .4-.3.8-.8.8s-.8-.3-.8-.8zm.2 0c0 .3.3.6.6.6s.6-.3.6-.6-.3-.6-.6-.6c-.4 0-.6.3-.6.6zm78.3 4.1c0-.4.3-.8.8-.8.4 0 .8.3.8.8 0 .4-.3.8-.8.8s-.8-.4-.8-.8zm.2 0c0 .3.3.6.6.6s.6-.3.6-.6-.3-.6-.6-.6-.6.3-.6.6zM2.2 51.3c0-.4.3-.8.8-.8s.8.3.8.8c0 .4-.3.8-.8.8s-.8-.4-.8-.8zm.2-.1c0 .3.3.6.6.6s.6-.3.6-.6-.3-.6-.6-.6-.6.3-.6.6zM74 58.5c-3 0-5.4 2.4-5.4 5.4 0 3 2.4 5.4 5.4 5.4 3 0 5.4-2.4 5.4-5.4-.1-3-2.5-5.4-5.4-5.4zm0 9.4c-2.2 0-4-1.8-4-4s1.8-4 4-4 4 1.8 4 4c-.1 2.2-1.9 4-4 4zm9.9 10.8v-.6c0-4.1-4.2-7.2-9.9-7.2-5.6 0-9.9 3.1-9.9 7.2l-.1 3.1c0 .3.1.7.4 1 .4.4.9.6 1.6.6h5.9c.4 0 .7-.3.7-.7 0-.4-.3-.7-.7-.7H66c-.3 0-.5-.1-.6-.2l.1-3.1c0-3.3 3.6-5.8 8.5-5.8s8.5 2.5 8.5 5.8v3.3h-6c-.4 0-.7.3-.7.7 0 .4.3.7.7.7h6.8c.4 0 .7-.3.7-.7V82l-.1-3.3zM23.5 96.5c0-.4.3-.8.8-.8.4 0 .8.3.8.8 0 .4-.3.8-.8.8s-.8-.3-.8-.8zm.2 0c0 .3.3.6.6.6s.6-.3.6-.6-.3-.6-.6-.6c-.4 0-.6.3-.6.6zm1.9 2.1v.5c0 .1 0 .1-.1.1h-.9c-.1 0-.1 0-.1-.1s0-.1.1-.1h.8v-.5c0-.5-.5-.8-1.2-.8s-1.2.3-1.2.8v.5h.9c.1 0 .1 0 .1.1s0 .1-.1.1h-.8c-.1 0-.2 0-.2-.1l-.1-.1v-.4c0-.6.6-1 1.4-1 .8 0 1.4.4 1.4 1zM4.4 53.4v-.1c0-.6-.6-1-1.4-1-.8 0-1.4.4-1.4 1v.4s0 .1.1.1c.1.1.1.1.2.1h.8c.1 0 .1 0 .1-.1s0-.1-.1-.1h-.9v-.4c0-.5.5-.8 1.2-.8s1.2.4 1.2.8v.5h-.8c-.1 0-.1 0-.1.1s0 .1.1.1h1c.1 0 .1 0 .1-.1v-.5h-.1zm105.5-14.2v-.1c0-.6-.6-1-1.4-1-.8 0-1.4.4-1.4 1v.4s0 .1.1.1c.1.1.1.1.2.1h.8c.1 0 .1 0 .1-.1s0-.1-.1-.1h-.9v-.4c0-.5.5-.8 1.2-.8s1.2.4 1.2.8v.5h-.9c-.1 0-.1 0-.1.1s0 .1.1.1h1c.1 0 .1 0 .1-.1v-.5zm-78.5-4.1V35c0-.6-.6-1-1.4-1-.8 0-1.4.4-1.4 1v.4s0 .1.1.1c.1.1.1.1.2.1h.8c.1 0 .1 0 .1-.1s0-.1-.1-.1h-.9V35c0-.5.5-.8 1.2-.8s1.2.4 1.2.8v.5h-.9c-.1 0-.1 0-.1.1s0 .1.1.1h1c.1 0 .1 0 .1-.1v-.5zm15 59.4c0-.4.3-.8.8-.8.4 0 .8.3.8.8 0 .4-.3.8-.8.8s-.8-.4-.8-.8zm.2 0c0 .3.3.6.6.6s.6-.3.6-.6-.3-.6-.6-.6-.6.3-.6.6zm2 2.1v-.1c0-.6-.6-1-1.4-1-.8 0-1.4.4-1.4 1v.4s0 .1.1.1c.1.1.1.1.2.1h.8c.1 0 .1 0 .1-.1s0-.1-.1-.1h-1v-.4c0-.5.5-.8 1.2-.8s1.2.4 1.2.8v.5h-.9c-.1 0-.1 0-.1.1s0 .1.1.1h1c.1 0 .1 0 .1-.1v-.5h.1zm.5-49.4c0-.5.5-1 1-1s1 .5 1 1-.5 1-1 1-1-.5-1-1zm.3 0c0 .4.3.8.8.8.4 0 .8-.3.8-.8 0-.4-.3-.7-.8-.7-.5-.1-.8.2-.8.7zm2.7 2.8v-.1c0-.8-.8-1.4-1.9-1.4-1.1 0-1.9.6-1.9 1.4v.6c0 .1 0 .1.1.2s.2.1.3.1h1.1c.1 0 .1-.1.1-.1 0-.1-.1-.1-.1-.1h-1.2V50c0-.6.7-1.1 1.6-1.1.9 0 1.6.5 1.6 1.1v.5h-1.2c-.1 0-.1.1-.1.1 0 .1.1.1.1.1h1.3c.1 0 .1-.1.1-.1V50h.1zm36.7-10c0-.6.5-1.1 1.1-1.1.6 0 1.1.5 1.1 1.1 0 .6-.5 1.1-1.1 1.1-.6 0-1.1-.5-1.1-1.1zm.3 0c0 .4.4.8.8.8s.8-.4.8-.8-.4-.8-.8-.8-.8.3-.8.8zm2.9 3v-.1c0-.8-.9-1.5-2.1-1.5-1.2 0-2.1.6-2.1 1.5v.6c0 .1 0 .1.1.2s.2.1.3.1h1.2c.1 0 .1-.1.1-.1 0-.1-.1-.1-.1-.1h-1.3V43c0-.7.7-1.2 1.8-1.2s1.8.5 1.8 1.2v.5h-1.2c-.1 0-.1.1-.1.1 0 .1.1.1.1.1h1.3c.1 0 .1-.1.1-.1l.1-.6zm2.5 52.9c0-.4.3-.8.8-.8s.8.3.8.8c0 .4-.3.8-.8.8s-.8-.4-.8-.8zm.2-.1c0 .3.3.6.6.6s.6-.3.6-.6-.3-.6-.6-.6-.6.3-.6.6zm2 2.1v-.1c0-.6-.6-1-1.4-1-.8 0-1.4.4-1.4 1v.4s0 .1.1.1c.1.1.1.1.2.1h.8c.1 0 .1 0 .1-.1s0-.1-.1-.1h-.9v-.4c0-.5.5-.8 1.2-.8s1.2.4 1.2.8v.5h-.9c-.1 0-.1 0-.1.1s0 .1.1.1h1c.1 0 .1 0 .1-.1v-.5zm43.8-31c0-.5.4-.9.9-.9s.9.4.9.9-.4.9-.9.9-.9-.4-.9-.9zm.3 0c0 .4.3.7.7.7.4 0 .7-.3.7-.7 0-.4-.3-.7-.7-.7-.4 0-.7.3-.7.7zm2.4 2.5v-.1c0-.7-.7-1.2-1.7-1.2s-1.7.5-1.7 1.2v.5c0 .1 0 .1.1.2s.2.1.3.1h1c.1 0 .1-.1.1-.1 0-.1-.1-.1-.1-.1h-1.1v-.5c0-.6.6-1 1.5-1 .8 0 1.5.4 1.5 1v.6h-1c-.1 0-.1.1-.1.1 0 .1.1.1.1.1h1.2c.1 0 .1-.1.1-.1l-.2-.7zm-8.9 36.6c0-.9.8-1.7 1.7-1.7 1 0 1.7.7 1.7 1.7 0 .9-.8 1.7-1.7 1.7-.9 0-1.7-.8-1.7-1.7zm.5 0c0 .7.6 1.2 1.3 1.2.7 0 1.3-.5 1.3-1.2s-.6-1.3-1.3-1.3c-.8 0-1.3.6-1.3 1.3zm4.4 4.6v-.2c0-1.3-1.3-2.3-3.1-2.3s-3.1 1-3.1 2.3v1c0 .1 0 .2.1.3.1.1.3.2.5.2h1.9c.1 0 .2-.1.2-.2s-.1-.2-.2-.2h-1.9c-.1 0-.2 0-.2-.1v-1c0-1 1.1-1.8 2.7-1.8s2.7.8 2.7 1.8v1h-1.9c-.1 0-.2.1-.2.2s.1.2.2.2h2c.1 0 .2-.1.2-.2v-1h.1zm-14-58c0-.4.3-.8.8-.8s.8.3.8.8c0 .4-.3.8-.8.8s-.8-.3-.8-.8zm.2 0c0 .3.3.6.6.6s.6-.3.6-.6-.3-.6-.6-.6-.6.3-.6.6zm2 2.1v-.1c0-.6-.6-1-1.4-1-.8 0-1.4.4-1.4 1v.4s0 .1.1.1c.1.1.1.1.2.1h.8c.1 0 .1 0 .1-.1s0-.1-.1-.1h-.9v-.4c0-.5.5-.8 1.2-.8s1.2.4 1.2.8v.5h-.8c-.1 0-.1 0-.1.1s0 .1.1.1h1c.1 0 .1 0 .1-.1v-.5h-.1zm-46.7 59.7c0-.4.3-.8.8-.8.4 0 .8.3.8.8 0 .4-.3.8-.8.8-.4 0-.8-.3-.8-.8zm.2 0c0 .3.3.6.6.6s.6-.3.6-.6-.3-.6-.6-.6-.6.3-.6.6zm2 2.1v-.1c0-.6-.6-1-1.4-1-.8 0-1.4.4-1.4 1v.4s0 .1.1.1c.1.1.1.1.2.1h.8c.1 0 .1 0 .1-.1s0-.1-.1-.1h-.9v-.4c0-.5.5-.8 1.2-.8s1.2.4 1.2.8v.5h-.9c-.1 0-.1 0-.1.1s0 .1.1.1h1c.1 0 .1 0 .1-.1v-.5zM34.1 78c0-.6.5-1.2 1.2-1.2s1.2.5 1.2 1.2c0 .6-.5 1.2-1.2 1.2-.6 0-1.2-.5-1.2-1.2zm.4 0c0 .5.4.9.9.9s.9-.4.9-.9-.4-.9-.9-.9-.9.4-.9.9zm3 3.3v-.1c0-.9-.9-1.6-2.2-1.6-1.2 0-2.2.7-2.2 1.6v.7c0 .1 0 .2.1.2.1.1.2.1.3.1h1.3c.1 0 .2-.1.2-.2s-.1-.2-.2-.2h-1.4v-.7c0-.7.8-1.3 1.9-1.3 1.1 0 1.9.5 1.9 1.3v.7h-1.3c-.1 0-.2.1-.2.2s.1.2.2.2h1.5c.1 0 .2-.1.2-.2l-.1-.7zM10.2 79c0-.6.5-1.2 1.2-1.2s1.2.5 1.2 1.2c0 .6-.5 1.2-1.2 1.2s-1.2-.5-1.2-1.2zm.3 0c0 .5.4.9.9.9s.9-.4.9-.9-.4-.9-.9-.9-.9.4-.9.9zm3.1 3.3v-.1c0-.9-.9-1.6-2.2-1.6-1.2 0-2.2.7-2.2 1.6v.7c0 .1 0 .2.1.2.1.1.2.1.3.1H11c.1 0 .2-.1.2-.2s-.1-.2-.2-.2H9.6v-.7c0-.7.8-1.3 1.9-1.3 1.1 0 1.9.5 1.9 1.3v.7H12c-.1 0-.2.1-.2.2s.1.2.2.2h1.5c.1 0 .2-.1.2-.2l-.1-.7zm93.5 24.9c-.7 0-1.2.5-1.2 1.2s.5 1.2 1.2 1.2 1.2-.5 1.2-1.2-.5-1.2-1.2-1.2zm0 2.1c-.5 0-.9-.4-.9-.9s.4-.9.9-.9.9.4.9.9-.4.9-.9.9zm2.2 2.2v.8c0 .1-.1.2-.2.2h-1.5c-.1 0-.2-.1-.2-.2s.1-.2.2-.2h1.3v-.7c0-.7-.8-1.3-1.9-1.3-1.1 0-1.9.5-1.9 1.3v.7h1.4c.1 0 .2.1.2.2s-.1.2-.2.2h-1.3c-.1 0-.3 0-.3-.1-.1 0-.1-.1-.1-.2v-.7c0-.9.9-1.6 2.2-1.6 1.3 0 2.3.7 2.3 1.6zm36.4-25.8c-.6 0-1.1.5-1.1 1.1 0 .6.5 1.1 1.1 1.1.6 0 1.1-.5 1.1-1.1 0-.6-.5-1.1-1.1-1.1zm0 1.9c-.4 0-.8-.3-.8-.8s.3-.8.8-.8c.4 0 .8.3.8.8 0 .4-.4.8-.8.8zm1.9 2v.8c0 .1-.1.1-.1.1h-1.3c-.1 0-.1-.1-.1-.1 0-.1.1-.1.1-.1h1.2v-.6c0-.6-.7-1.1-1.7-1.1s-1.7.4-1.7 1v.6h1.3c.1 0 .1.1.1.1 0 .1-.1.1-.1.1h-1.2c-.1 0-.2-.1-.3-.1 0-.1-.1-.1-.1-.2v-.6c0-.8.8-1.4 2-1.4s1.9.7 1.9 1.5zm-38.5-35.1c-.7 0-1.2.5-1.2 1.2s.5 1.2 1.2 1.2 1.2-.5 1.2-1.2-.5-1.2-1.2-1.2zm0 2.1c-.5 0-.9-.4-.9-.9s.4-.9.9-.9.9.4.9.9-.4.9-.9.9zm2.2 2.2v.9c0 .1-.1.2-.2.2h-1.5c-.1 0-.2-.1-.2-.2s.1-.2.2-.2h1.3v-.7c0-.7-.8-1.3-1.9-1.3-1.1 0-1.9.5-1.9 1.3v.7h1.4c.1 0 .2.1.2.2s-.1.2-.2.2h-1.3c-.1 0-.3 0-.3-.1-.1 0-.1-.1-.1-.2v-.7c0-.9.9-1.6 2.2-1.6 1.4 0 2.3.6 2.3 1.5zm-46 43.7c-.7 0-1.2.5-1.2 1.2s.5 1.2 1.2 1.2 1.2-.5 1.2-1.2-.5-1.2-1.2-1.2zm0 2c-.5 0-.9-.4-.9-.9s.4-.9.9-.9.9.4.9.9c0 .6-.4.9-.9.9zm2.2 2.3v.8c0 .1-.1.2-.2.2h-1.5c-.1 0-.2-.1-.2-.2s.1-.2.2-.2h1.3v-.7c0-.7-.8-1.3-1.9-1.3-1.1 0-1.9.5-1.9 1.3v.7h1.4c.1 0 .2.1.2.2s-.1.2-.2.2h-1.3c-.1 0-.3 0-.3-.1-.1 0-.1-.1-.1-.2v-.7c0-.9.9-1.6 2.2-1.6 1.4 0 2.3.7 2.3 1.6zM31.3 53.5c-1.3 0-2.3 1-2.3 2.3 0 1.3 1 2.3 2.3 2.3 1.3 0 2.3-1 2.3-2.3 0-1.3-1.1-2.3-2.3-2.3zm0 4c-.9 0-1.7-.8-1.7-1.7 0-.9.8-1.7 1.7-1.7.9 0 1.7.8 1.7 1.7 0 .9-.8 1.7-1.7 1.7zm4.2 4.3v1.7c0 .2-.1.3-.3.3h-2.8c-.2 0-.3-.1-.3-.3 0-.2.1-.3.3-.3h2.5v-1.4c0-1.4-1.5-2.5-3.6-2.5s-3.6 1-3.6 2.5v1.4s.1.1.2.1h2.5c.2 0 .3.1.3.3 0 .2-.1.3-.3.3h-2.5c-.3 0-.5-.1-.7-.3-.1-.1-.2-.3-.2-.4v-1.4c0-1.8 1.8-3.1 4.2-3.1 2.5.1 4.3 1.4 4.3 3.1zm27.4-34c-1.3 0-2.3 1-2.3 2.3 0 1.3 1 2.3 2.3 2.3 1.3 0 2.3-1 2.3-2.3.1-1.3-1-2.3-2.3-2.3zm0 4.1c-.9 0-1.7-.8-1.7-1.7 0-.9.8-1.7 1.7-1.7.9 0 1.7.8 1.7 1.7.1.9-.7 1.7-1.7 1.7zm4.3 4.3v1.7c0 .2-.1.3-.3.3H64c-.2 0-.3-.1-.3-.3 0-.2.1-.3.3-.3h2.5v-1.4c0-1.4-1.5-2.5-3.6-2.5s-3.6 1-3.6 2.5v1.4s.1.1.2.1H62c.2 0 .3.1.3.3 0 .2-.1.3-.3.3h-2.5c-.3 0-.5-.1-.7-.3-.1-.1-.2-.3-.2-.4v-1.4c0-1.8 1.8-3.1 4.2-3.1 2.6 0 4.4 1.3 4.4 3.1zm51.6 37.6c-1.7 0-3 1.4-3 3s1.3 3 3 3 3-1.4 3-3-1.3-3-3-3zm0 5.2c-1.2 0-2.2-1-2.2-2.2 0-1.2 1-2.2 2.2-2.2 1.2 0 2.2 1 2.2 2.2 0 1.2-.9 2.2-2.2 2.2zm5.6 5.6v2.3c0 .2-.2.4-.4.4h-3.8c-.2 0-.4-.2-.4-.4s.2-.4.4-.4h3.4v-1.8c0-1.8-2-3.2-4.7-3.2s-4.7 1.4-4.7 3.2v1.8s.1.1.3.1h3.3c.2 0 .4.2.4.4s-.2.4-.4.4h-3.3c-.3 0-.7-.1-.9-.3-.2-.1-.2-.3-.2-.5v-1.8c0-2.3 2.4-4 5.5-4 3.1-.1 5.5 1.6 5.5 3.8zm-83.5 27.1c-1.2 0-2.2 1-2.2 2.2 0 1.2 1 2.2 2.2 2.2 1.2 0 2.2-1 2.2-2.2 0-1.2-1-2.2-2.2-2.2zm0 3.8c-.9 0-1.6-.7-1.6-1.6 0-.9.7-1.6 1.6-1.6.9 0 1.6.7 1.6 1.6 0 .9-.7 1.6-1.6 1.6zm4 4.2v1.6c0 .1-.1.3-.3.3h-2.7c-.1 0-.3-.1-.3-.3 0-.1.1-.3.3-.3h2.5v-1.3c0-1.3-1.5-2.3-3.4-2.3-2 0-3.4 1-3.4 2.3v1.3s.1.1.2.1H40c.1 0 .3.1.3.3 0 .1-.1.3-.3.3h-2.4c-.3 0-.5-.1-.6-.2-.1-.1-.2-.3-.2-.4v-1.3c0-1.7 1.7-2.9 4-2.9 2.4-.1 4.1 1.1 4.1 2.8z" fill="url(#a)" fill-rule="nonzero" transform="translate(10.408 -41.814) scale(1.72075)"/><defs><linearGradient id="a" x2="1" gradientUnits="userSpaceOnUse" gradientTransform="rotate(22.476 -120.335 .71) scale(197.4513)"><stop offset="0" stop-color="#d90754"/><stop offset="1" stop-color="#55113f"/></linearGradient></defs></svg>