<svg width="252" height="180" viewBox="0 0 252 180" xmlns="http://www.w3.org/2000/svg" xmlns:xlink="http://www.w3.org/1999/xlink" xmlns:figma="http://www.figma.com/figma/ns"><title>Conectivity_icon</title><desc>Created using Figma</desc><g filter="url(#a)" figma:type="vector" transform="translate(15 11)"><use xlink:href="#b" fill="url(#c)"/><use xlink:href="#b" fill="url(#d)"/><use xlink:href="#b" fill="url(#e)"/></g><defs><filter id="a" filterUnits="userSpaceOnUse" x="7554" y="867" width="252" height="180" color-interpolation-filters="sRGB"><feFlood flood-opacity="0" result="BackgroundImageFix"/><desc>type=&quot;dropShadow&quot; x=&quot;0&quot; y=&quot;4&quot; size=&quot;15&quot; spread=&quot;0&quot; color=&quot;0.333333,0.0666667,0.247059,0.5&quot; blend=&quot;normal&quot;</desc><feColorMatrix in="SourceAlpha" values="0 0 0 0 0 0 0 0 0 0 0 0 0 0 0 0 0 0 255 0"/><feOffset dy="4"/><feGaussianBlur stdDeviation="7.5"/><feColorMatrix values="0 0 0 0 0.333333 0 0 0 0 0.0666667 0 0 0 0 0.247059 0 0 0 0.5 0"/><feBlend in2="BackgroundImageFix" result="effect1_dropShadow"/><feBlend in="SourceGraphic" in2="effect1_dropShadow" result="shape"/></filter><linearGradient id="c" x2="1" gradientUnits="userSpaceOnUse" gradientTransform="matrix(270.02 111.713 -111.449 270.66 42.26 -102.341)"><stop offset="0" stop-color="#D90754"/><stop offset="1" stop-color="#55113F"/></linearGradient><linearGradient id="d" x2="1" gradientUnits="userSpaceOnUse" gradientTransform="matrix(109.903 8.35777 -12.3695 163.509 -26.501 -23.25)"><stop offset="0" stop-color="#FFF"/><stop offset="1" stop-color="#FFF" stop-opacity="0"/></linearGradient><linearGradient id="e" x2="1" gradientUnits="userSpaceOnUse" gradientTransform="matrix(-147.196 -36.2903 53.7096 -218.991 254.375 239.701)"><stop offset="0" stop-color="#FFF"/><stop offset="1" stop-color="#FFF" stop-opacity="0"/></linearGradient><path id="b" fill-rule="evenodd" d="M209.434 94.718c0-3.448 2.792-6.248 6.233-6.248S222 91.27 222 94.719c0 3.45-2.793 6.248-6.233 6.248-.649 0-1.297-.1-1.895-.3l-7.181 15.245c2.892 1.75 4.837 4.899 4.837 8.548 0 5.498-4.488 9.996-9.973 9.996-4.837 0-8.826-3.449-9.773-7.997l-26.13 1c-.249 3.598-3.291 6.497-6.981 6.497-3.839 0-6.981-3.149-6.981-6.997 0-1.4.449-2.699 1.147-3.799l-9.923-11.446.149-.15a4.52 4.52 0 0 1-1.845.4c-.598 0-1.197-.15-1.695-.35l.05.05-15.359 20.393a4.578 4.578 0 0 1 1.047 2.899 4.475 4.475 0 0 1-4.488 4.499c-2.493 0-4.487-2-4.487-4.499 0-.6.099-1.15.299-1.649l-14.361-8.947c-1.247 1.599-3.192 2.599-5.386 2.599a6.97 6.97 0 0 1-5.934-3.299l.35.65-18.052 9.796-.349-.649c.4 1.199.599 2.499.599 3.798 0 7.048-5.685 12.746-12.716 12.746s-12.716-5.698-12.716-12.746c0-3.349 1.247-6.398 3.391-8.697l-13.114-16.194c-.699.399-1.447.649-2.294.649a4.474 4.474 0 0 1-4.488-4.498 4.475 4.475 0 0 1 4.488-4.499c.748 0 1.496.2 2.144.55l9.125-17.744.2.1a7.143 7.143 0 0 1-1.895-3.449l-21.642.5c-.25 3.599-3.29 6.498-6.98 6.498-3.84 0-6.982-3.15-6.982-6.998 0-3.849 3.141-6.997 6.981-6.997 1.546 0 2.942.5 4.09 1.35L36.85 61.03a13.508 13.508 0 0 1-3.939-9.547c0-7.098 5.485-12.946 12.466-13.446l-1.944-19.193c-.998-.2-1.846-.7-2.444-1.45L8.08 38.787c.548.75.897 1.7.897 2.7 0 2.498-1.995 4.498-4.488 4.498-2.493 0-4.488-2-4.488-4.499 0-2.499 1.995-4.498 4.488-4.498.897 0 1.745.25 2.443.75l33.26-21.593c-.199-.5-.299-1.05-.299-1.65 0-2.499 1.995-4.498 4.488-4.498 2.194 0 3.99 1.55 4.388 3.598l31.016-.6C80.034 5.799 85.968 0 93.248 0c7.43 0 13.464 6.048 13.464 13.495 0 6.049-3.94 11.147-9.425 12.846l4.937 13.046c2.393-.6 4.887-.9 7.48-.9 5.385 0 10.421 1.35 14.859 3.749l5.136-11.246a6.468 6.468 0 0 1-3.041-5.498 6.477 6.477 0 0 1 6.482-6.498c2.992 0 5.535 2.049 6.233 4.948l-.099-.5 16.754-2.799v-.05c0-2.499 1.995-4.498 4.488-4.498 2.493 0 4.488 1.999 4.488 4.498 0 .85-.249 1.65-.648 2.3l19.198 17.244a4.56 4.56 0 0 1 2.892-1.05c2.493 0 4.488 2 4.488 4.498 0 2.5-1.995 4.499-4.488 4.499-.107 0-.214-.014-.313-.028a1.864 1.864 0 0 0-.235-.022l-4.837 19.294a17.473 17.473 0 0 1 9.125 6.597l13.962-7.247a5.74 5.74 0 0 1-.249-1.65 5.476 5.476 0 0 1 5.485-5.498 5.476 5.476 0 0 1 5.485 5.498 5.476 5.476 0 0 1-5.485 5.498c-1.895 0-3.59-1-4.588-2.499l-13.762 7.148c1.496 2.6 2.393 5.598 2.393 8.847 0 9.647-7.829 17.494-17.453 17.494-.897 0-1.795-.05-2.643-.2l-10.72 19.994c1.495 1.099 2.593 2.799 2.842 4.698l26.029-1v-.5c0-5.498 4.488-9.996 9.973-9.996a9.92 9.92 0 0 1 3.84.75l7.131-15.195a6.282 6.282 0 0 1-2.992-5.349zm4.986-29.74c0-2.749-2.244-4.998-4.986-4.998-2.743 0-4.987 2.25-4.987 4.998 0 2.75 2.244 4.999 4.987 4.999 2.742 0 4.986-2.25 4.986-4.999zM4.488 45.585c2.244 0 4.089-1.85 4.089-4.099 0-2.25-1.845-4.098-4.09-4.098C2.245 37.388.4 39.237.4 41.486c0 2.25 1.845 4.099 4.089 4.099zm171.536 54.282c8.727 0 15.857-7.148 15.857-15.895s-7.13-15.895-15.857-15.895c-8.726 0-15.857 7.148-15.857 15.895s7.131 15.895 15.857 15.895zm14.561-56.382c0-2.249-1.845-4.098-4.089-4.098-2.244 0-4.089 1.85-4.089 4.099s1.845 4.098 4.089 4.098c2.244 0 4.089-1.85 4.089-4.099zm-25.93-22.992c0-2.25-1.845-4.098-4.089-4.098-2.244 0-4.089 1.849-4.089 4.098 0 2.25 1.845 4.099 4.089 4.099 2.244 0 4.089-1.85 4.089-4.099zm-31.515-.9c-3.241 0-5.884 2.65-5.884 5.898 0 3.25 2.643 5.899 5.884 5.899 3.241 0 5.884-2.65 5.884-5.899 0-3.248-2.643-5.898-5.884-5.898zm0 12.396c-.698 0-1.446-.1-2.094-.35l-5.136 11.347c5.934 3.549 10.571 9.047 13.114 15.595l15.957-7.298a6.67 6.67 0 0 1-.399-2.25 7.016 7.016 0 0 1 5.485-6.847l-.498-17.244c-1.496-.35-2.743-1.45-3.242-2.9l-16.754 2.8c.05.2.05.4.05.65a6.478 6.478 0 0 1-6.483 6.497zm34.756 16.995c0-3.5-2.842-6.348-6.333-6.348-3.49 0-6.333 2.849-6.333 6.348 0 3.498 2.843 6.348 6.333 6.348 3.491 0 6.333-2.85 6.333-6.348zm-29.67 20.993c0-15.745-12.815-28.59-28.522-28.59-15.708 0-28.523 12.845-28.523 28.59 0 15.744 12.815 28.59 28.523 28.59 15.707 0 28.522-12.846 28.522-28.59zm-32.761-56.482c0-6.747-5.485-12.245-12.217-12.245S81.03 6.748 81.03 13.495c0 6.748 5.485 12.246 12.217 12.246s12.217-5.498 12.217-12.245zM44.38 10.398c-2.244 0-4.089 1.849-4.089 4.098 0 2.25 1.845 4.099 4.089 4.099 2.244 0 4.089-1.85 4.089-4.099 0-2.25-1.845-4.098-4.09-4.098zm1.995 28.84c-6.732 0-12.217 5.498-12.217 12.246s5.485 12.246 12.217 12.246c6.731 0 12.217-5.498 12.217-12.246s-5.486-12.246-12.217-12.246zM10.62 83.472c0 3.499 2.843 6.348 6.333 6.348s6.333-2.849 6.333-6.348c0-3.499-2.842-6.348-6.333-6.348-3.49 0-6.333 2.85-6.333 6.348zm13.264-1l21.492-.5c0-3.848 3.142-6.997 6.981-6.947 3.441 0 6.383 2.55 6.882 5.898l19.398-6.098c-.2-1.6-.35-3.199-.35-4.848 0-14.246 9.475-26.342 22.49-30.19L95.841 26.74c-.848.15-1.695.25-2.593.25-7.08 0-12.915-5.548-13.414-12.496l-31.016.6c-.3 2-1.895 3.599-3.94 3.849l1.995 19.043a13.25 13.25 0 0 1 10.572 5.898l11.22-5.798a5.822 5.822 0 0 1-.4-2.099c0-3.299 2.693-5.998 5.984-5.998s5.984 2.7 5.984 5.998c0 3.299-2.693 5.998-5.984 5.998-1.994 0-3.79-1.05-4.886-2.6l-11.12 5.749c1.047 1.9 1.595 4.049 1.595 6.348 0 7.447-6.033 13.495-13.463 13.495-3.192 0-6.134-1.1-8.428-2.999L22.19 78.824c.898 1 1.496 2.249 1.695 3.648zM74.3 30.54c-2.992 0-5.435 2.449-5.435 5.448 0 2.999 2.443 5.448 5.435 5.448 2.992 0 5.435-2.449 5.435-5.448 0-2.999-2.443-5.448-5.435-5.448zM52.36 75.625c-3.491 0-6.333 2.849-6.333 6.348 0 3.499 2.842 6.348 6.332 6.348 3.491 0 6.333-2.85 6.333-6.348 0-3.5-2.842-6.348-6.333-6.348zm-20.545 32.839c0 2.249 1.845 4.099 4.089 4.099 2.244 0 4.089-1.85 4.089-4.099 0-1.25-.599-2.399-1.496-3.149-.2-.2-.399-.35-.648-.45a4.16 4.16 0 0 0-1.945-.5c-2.244 0-4.089 1.85-4.089 4.099zm8.577 0a4.585 4.585 0 0 1-1.047 2.899l13.064 16.145c2.244-1.9 5.087-3.049 8.228-3.049.948 0 1.845.099 2.743.299l4.488-15.244c-1.447-.75-2.494-2.3-2.494-4.049 0-1.1.4-2.099 1.047-2.899L55.9 88.021c-1.047.6-2.244.95-3.54.95a6.835 6.835 0 0 1-3.94-1.25l-9.175 17.744a4.567 4.567 0 0 1 1.147 2.999zm33.51-2.999c0-2.249-1.846-4.099-4.09-4.099-2.244 0-4.089 1.85-4.089 4.099s1.845 4.098 4.09 4.098c2.243 0 4.088-1.849 4.088-4.098zm-10.423 20.493c-.947-.2-1.894-.35-2.892-.35-6.383 0-11.569 5.198-11.569 11.596s5.186 11.596 11.57 11.596c6.382 0 11.568-5.198 11.518-11.646 0-5.098-3.341-9.497-7.978-10.996l-.649-.2zm26.928-5.998c0 3.499 2.842 6.348 6.332 6.348 3.491 0 6.333-2.849 6.333-6.348 0-3.499-2.842-6.348-6.332-6.348-3.491 0-6.333 2.849-6.333 6.348zm30.268 19.094c2.244 0 4.089-1.85 4.089-4.099s-1.845-4.099-4.089-4.099c-2.244 0-4.089 1.85-4.089 4.099s1.845 4.099 4.089 4.099zm16.356-31.59c0 2.249 1.845 4.099 4.088 4.099 2.245 0 4.089-1.85 4.089-4.099s-1.844-4.098-4.089-4.098c-2.243 0-4.088 1.849-4.088 4.098zm8.576 0c0 1.35-.598 2.549-1.545 3.399l9.574 10.996a6.89 6.89 0 0 1 4.887-1.999c.947 0 1.894.2 2.742.55l10.272-19.644c-7.479-1.999-13.014-8.847-13.014-16.944 0-9.647 7.828-17.494 17.452-17.494 1.297 0 2.494.15 3.69.4l4.787-19.344c-1.496-.7-2.493-2.249-2.493-3.998 0-.85.249-1.65.648-2.3l-19.198-17.244c-.648.6-1.496.95-2.393 1.05l.498 17.044c3.84 0 6.981 3.149 6.981 6.998 0 3.848-3.141 6.997-6.981 6.997-2.543 0-4.737-1.35-5.984-3.348l-16.106 7.397a31.566 31.566 0 0 1 1.596 9.997c0 17.344-14.112 31.489-31.415 31.489-15.16 0-27.825-10.846-30.767-25.191L59.24 82.422c-.1 1.9-.998 3.55-2.294 4.749l10.522 14.395c.698-.4 1.446-.65 2.293-.65 2.494 0 4.488 2 4.488 4.499a4.474 4.474 0 0 1-4.487 4.498c-.107 0-.214-.014-.314-.027a1.8 1.8 0 0 0-.235-.023l-4.488 15.245c3.59 1.2 6.383 3.999 7.73 7.498l17.95-9.697a6.638 6.638 0 0 1-.698-2.999c0-3.849 3.142-6.998 6.982-6.998 3.839 0 6.981 3.149 6.981 6.998 0 1.1-.25 2.199-.748 3.149l14.311 8.897c.798-.95 2.044-1.549 3.391-1.549.848 0 1.646.249 2.294.649l15.259-20.193c-.948-.8-1.546-2.049-1.546-3.399a4.474 4.474 0 0 1 4.487-4.498 4.474 4.474 0 0 1 4.488 4.498zm6.633 19.494c0 3.499 2.842 6.348 6.332 6.348 3.491 0 6.333-2.849 6.333-6.348 0-3.499-2.842-6.348-6.333-6.348-3.49 0-6.332 2.849-6.332 6.348zm49.216 6.598c5.037 0 9.076-4.099 9.076-9.097 0-4.999-4.039-9.097-9.076-9.097-5.036 0-9.075 4.098-9.075 9.097 0 4.998 4.039 9.097 9.075 9.097zm8.577-38.838c0 3.1 2.493 5.649 5.635 5.649 3.141 0 5.635-2.5 5.635-5.649 0-3.148-2.543-5.698-5.635-5.698-3.092 0-5.635 2.6-5.635 5.698zM43.183 12.896c0-.65.499-1.15 1.147-1.15s1.147.5 1.147 1.15c0 .65-.498 1.15-1.147 1.15a1.13 1.13 0 0 1-1.147-1.15zm.3-.05c0 .45.398.85.847.85.499 0 .848-.4.848-.85 0-.45-.399-.85-.848-.85-.449 0-.847.4-.847.85zm115.886 6.048c0-.65.499-1.15 1.147-1.15s1.147.5 1.147 1.15c0 .65-.499 1.15-1.147 1.15a1.13 1.13 0 0 1-1.147-1.15zm.3-.05c0 .45.398.85.847.85.499 0 .848-.4.848-.85 0-.45-.399-.85-.848-.85-.449 0-.847.4-.847.85zM3.291 39.887c0-.65.499-1.15 1.147-1.15s1.147.5 1.147 1.15c0 .65-.499 1.15-1.147 1.15a1.13 1.13 0 0 1-1.147-1.15zm.3-.05c0 .45.398.85.847.85.498 0 .848-.4.848-.85 0-.45-.4-.85-.848-.85-.449 0-.848.4-.848.85zm105.863 10.746c-4.438 0-7.978 3.599-7.978 7.998 0 4.398 3.59 7.997 7.978 7.997s7.979-3.599 7.979-7.998a7.98 7.98 0 0 0-7.979-7.997zm0 13.846c-3.241 0-5.934-2.65-5.934-5.898 0-3.25 2.643-5.898 5.934-5.898 3.291 0 5.934 2.649 5.934 5.898-.05 3.248-2.693 5.898-5.934 5.898zm14.66 15.994v-.9c0-6.048-6.283-10.596-14.66-10.596-8.327 0-14.66 4.548-14.66 10.596l-.1 4.699c0 .5.2 1.05.598 1.45.549.55 1.397.9 2.344.9h8.726c.599 0 1.048-.45 1.048-1.05 0-.55-.449-1.05-1.048-1.05h-8.726c-.449 0-.748-.15-.848-.25l.1-4.649c0-4.848 5.385-8.547 12.566-8.547 7.181 0 12.566 3.699 12.566 8.547v.9h-.05v3.999h-8.926c-.598 0-1.047.45-1.047 1.05 0 .55.449 1.05 1.047 1.05h10.073c.599 0 1.047-.45 1.047-1.05V80.422h-.05zm-89.408 26.441a1.13 1.13 0 0 1 1.147-1.149c.648 0 1.147.5 1.147 1.149 0 .65-.499 1.15-1.147 1.15a1.13 1.13 0 0 1-1.147-1.15zm.3-.05c0 .45.398.85.847.85.499 0 .848-.4.848-.85a.875.875 0 0 0-.848-.849c-.449 0-.848.4-.848.849zm2.941 3.149v.75c0 .1-.05.15-.15.15h-1.395c-.1 0-.15-.05-.15-.15 0-.1.05-.15.15-.15h1.246v-.75c0-.699-.798-1.199-1.795-1.199-1.047 0-1.795.5-1.795 1.199v.65s.05.05.1.05h1.246c.1 0 .15.05.15.15 0 .1-.05.15-.15.15h-1.246c-.15 0-.25-.05-.35-.15a.38.38 0 0 1-.1-.2v-.65c0-.849.898-1.499 2.095-1.499s2.095.65 2.095 1.499l.05.15zM6.532 42.986v-.15c0-.85-.897-1.5-2.094-1.5-1.197 0-2.094.65-2.094 1.5v.65c0 .05.05.15.1.2.1.1.199.15.348.15H3.99c.1 0 .15-.05.15-.15 0-.1-.05-.15-.15-.15H2.743c-.05 0-.1 0-.1-.05v-.65c0-.7.748-1.2 1.795-1.2s1.795.55 1.795 1.2V43.536H4.987c-.1 0-.15.05-.15.15 0 .1.05.15.15.15H6.383c.1 0 .15-.05.15-.15v-.7zm156.079-20.993v-.15c0-.85-.898-1.5-2.095-1.5-1.196 0-2.094.65-2.094 1.5v.65c0 .05.05.15.1.2.099.1.199.15.349.15h1.246c.1 0 .15-.05.15-.15 0-.1-.05-.15-.15-.15h-1.246c-.05 0-.1 0-.1-.05v-.65c0-.7.748-1.2 1.795-1.2s1.795.55 1.795 1.2V22.543H161.065c-.1 0-.15.05-.15.15 0 .1.05.15.15.15H162.461c.1 0 .15-.05.15-.15v-.7zM46.425 15.995v-.15c0-.85-.898-1.5-2.095-1.5-1.196 0-2.094.65-2.094 1.5v.65c0 .05.05.15.1.2.1.1.2.15.349.15h1.196c.1 0 .15-.05.15-.15 0-.1-.05-.15-.15-.15h-1.246c-.05 0-.1 0-.1-.05v-.65c0-.7.748-1.2 1.795-1.2s1.796.55 1.796 1.2V16.545h-1.247c-.1 0-.15.05-.15.15 0 .1.05.15.15.15H46.275c.1 0 .15-.05.15-.15v-.7zm22.19 87.87a1.13 1.13 0 0 1 1.147-1.149c.648 0 1.146.5 1.146 1.149 0 .65-.498 1.15-1.147 1.15a1.13 1.13 0 0 1-1.146-1.15zm.299-.05c0 .45.399.85.847.85.499 0 .848-.4.848-.85a.875.875 0 0 0-.847-.849c-.45 0-.848.4-.848.849zm2.942 3.149v-.15c0-.849-.898-1.499-2.094-1.499-1.197 0-2.095.65-2.095 1.499v.65c0 .05.05.15.1.2.1.1.2.15.349.15h1.247c.1 0 .15-.05.15-.15 0-.1-.05-.15-.15-.15h-1.247c-.05 0-.1 0-.1-.05v-.65c0-.699.748-1.199 1.795-1.199s1.796.55 1.796 1.199V107.514H70.31c-.1 0-.15.05-.15.15 0 .1.05.15.15.15H71.706c.1 0 .15-.05.15-.15v-.7zm.847-73.175c0-.8.699-1.5 1.546-1.5.848 0 1.546.7 1.546 1.5s-.698 1.5-1.546 1.5c-.847 0-1.546-.65-1.546-1.5zm.4 0c0 .65.498 1.15 1.146 1.15.648 0 1.147-.5 1.147-1.15 0-.6-.499-1.1-1.147-1.1s-1.147.5-1.147 1.1zm3.939 4.198v-.15c0-1.15-1.197-1.999-2.793-1.999s-2.792.85-2.792 2v.9c0 .099.05.199.1.249.1.1.249.15.448.15h1.646c.1 0 .2-.1.2-.2s-.1-.2-.2-.2h-1.646c-.1 0-.15-.05-.15-.05v-.9c0-.95 1.048-1.65 2.394-1.65 1.347 0 2.394.7 2.394 1.65v.9h-1.695c-.1 0-.2.1-.2.2s.1.2.2.2H76.842c.1 0 .2-.1.2-.2v-.9zm54.403-14.845c0-.9.748-1.65 1.645-1.65.898 0 1.646.75 1.646 1.65 0 .9-.748 1.65-1.646 1.65-.897 0-1.645-.75-1.645-1.65zm.399 0c0 .65.548 1.2 1.246 1.2s1.197-.55 1.197-1.2c0-.65-.549-1.2-1.197-1.2-.698 0-1.246.55-1.246 1.2zm4.288 4.499v-.2c0-1.25-1.297-2.2-3.042-2.2-1.745 0-3.042.95-3.042 2.2v.95c0 .1.05.2.1.3.1.1.299.2.499.2h1.795c.1 0 .199-.1.199-.2s-.099-.2-.199-.2h-1.795c-.1 0-.15-.05-.15-.05v-.95c0-1 1.097-1.75 2.593-1.75s2.593.75 2.593 1.75v1h-1.845c-.1 0-.199.1-.199.2s.099.2.199.2h2.045c.099 0 .199-.1.199-.2v-1.05h.05zm3.79 78.224c0-.65.499-1.15 1.147-1.15s1.147.5 1.147 1.15a1.13 1.13 0 0 1-1.147 1.149 1.13 1.13 0 0 1-1.147-1.149zm.299-.05c0 .45.399.849.848.849a.84.84 0 0 0 .848-.849c0-.45-.399-.85-.848-.85-.449 0-.848.4-.848.85zm2.942 3.149v-.15c0-.85-.897-1.5-2.094-1.5-1.197 0-2.094.65-2.094 1.5v.649c0 .05.049.15.099.2.1.1.2.15.349.15h1.247c.1 0 .149-.05.149-.15 0-.1-.049-.15-.149-.15h-1.247c-.05 0-.1 0-.1-.05v-.649c0-.7.749-1.2 1.796-1.2 1.047 0 1.795.55 1.795 1.2V109.513h-1.297c-.099 0-.149.05-.149.15 0 .1.05.15.149.15H143.014c.099 0 .149-.05.149-.15v-.699zm64.825-45.985c0-.75.648-1.4 1.396-1.4.798 0 1.396.65 1.396 1.4 0 .75-.648 1.4-1.396 1.4-.748 0-1.396-.65-1.396-1.4zm.349 0c0 .6.498 1.05 1.047 1.05.598 0 1.047-.5 1.047-1.05s-.499-1-1.047-1c-.599 0-1.047.45-1.047 1zm3.59 3.799v-.15c0-1.05-1.097-1.85-2.543-1.85-1.446 0-2.543.8-2.543 1.85v.8c0 .1.05.2.1.25.099.1.249.15.398.15h1.546c.1 0 .2-.1.2-.2s-.1-.2-.2-.2h-1.546c-.099 0-.149-.05-.149-.05v-.8c0-.85.947-1.5 2.194-1.5 1.246 0 2.194.65 2.194 1.5v.85H210.032c-.1 0-.199.1-.199.2s.099.2.199.2H211.777c.1 0 .2-.1.2-.2v-.85h-.05zm-13.114 54.082c0-1.4 1.147-2.549 2.543-2.549 1.446 0 2.543 1.099 2.543 2.549a2.557 2.557 0 0 1-2.543 2.549 2.557 2.557 0 0 1-2.543-2.549zm.648 0c0 .999.848 1.849 1.895 1.849 1.047 0 1.894-.8 1.894-1.849 0-1.05-.847-1.9-1.894-1.9s-1.895.9-1.895 1.9zm6.582 6.897v-.299c0-1.9-1.995-3.349-4.637-3.349-2.643 0-4.638 1.449-4.638 3.349l-.05 1.499c0 .15.05.35.2.45.199.2.449.3.748.3h2.792c.2 0 .349-.15.349-.35a.34.34 0 0 0-.349-.35h-2.792c-.15 0-.25-.05-.25-.1l.05-1.499c0-1.55 1.696-2.7 3.989-2.7 2.294 0 3.99 1.15 3.99 2.7v1.549h-2.892a.34.34 0 0 0-.349.35c0 .2.149.35.349.35h3.141c.199 0 .349-.15.349-.35v-1.55zm-20.744-85.871c0-.65.499-1.15 1.147-1.15s1.147.5 1.147 1.15c0 .65-.499 1.15-1.147 1.15a1.13 1.13 0 0 1-1.147-1.15zm.299-.05c0 .45.399.85.848.85.498 0 .848-.4.848-.85 0-.45-.399-.85-.848-.85-.449 0-.848.4-.848.85zm2.942 3.149v-.15c0-.85-.897-1.5-2.094-1.5-1.197 0-2.094.65-2.094 1.5v.65c0 .05.05.15.1.2.099.1.199.15.348.15h1.247c.1 0 .15-.05.15-.15 0-.1-.05-.15-.15-.15H184.8c-.049 0-.099 0-.099-.05v-.65c0-.7.748-1.2 1.795-1.2s1.795.55 1.795 1.2V45.535H186.995c-.1 0-.15.05-.15.15 0 .1.05.15.15.15h1.396c.1 0 .149-.05.149-.15v-.7zm-69.063 88.371c0-.65.499-1.15 1.147-1.15s1.147.5 1.147 1.15a1.13 1.13 0 0 1-1.147 1.149 1.13 1.13 0 0 1-1.147-1.149zm.299-.05c0 .449.399.849.848.849.498 0 .848-.4.848-.849 0-.45-.399-.85-.848-.85-.449 0-.848.4-.848.85zm2.942 3.148v-.149c0-.85-.897-1.5-2.094-1.5-1.197 0-2.094.65-2.094 1.5v.649c0 .05.05.15.099.2.1.1.2.15.349.15h1.247c.1 0 .15-.05.15-.15 0-.1-.05-.15-.15-.15h-1.247c-.049 0-.099 0-.099-.05v-.649c0-.7.748-1.2 1.795-1.2s1.795.55 1.795 1.2V137.004H121.173c-.1 0-.15.05-.15.15 0 .1.05.15.15.15h1.396c.099 0 .149-.05.149-.15v-.7zm-72.205-57.03c0-.95.798-1.75 1.796-1.75.997 0 1.794.8 1.794 1.75s-.797 1.749-1.794 1.749c-.998 0-1.796-.75-1.796-1.75zm.499 0c0 .7.548 1.3 1.297 1.3a1.29 1.29 0 0 0 1.296-1.3c0-.7-.599-1.3-1.296-1.3-.699 0-1.297.6-1.297 1.3zm4.538 4.848v-.2c0-1.35-1.397-2.35-3.241-2.35-1.845 0-3.242 1-3.242 2.35v1.05c0 .1.05.25.15.3.1.15.299.2.498.2h1.945c.15 0 .25-.1.25-.25s-.1-.25-.25-.25h-1.944a.324.324 0 0 1-.134-.032c-.025-.01-.045-.018-.066-.018v-1.05c0-1.1 1.197-1.9 2.793-1.9 1.595 0 2.792.8 2.792 1.9v1.1h-1.995c-.15 0-.25.1-.25.25s.1.25.25.25H55.35c.15 0 .25-.1.25-.25v-1.1h-.05zm-40.441-3.349c0-.95.798-1.75 1.795-1.75.997 0 1.795.8 1.795 1.75s-.798 1.75-1.795 1.75c-.997 0-1.795-.75-1.795-1.75zm.499 0c0 .7.548 1.3 1.296 1.3a1.29 1.29 0 0 0 1.297-1.3c0-.7-.599-1.3-1.297-1.3s-1.296.6-1.296 1.3zm4.537 4.848v-.2c0-1.35-1.396-2.349-3.24-2.349-1.846 0-3.242 1-3.242 2.35v1.05c0 .1.05.249.15.299.1.15.299.2.498.2h1.945c.15 0 .25-.1.25-.25s-.1-.25-.25-.25H14.31a.324.324 0 0 1-.134-.031c-.024-.01-.044-.019-.065-.019v-1.05c0-1.1 1.196-1.899 2.792-1.899 1.596 0 2.793.8 2.793 1.9v1.1h-1.995c-.15 0-.25.1-.25.249 0 .15.1.25.25.25H19.946c.15 0 .25-.1.25-.25v-1.1h-.05zm138.376 36.888c-.997 0-1.795.8-1.795 1.75 0 .999.798 1.749 1.795 1.749.998 0 1.795-.8 1.795-1.749 0-.95-.797-1.75-1.795-1.75zm0 3.049c-.748 0-1.296-.6-1.296-1.299 0-.7.598-1.3 1.296-1.3.698 0 1.297.6 1.297 1.3a1.29 1.29 0 0 1-1.297 1.299zm3.242 3.349v.2h.05v1.1c0 .149-.1.249-.25.249h-2.244c-.149 0-.249-.1-.249-.249 0-.15.1-.25.249-.25h1.995v-1.1c0-1.1-1.197-1.899-2.793-1.899-1.595 0-2.792.799-2.792 1.899v1.05c.021 0 .041.008.065.018.035.014.076.032.134.032h1.945c.15 0 .249.1.249.25 0 .149-.099.249-.249.249h-1.945c-.199 0-.399-.05-.498-.199-.1-.05-.15-.2-.15-.3v-1.05c0-1.35 1.396-2.349 3.241-2.349 1.845 0 3.242.999 3.242 2.349zm53.854-38.187c-.897 0-1.596.7-1.596 1.6 0 .899.699 1.599 1.596 1.599.898 0 1.596-.7 1.596-1.6 0-.9-.698-1.6-1.596-1.6zm0 2.749c-.648 0-1.197-.5-1.197-1.15 0-.65.499-1.15 1.197-1.15.648 0 1.147.5 1.147 1.15.05.65-.499 1.15-1.147 1.15zm2.892 2.949v.2h.05v1.1c0 .1-.1.2-.199.2h-1.995c-.1 0-.199-.1-.199-.2s.099-.2.199-.2h1.745v-1c0-.95-1.047-1.7-2.493-1.7s-2.493.75-2.493 1.7v.9s.05.05.149.05h1.746c.099 0 .199.1.199.2s-.1.2-.199.2h-1.746a.74.74 0 0 1-.448-.2c-.05-.1-.1-.2-.1-.3v-.95c0-1.2 1.246-2.1 2.892-2.1s2.892.9 2.892 2.1zm-56.996-51.883c-.997 0-1.795.8-1.795 1.75 0 1 .798 1.749 1.795 1.749.998 0 1.795-.8 1.795-1.75s-.797-1.749-1.795-1.749zm0 3.05c-.748 0-1.296-.6-1.296-1.3 0-.7.598-1.3 1.296-1.3.698 0 1.297.6 1.297 1.3 0 .75-.599 1.3-1.297 1.3zm3.242 3.348v.2h.05v1.1c0 .15-.1.25-.25.25h-2.244c-.149 0-.249-.1-.249-.25s.1-.25.249-.25h1.995v-1.1c0-1.1-1.197-1.9-2.793-1.9-1.595 0-2.792.8-2.792 1.9v1.05c.021 0 .041.008.066.018.034.014.075.032.133.032h1.945c.15 0 .25.1.25.25s-.1.25-.25.25h-1.945c-.199 0-.398-.05-.498-.2-.1-.05-.15-.2-.15-.3v-1.05c0-1.35 1.397-2.35 3.241-2.35 1.845 0 3.242 1 3.242 2.35zm-68.066 64.578c-.998 0-1.796.8-1.796 1.75 0 1 .798 1.749 1.796 1.749.997 0 1.795-.799 1.795-1.749 0-.95-.798-1.75-1.795-1.75zm0 3.049a1.288 1.288 0 0 1-1.297-1.299c0-.7.599-1.3 1.297-1.3s1.296.6 1.296 1.3c0 .75-.598 1.299-1.296 1.299zm3.24 3.349v.2h.05v1.1c0 .15-.1.25-.249.25h-2.244c-.15 0-.249-.1-.249-.25s.1-.25.25-.25H99.48v-1.1c0-1.099-1.197-1.899-2.792-1.899-1.596 0-2.793.8-2.793 1.899v1.05c.021 0 .041.009.066.019.034.014.075.031.134.031h1.944c.15 0 .25.1.25.25s-.1.25-.25.25h-1.944c-.2 0-.4-.05-.5-.2-.099-.05-.149-.2-.149-.3v-1.05c0-1.349 1.397-2.349 3.242-2.349s3.24 1 3.24 2.349zM46.276 43.186c-1.895 0-3.44 1.55-3.44 3.398 0 1.9 1.545 3.4 3.44 3.4s3.44-1.55 3.44-3.4c0-1.899-1.545-3.398-3.44-3.398zm0 5.948a2.557 2.557 0 0 1-2.543-2.55c0-1.399 1.147-2.499 2.543-2.499 1.396 0 2.543 1.15 2.543 2.5 0 1.399-1.147 2.549-2.543 2.549zm6.283 6.398v2.549c0 .25-.2.45-.449.45h-4.288c-.25 0-.449-.2-.449-.45s.2-.45.449-.45h3.839v-2.1c0-2.049-2.293-3.648-5.385-3.648-3.092 0-5.385 1.55-5.385 3.648l-.05 2c.05.05.15.1.349.1h3.74c.249 0 .448.2.448.45s-.2.45-.448.45h-3.74a1.39 1.39 0 0 1-.998-.4.924.924 0 0 1-.249-.6l.05-2c0-2.599 2.693-4.548 6.283-4.548 3.59 0 6.283 1.95 6.283 4.549zm40.59-50.334c-1.894 0-3.44 1.55-3.44 3.4 0 1.898 1.546 3.398 3.44 3.398 1.895 0 3.441-1.55 3.441-3.399 0-1.9-1.546-3.399-3.44-3.399zm0 5.948a2.557 2.557 0 0 1-2.543-2.549c0-1.4 1.147-2.499 2.543-2.499 1.397 0 2.543 1.15 2.543 2.5 0 1.399-1.146 2.548-2.543 2.548zm6.283 6.398v2.55c0 .25-.2.45-.448.45h-4.289c-.25 0-.449-.2-.449-.45s.2-.45.449-.45h3.84v-2.1c0-2.05-2.294-3.649-5.386-3.649-3.091 0-5.385 1.55-5.385 3.65l-.05 1.998c.05.05.15.1.349.1h3.74c.25 0 .449.2.449.45s-.2.45-.45.45h-3.74a1.39 1.39 0 0 1-.996-.4.924.924 0 0 1-.25-.6l.05-1.999c0-2.599 2.693-4.548 6.283-4.548 3.59 0 6.283 1.949 6.283 4.548zm76.444 55.632c-2.444 0-4.438 1.999-4.438 4.448 0 2.45 1.994 4.449 4.438 4.449 2.443 0 4.438-2 4.438-4.449 0-2.45-1.995-4.448-4.438-4.448zm0 7.697c-1.795 0-3.291-1.45-3.291-3.249 0-1.8 1.496-3.249 3.291-3.249s3.291 1.45 3.291 3.25c0 1.799-1.446 3.248-3.291 3.248zm8.177 8.397v.5h.05v2.8c0 .349-.299.599-.598.599h-5.535a.577.577 0 0 1-.599-.6c0-.35.3-.6.599-.6h4.937V89.72h.05v-.5c0-2.699-2.993-4.748-6.982-4.748-3.989 0-6.981 2.05-6.981 4.748l-.05 2.6c.05.05.2.15.449.15h4.837c.349 0 .598.3.598.6 0 .349-.299.599-.598.599h-4.837c-.498 0-.997-.2-1.296-.5-.25-.2-.349-.5-.349-.8l.049-2.599c0-3.349 3.491-5.898 8.128-5.898 4.638 0 8.128 2.55 8.128 5.898zM60.486 129.357a3.238 3.238 0 0 0-3.24 3.249 3.239 3.239 0 0 0 3.24 3.249 3.239 3.239 0 0 0 3.242-3.249c0-1.8-1.447-3.249-3.242-3.249zm0 5.598a2.366 2.366 0 0 1-2.393-2.399 2.396 2.396 0 0 1 2.393-2.399 2.396 2.396 0 0 1 2.394 2.399 2.366 2.366 0 0 1-2.394 2.399zm5.934 6.148v2.399c0 .2-.15.4-.398.4h-4.04c-.2 0-.399-.15-.399-.4 0-.2.15-.4.4-.4h3.59V141.153c0-1.949-2.194-3.449-5.087-3.449-2.892 0-5.086 1.5-5.086 3.449l-.05 1.899c.05.05.15.1.35.1h3.54c.2 0 .399.15.399.4 0 .2-.15.4-.4.4H55.7c-.399 0-.698-.1-.947-.35-.15-.2-.25-.4-.25-.6l.05-1.899c0-2.449 2.544-4.299 5.934-4.299 3.391 0 5.934 1.85 5.934 4.299z"/></defs></svg>