<?xml version="1.0" encoding="UTF-8" standalone="no"?>
<!DOCTYPE svg PUBLIC "-//W3C//DTD SVG 1.1//EN" "http://www.w3.org/Graphics/SVG/1.1/DTD/svg11.dtd">
<svg width="100%" height="100%" viewBox="0 0 231 160" version="1.1" xmlns="http://www.w3.org/2000/svg" xmlns:xlink="http://www.w3.org/1999/xlink" xml:space="preserve" style="fill-rule:evenodd;clip-rule:evenodd;stroke-linejoin:round;stroke-miterlimit:1.41421;">
    <g transform="matrix(1,0,0,1,-7630,-1266)">
        <g id="c" transform="matrix(1,0,0,1,7679.52,1374.8)">
            <path d="M18.575,0C8.316,0 0,8.327 0,18.599C0,28.871 8.316,37.199 18.575,37.199L112.044,37.199C122.303,37.199 130.619,28.871 130.619,18.599C130.619,8.327 122.303,0 112.044,0L18.575,0ZM19.745,26.177C23.882,26.177 27.235,22.784 27.235,18.599C27.235,14.414 23.882,11.022 19.745,11.022C15.609,11.022 12.255,14.414 12.255,18.599C12.255,22.784 15.609,26.177 19.745,26.177Z" style="fill:white;"/>
        </g>
        <g id="e" transform="matrix(1,0,0,1,7679.52,1374.8)">
            <path d="M18.575,1.697C9.252,1.697 1.695,9.264 1.695,18.599C1.695,27.934 9.252,35.501 18.575,35.501L112.044,35.501C121.367,35.501 128.924,27.934 128.924,18.599C128.924,9.264 121.367,1.697 112.044,1.697L18.575,1.697L18.575,1.697ZM28.93,18.599C28.93,23.705 24.834,27.873 19.745,27.873C14.656,27.873 10.561,23.705 10.561,18.599C10.561,13.494 14.656,9.325 19.745,9.325C24.835,9.325 28.93,13.494 28.93,18.599L28.93,18.599ZM0,18.6C0,8.327 8.316,0 18.575,0L112.044,0C122.303,0 130.619,8.327 130.619,18.599C130.619,28.871 122.303,37.199 112.044,37.199L18.575,37.199C8.316,37.198 0,28.87 0,18.598L0,18.6ZM27.235,18.6C27.235,22.785 23.882,26.178 19.745,26.178C15.609,26.178 12.255,22.785 12.255,18.6C12.255,14.415 15.609,11.023 19.745,11.023C23.882,11.023 27.235,14.415 27.235,18.6Z" style="fill:rgb(217,7,84);"/>
        </g>
        <g id="g" transform="matrix(1,0,0,1,7680.86,1272)">
            <path d="M18.575,0C8.316,0 0,8.327 0,18.599C0,28.871 8.316,37.199 18.575,37.199L112.044,37.199C122.303,37.199 130.619,28.871 130.619,18.599C130.619,8.327 122.303,0 112.044,0L18.575,0ZM19.745,26.176C23.882,26.176 27.235,22.784 27.235,18.599C27.235,14.414 23.883,11.022 19.745,11.022C15.609,11.022 12.256,14.414 12.256,18.599C12.256,22.784 15.609,26.176 19.746,26.176L19.745,26.176Z" style="fill:white;"/>
        </g>
        <g id="i" transform="matrix(1,0,0,1,7680.86,1272)">
            <path d="M18.575,1.697C9.252,1.697 1.695,9.264 1.695,18.599C1.695,27.934 9.252,35.501 18.575,35.501L112.044,35.501C121.367,35.501 128.924,27.934 128.924,18.599C128.924,9.264 121.367,1.697 112.044,1.697L18.575,1.697L18.575,1.697ZM28.93,18.599C28.93,23.704 24.835,27.873 19.746,27.873C14.656,27.873 10.561,23.704 10.561,18.599C10.561,13.493 14.657,9.325 19.746,9.325C24.835,9.325 28.93,13.493 28.93,18.599L28.93,18.599ZM0,18.599C0,8.327 8.316,0 18.575,0L112.044,0C122.303,0 130.619,8.327 130.619,18.599C130.619,28.871 122.303,37.199 112.044,37.199L18.575,37.199C8.316,37.198 0,28.87 0,18.598L0,18.599ZM27.236,18.599C27.236,22.784 23.882,26.176 19.746,26.176C15.609,26.176 12.256,22.784 12.256,18.599C12.256,14.414 15.609,11.022 19.746,11.022C23.883,11.022 27.236,14.414 27.236,18.599L27.236,18.599Z" style="fill:rgb(217,7,84);"/>
        </g>
        <g id="k" transform="matrix(1,0,0,1,7666.79,1295.67)">
            <path d="M18.575,0C8.316,0 0,8.327 0,18.599C0,28.871 8.316,37.199 18.575,37.199L138.838,37.199C149.096,37.199 157.413,28.871 157.413,18.599C157.413,8.327 149.096,0 138.838,0L18.575,0ZM19.745,26.176C23.882,26.176 27.235,22.784 27.235,18.599C27.235,14.414 23.882,11.022 19.745,11.022C15.609,11.022 12.255,14.414 12.255,18.599C12.255,22.784 15.609,26.176 19.745,26.176L19.745,26.176Z" style="fill:white;"/>
        </g>
        <g id="m" transform="matrix(1,0,0,1,7666.79,1295.67)">
            <path d="M18.575,1.697C9.252,1.697 1.695,9.264 1.695,18.599C1.695,27.934 9.252,35.501 18.575,35.501L138.838,35.501C148.16,35.501 155.718,27.934 155.718,18.599C155.718,9.264 148.16,1.697 138.838,1.697L18.575,1.697L18.575,1.697ZM28.93,18.599C28.93,23.704 24.834,27.873 19.745,27.873C14.656,27.873 10.561,23.704 10.561,18.599C10.561,13.493 14.656,9.325 19.745,9.325C24.835,9.325 28.93,13.493 28.93,18.599L28.93,18.599ZM0,18.599C0,8.327 8.316,0 18.575,0L138.838,0C149.096,0 157.413,8.327 157.413,18.599C157.413,28.871 149.096,37.199 138.838,37.199L18.575,37.199C8.316,37.198 0,28.87 0,18.598L0,18.599ZM27.235,18.599C27.235,22.784 23.882,26.176 19.745,26.176C15.609,26.176 12.255,22.784 12.255,18.599C12.255,14.414 15.609,11.022 19.745,11.022C23.882,11.022 27.235,14.414 27.235,18.599L27.235,18.599Z" style="fill:rgb(217,7,84);"/>
        </g>
        <g id="k1" transform="matrix(1,0,0,1,7666.79,1348.62)">
            <path d="M18.575,0C8.316,0 0,8.327 0,18.599C0,28.871 8.316,37.199 18.575,37.199L138.838,37.199C149.096,37.199 157.413,28.871 157.413,18.599C157.413,8.327 149.096,0 138.838,0L18.575,0ZM19.745,26.176C23.882,26.176 27.235,22.784 27.235,18.599C27.235,14.414 23.882,11.022 19.745,11.022C15.609,11.022 12.255,14.414 12.255,18.599C12.255,22.784 15.609,26.176 19.745,26.176L19.745,26.176Z" style="fill:white;"/>
        </g>
        <g id="m1" transform="matrix(1,0,0,1,7666.79,1348.62)">
            <path d="M18.575,1.697C9.252,1.697 1.695,9.264 1.695,18.599C1.695,27.934 9.252,35.501 18.575,35.501L138.838,35.501C148.16,35.501 155.718,27.934 155.718,18.599C155.718,9.264 148.16,1.697 138.838,1.697L18.575,1.697L18.575,1.697ZM28.93,18.599C28.93,23.704 24.834,27.873 19.745,27.873C14.656,27.873 10.561,23.704 10.561,18.599C10.561,13.493 14.656,9.325 19.745,9.325C24.835,9.325 28.93,13.493 28.93,18.599L28.93,18.599ZM0,18.599C0,8.327 8.316,0 18.575,0L138.838,0C149.096,0 157.413,8.327 157.413,18.599C157.413,28.871 149.096,37.199 138.838,37.199L18.575,37.199C8.316,37.198 0,28.87 0,18.598L0,18.599ZM27.235,18.599C27.235,22.784 23.882,26.176 19.745,26.176C15.609,26.176 12.255,22.784 12.255,18.599C12.255,14.414 15.609,11.022 19.745,11.022C23.882,11.022 27.235,14.414 27.235,18.599L27.235,18.599Z" style="fill:rgb(217,7,84);"/>
        </g>
        <g id="q" transform="matrix(1,0,0,1,7640,1322.05)">
            <path d="M18.575,0C8.316,0 0,8.327 0,18.599C0,28.871 8.316,37.199 18.575,37.199L192.425,37.199C202.684,37.199 211,28.871 211,18.599C211,8.327 202.684,0 192.425,0L18.575,0ZM19.745,26.177C23.882,26.177 27.235,22.784 27.235,18.599C27.235,14.414 23.882,11.022 19.745,11.022C15.609,11.022 12.255,14.414 12.255,18.599C12.255,22.784 15.609,26.177 19.745,26.177Z" style="fill:url(#_Linear1);"/>
        </g>
    </g>
    <defs>
        <linearGradient id="_Linear1" x1="0" y1="0" x2="1" y2="0" gradientUnits="userSpaceOnUse" gradientTransform="matrix(5.5072e-15,89.9394,-89.9394,5.5072e-15,360.583,-22.048)"><stop offset="0" style="stop-color:rgb(217,7,84);stop-opacity:1"/><stop offset="1" style="stop-color:rgb(151,40,116);stop-opacity:1"/></linearGradient>
    </defs>
</svg>
