<svg id="Capa_1" data-name="Capa 1" xmlns="http://www.w3.org/2000/svg" viewBox="0 0 150 150"><defs><style>.cls-1{fill:url(#Degradado_sin_nombre)}</style><linearGradient id="Degradado_sin_nombre" x1="-604.82" y1="459.67" x2="-604.14" y2="459.67" gradientTransform="matrix(0 125.5 854.34 0 -392639.28 75935.7)" gradientUnits="userSpaceOnUse"><stop offset="0" stop-color="#d90754"/><stop offset="1" stop-color="#972874"/></linearGradient></defs><title>Contenido_icon</title><g id="Canvas"><g id="Contenido_icon" data-name="Contenido icon"><path id="path0_fill" data-name="path0 fill" class="cls-1" d="M135.56 61.72H14.45a13 13 0 0 0 0 25.91h121.11a13 13 0 0 0 0-25.91zM15.26 80a5.28 5.28 0 1 1 5.21-5.28A5.25 5.25 0 0 1 15.26 80zm13 20.14a6.64 6.64 0 1 0 6.59 6.64 6.62 6.62 0 0 0-6.61-6.68zm0 10.55a3.91 3.91 0 1 1 3.85-3.91 3.88 3.88 0 0 1-3.87 3.87zm93-18.23H27.43a14.32 14.32 0 0 0 0 28.65h93.77a14.32 14.32 0 0 0 0-28.65zm0 25.91H27.43a11.59 11.59 0 0 1 0-23.18h93.77a11.59 11.59 0 0 1 0 23.18zm-93-18.24a6.64 6.64 0 1 0 6.59 6.64 6.62 6.62 0 0 0-6.61-6.67zm0 10.55a3.91 3.91 0 1 1 3.85-3.91 3.88 3.88 0 0 1-3.87 3.88zm0-10.55a6.64 6.64 0 1 0 6.59 6.64 6.62 6.62 0 0 0-6.61-6.67zm0 10.55a3.91 3.91 0 1 1 3.85-3.91 3.88 3.88 0 0 1-3.87 3.88zm0-74.14a6.64 6.64 0 1 0 6.59 6.64 6.62 6.62 0 0 0-6.61-6.67zm0 10.55a3.91 3.91 0 1 1 3.85-3.91 3.88 3.88 0 0 1-3.87 3.89zm93-18.24H27.43a14.32 14.32 0 0 0 0 28.65h93.77a14.32 14.32 0 0 0 0-28.65zm0 25.91H27.43a11.59 11.59 0 0 1 0-23.18h93.77a11.59 11.59 0 0 1 0 23.18zm-93-18.23a6.64 6.64 0 1 0 6.59 6.64 6.62 6.62 0 0 0-6.61-6.66zm0 10.55a3.91 3.91 0 1 1 3.85-3.91 3.88 3.88 0 0 1-3.87 3.9zm0-10.55a6.64 6.64 0 1 0 6.59 6.64 6.62 6.62 0 0 0-6.61-6.66zm0 10.55a3.91 3.91 0 1 1 3.85-3.91 3.88 3.88 0 0 1-3.87 3.9z"/></g></g></svg>