<svg viewBox="0 0 150 150" xmlns="http://www.w3.org/2000/svg" fill-rule="evenodd" clip-rule="evenodd" stroke-linejoin="round" stroke-miterlimit="1.414"><g fill-rule="nonzero"><path d="M119.692 106.976c-.205-.41-.41-.822-.616-1.13-2.26-3.904-6.576-6.575-11.404-6.575h-66.37c-4.83 0-9.042 2.568-11.302 6.37-.205.308-.41.719-.616 1.13-.822 1.746-1.336 3.698-1.336 5.753 0 7.295 5.959 13.254 13.253 13.254h66.473c7.295 0 13.254-5.96 13.254-13.254-.103-2.055-.514-3.904-1.336-5.548zm-72.226 5.548a5.306 5.306 0 0 1-5.343 5.343c-2.979 0-5.342-2.466-5.342-5.343a5.306 5.306 0 0 1 5.342-5.342c2.98-.103 5.343 2.363 5.343 5.342z" fill="#fff"/><path d="M45.925 107.08c-1.028-.72-2.363-1.234-3.802-1.234-1.438 0-2.67.411-3.801 1.233-1.644 1.233-2.774 3.185-2.774 5.343a6.555 6.555 0 0 0 6.575 6.575c3.596 0 6.576-2.98 6.576-6.575 0-2.158-1.13-4.11-2.774-5.343zm-3.802 10.787c-2.979 0-5.342-2.466-5.342-5.343a5.306 5.306 0 0 1 5.342-5.342 5.306 5.306 0 0 1 5.343 5.342 5.306 5.306 0 0 1-5.343 5.343zm3.802-10.788c-1.028-.72-2.363-1.233-3.802-1.233-1.438 0-2.67.411-3.801 1.233-1.644 1.233-2.774 3.185-2.774 5.343a6.555 6.555 0 0 0 6.575 6.575c3.596 0 6.576-2.98 6.576-6.575 0-2.158-1.13-4.11-2.774-5.343zm-3.802 10.788c-2.979 0-5.342-2.466-5.342-5.343a5.306 5.306 0 0 1 5.342-5.342 5.306 5.306 0 0 1 5.343 5.342 5.306 5.306 0 0 1-5.343 5.343zm3.802-10.788c-1.028-.72-2.363-1.233-3.802-1.233-1.438 0-2.67.411-3.801 1.233-1.644 1.233-2.774 3.185-2.774 5.343a6.555 6.555 0 0 0 6.575 6.575c3.596 0 6.576-2.98 6.576-6.575 0-2.158-1.13-4.11-2.774-5.343zm-3.802 10.788c-2.979 0-5.342-2.466-5.342-5.343a5.306 5.306 0 0 1 5.342-5.342 5.306 5.306 0 0 1 5.343 5.342 5.306 5.306 0 0 1-5.343 5.343zm3.802-10.788c-1.028-.72-2.363-1.233-3.802-1.233-1.438 0-2.67.411-3.801 1.233-1.644 1.233-2.774 3.185-2.774 5.343a6.555 6.555 0 0 0 6.575 6.575c3.596 0 6.576-2.98 6.576-6.575 0-2.158-1.13-4.11-2.774-5.343zm-3.802 10.788c-2.979 0-5.342-2.466-5.342-5.343a5.306 5.306 0 0 1 5.342-5.342 5.306 5.306 0 0 1 5.343 5.342 5.306 5.306 0 0 1-5.343 5.343zm3.802-10.788c-1.028-.72-2.363-1.233-3.802-1.233-1.438 0-2.67.411-3.801 1.233-1.644 1.233-2.774 3.185-2.774 5.343a6.555 6.555 0 0 0 6.575 6.575c3.596 0 6.576-2.98 6.576-6.575 0-2.158-1.13-4.11-2.774-5.343zm-3.802 10.788c-2.979 0-5.342-2.466-5.342-5.343a5.306 5.306 0 0 1 5.342-5.342 5.306 5.306 0 0 1 5.343 5.342 5.306 5.306 0 0 1-5.343 5.343zm3.802-10.788c-1.028-.72-2.363-1.233-3.802-1.233-1.438 0-2.67.411-3.801 1.233-1.644 1.233-2.774 3.185-2.774 5.343a6.555 6.555 0 0 0 6.575 6.575c3.596 0 6.576-2.98 6.576-6.575 0-2.158-1.13-4.11-2.774-5.343zm-3.802 10.788c-2.979 0-5.342-2.466-5.342-5.343a5.306 5.306 0 0 1 5.342-5.342 5.306 5.306 0 0 1 5.343 5.342 5.306 5.306 0 0 1-5.343 5.343zm77.57-10.89c-.206-.412-.412-.823-.617-1.13-2.26-3.905-6.576-6.576-11.404-6.576h-66.37c-4.83 0-9.042 2.568-11.302 6.37-.205.308-.41.719-.616 1.13-.822 1.746-1.336 3.698-1.336 5.753 0 7.295 5.959 13.254 13.253 13.254h66.473c7.295 0 13.254-5.96 13.254-13.254-.103-2.055-.514-3.904-1.336-5.548zm-11.919 17.568H41.301a11.97 11.97 0 0 1-12.02-12.02c0-1.953.514-3.905 1.336-5.446.205-.41.41-.822.719-1.13 2.157-3.288 5.856-5.343 9.965-5.343h66.473c4.213 0 7.911 2.158 10.069 5.446.205.41.513.822.719 1.233.822 1.643 1.233 3.493 1.233 5.445 0 6.37-5.445 11.815-12.02 11.815zm-61.85-17.466c-1.027-.72-2.362-1.233-3.8-1.233-1.439 0-2.672.411-3.802 1.233-1.644 1.233-2.774 3.185-2.774 5.343a6.555 6.555 0 0 0 6.575 6.575c3.596 0 6.576-2.98 6.576-6.575 0-2.158-1.13-4.11-2.774-5.343zm-3.8 10.788c-2.98 0-5.343-2.466-5.343-5.343a5.306 5.306 0 0 1 5.342-5.342 5.306 5.306 0 0 1 5.343 5.342 5.306 5.306 0 0 1-5.343 5.343zm3.8-10.788c-1.027-.72-2.362-1.233-3.8-1.233-1.439 0-2.672.411-3.802 1.233-1.644 1.233-2.774 3.185-2.774 5.343a6.555 6.555 0 0 0 6.575 6.575c3.596 0 6.576-2.98 6.576-6.575 0-2.158-1.13-4.11-2.774-5.343zm-3.8 10.788c-2.98 0-5.343-2.466-5.343-5.343a5.306 5.306 0 0 1 5.342-5.342 5.306 5.306 0 0 1 5.343 5.342 5.306 5.306 0 0 1-5.343 5.343zm3.8-10.788c-1.027-.72-2.362-1.233-3.8-1.233-1.439 0-2.672.411-3.802 1.233-1.644 1.233-2.774 3.185-2.774 5.343a6.555 6.555 0 0 0 6.575 6.575c3.596 0 6.576-2.98 6.576-6.575 0-2.158-1.13-4.11-2.774-5.343zm-3.8 10.788c-2.98 0-5.343-2.466-5.343-5.343a5.306 5.306 0 0 1 5.342-5.342 5.306 5.306 0 0 1 5.343 5.342 5.306 5.306 0 0 1-5.343 5.343z" fill="#d90754"/><path d="M108.699 26.223H42.226c-7.294 0-13.15 5.959-13.15 13.253 0 1.336.205 2.671.616 3.904.103.411.205.822.41 1.13.823 2.055 2.261 3.905 3.905 5.24 1.233.925 2.568 1.747 4.11 2.26 1.335.411 2.774.72 4.212.72h66.473c5.445 0 10.068-3.288 12.123-8.014.205-.411.308-.72.411-1.13.41-1.233.616-2.671.616-4.11A13.22 13.22 0 0 0 108.7 26.223zM39.144 42.969c-.822-.924-1.336-2.26-1.336-3.596a5.306 5.306 0 0 1 5.343-5.342 5.306 5.306 0 0 1 5.342 5.342c0 1.336-.513 2.672-1.335 3.596h-8.014zm0 0c.41.514.925.925 1.541 1.233.72.411 1.541.617 2.363.617.822 0 1.644-.206 2.363-.617a4.549 4.549 0 0 0 1.541-1.233h-7.808z" fill="#fff"/><path d="M43.048 32.798c-3.596 0-6.575 2.98-6.575 6.575 0 1.336.41 2.569 1.027 3.596.308.411.617.822 1.028 1.233 1.13 1.13 2.773 1.747 4.417 1.747 1.747 0 3.288-.72 4.418-1.747.411-.41.72-.719 1.028-1.233.719-1.027 1.027-2.26 1.027-3.596.205-3.596-2.671-6.575-6.37-6.575zm-3.904 10.171c-.822-.924-1.336-2.26-1.336-3.596a5.306 5.306 0 0 1 5.343-5.342 5.306 5.306 0 0 1 5.342 5.342c0 1.336-.513 2.672-1.335 3.596h-8.014zm3.904-10.171c-3.596 0-6.575 2.98-6.575 6.575 0 1.336.41 2.569 1.027 3.596.308.411.617.822 1.028 1.233 1.13 1.13 2.773 1.747 4.417 1.747 1.747 0 3.288-.72 4.418-1.747.411-.41.72-.719 1.028-1.233.719-1.027 1.027-2.26 1.027-3.596.205-3.596-2.671-6.575-6.37-6.575zm-3.904 10.171c-.822-.924-1.336-2.26-1.336-3.596a5.306 5.306 0 0 1 5.343-5.342 5.306 5.306 0 0 1 5.342 5.342c0 1.336-.513 2.672-1.335 3.596h-8.014zm3.904-10.171c-3.596 0-6.575 2.98-6.575 6.575 0 1.336.41 2.569 1.027 3.596.308.411.617.822 1.028 1.233 1.13 1.13 2.773 1.747 4.417 1.747 1.747 0 3.288-.72 4.418-1.747.411-.41.72-.719 1.028-1.233.719-1.027 1.027-2.26 1.027-3.596.205-3.596-2.671-6.575-6.37-6.575zm-3.904 10.171c-.822-.924-1.336-2.26-1.336-3.596a5.306 5.306 0 0 1 5.343-5.342 5.306 5.306 0 0 1 5.342 5.342c0 1.336-.513 2.672-1.335 3.596h-8.014zm3.904-10.171c-3.596 0-6.575 2.98-6.575 6.575 0 1.336.41 2.569 1.027 3.596.308.411.617.822 1.028 1.233 1.13 1.13 2.773 1.747 4.417 1.747 1.747 0 3.288-.72 4.418-1.747.411-.41.72-.719 1.028-1.233.719-1.027 1.027-2.26 1.027-3.596.205-3.596-2.671-6.575-6.37-6.575zm-3.904 10.171c-.822-.924-1.336-2.26-1.336-3.596a5.306 5.306 0 0 1 5.343-5.342 5.306 5.306 0 0 1 5.342 5.342c0 1.336-.513 2.672-1.335 3.596h-8.014zm3.904-10.171c-3.596 0-6.575 2.98-6.575 6.575 0 1.336.41 2.569 1.027 3.596.308.411.617.822 1.028 1.233 1.13 1.13 2.773 1.747 4.417 1.747 1.747 0 3.288-.72 4.418-1.747.411-.41.72-.719 1.028-1.233.719-1.027 1.027-2.26 1.027-3.596.205-3.596-2.671-6.575-6.37-6.575zm-3.904 10.171c-.822-.924-1.336-2.26-1.336-3.596a5.306 5.306 0 0 1 5.343-5.342 5.306 5.306 0 0 1 5.342 5.342c0 1.336-.513 2.672-1.335 3.596h-8.014zm3.904-10.171c-3.596 0-6.575 2.98-6.575 6.575 0 1.336.41 2.569 1.027 3.596.308.411.617.822 1.028 1.233 1.13 1.13 2.773 1.747 4.417 1.747 1.747 0 3.288-.72 4.418-1.747.411-.41.72-.719 1.028-1.233.719-1.027 1.027-2.26 1.027-3.596.205-3.596-2.671-6.575-6.37-6.575zm-3.904 10.171c-.822-.924-1.336-2.26-1.336-3.596a5.306 5.306 0 0 1 5.343-5.342 5.306 5.306 0 0 1 5.342 5.342c0 1.336-.513 2.672-1.335 3.596h-8.014zm69.555-16.746H42.226c-7.294 0-13.15 5.959-13.15 13.253 0 1.336.205 2.671.616 3.904.103.411.205.822.41 1.13.823 2.055 2.261 3.905 3.905 5.24 1.233.925 2.568 1.747 4.11 2.26 1.335.411 2.774.72 4.212.72h66.473c5.445 0 10.068-3.288 12.123-8.014.205-.411.308-.72.411-1.13.41-1.233.616-2.671.616-4.11A13.22 13.22 0 0 0 108.7 26.223zm10.89 18.185a11.883 11.883 0 0 1-10.89 7.089H42.226c-4.931 0-9.144-2.98-10.993-7.192a5.008 5.008 0 0 1-.411-1.13c-.41-1.13-.616-2.363-.616-3.699a11.97 11.97 0 0 1 12.02-12.02H108.7a11.97 11.97 0 0 1 12.02 12.02 11.79 11.79 0 0 1-.616 3.802c-.103.308-.308.719-.514 1.13zm-76.54-11.61c-3.597 0-6.576 2.98-6.576 6.575 0 1.336.41 2.569 1.027 3.596.308.411.617.822 1.028 1.233 1.13 1.13 2.773 1.747 4.417 1.747 1.747 0 3.288-.72 4.418-1.747.411-.41.72-.719 1.028-1.233.719-1.027 1.027-2.26 1.027-3.596.205-3.596-2.671-6.575-6.37-6.575zm4.006 10.171h-7.911c-.822-.924-1.336-2.26-1.336-3.596a5.306 5.306 0 0 1 5.343-5.342 5.306 5.306 0 0 1 5.342 5.342c-.102 1.439-.616 2.672-1.438 3.596zm-4.007-10.171c-3.596 0-6.575 2.98-6.575 6.575 0 1.336.41 2.569 1.027 3.596.308.411.617.822 1.028 1.233 1.13 1.13 2.773 1.747 4.417 1.747 1.747 0 3.288-.72 4.418-1.747.411-.41.72-.719 1.028-1.233.719-1.027 1.027-2.26 1.027-3.596.205-3.596-2.671-6.575-6.37-6.575zm-3.904 10.171c-.822-.924-1.336-2.26-1.336-3.596a5.306 5.306 0 0 1 5.343-5.342 5.306 5.306 0 0 1 5.342 5.342c0 1.336-.513 2.672-1.335 3.596h-8.014zm3.904-10.171c-3.596 0-6.575 2.98-6.575 6.575 0 1.336.41 2.569 1.027 3.596.308.411.617.822 1.028 1.233 1.13 1.13 2.773 1.747 4.417 1.747 1.747 0 3.288-.72 4.418-1.747.411-.41.72-.719 1.028-1.233.719-1.027 1.027-2.26 1.027-3.596.205-3.596-2.671-6.575-6.37-6.575zm-3.904 10.171c-.822-.924-1.336-2.26-1.336-3.596a5.306 5.306 0 0 1 5.343-5.342 5.306 5.306 0 0 1 5.342 5.342c0 1.336-.513 2.672-1.335 3.596h-8.014zm0 0c.41.514.925.925 1.541 1.233.72.411 1.541.617 2.363.617.822 0 1.644-.206 2.363-.617a4.549 4.549 0 0 0 1.541-1.233h-7.808z" fill="#d90754"/><path d="M121.233 43.483c-.41-.103-.822-.205-1.13-.308-.72-.103-1.541-.206-2.363-.206H32.26c-.513 0-.924 0-1.438.103-.41 0-.822.103-1.233.206-6.062 1.232-10.582 6.575-10.582 12.945 0 1.952.41 3.801 1.233 5.548a13.222 13.222 0 0 0 12.02 7.705h85.48c5.343 0 9.863-3.185 12.02-7.705.823-1.644 1.234-3.596 1.234-5.548 0-6.062-4.11-11.199-9.76-12.74zM27.74 56.223a5.306 5.306 0 0 1 5.342-5.343 5.306 5.306 0 0 1 5.343 5.343 5.306 5.306 0 0 1-5.343 5.342c-2.98.103-5.342-2.363-5.342-5.342z" fill="#fff"/><path d="M38.014 51.908a6.348 6.348 0 0 0-4.11-2.26c-.308 0-.616-.103-.924-.103-3.596 0-6.576 2.98-6.576 6.575 0 2.26 1.233 4.315 2.98 5.548 1.027.72 2.26 1.027 3.596 1.027 1.335 0 2.568-.41 3.595-1.027 1.747-1.13 2.98-3.185 2.98-5.548.103-1.541-.514-2.98-1.541-4.212zm-4.932 9.76c-2.98 0-5.342-2.466-5.342-5.342a5.306 5.306 0 0 1 5.342-5.343 5.306 5.306 0 0 1 5.343 5.343c0 2.876-2.363 5.342-5.343 5.342zm4.932-9.76a6.348 6.348 0 0 0-4.11-2.26c-.308 0-.616-.103-.924-.103-3.596 0-6.576 2.98-6.576 6.575 0 2.26 1.233 4.315 2.98 5.548 1.027.72 2.26 1.027 3.596 1.027 1.335 0 2.568-.41 3.595-1.027 1.747-1.13 2.98-3.185 2.98-5.548.103-1.541-.514-2.98-1.541-4.212zm-4.932 9.76c-2.98 0-5.342-2.466-5.342-5.342a5.306 5.306 0 0 1 5.342-5.343 5.306 5.306 0 0 1 5.343 5.343c0 2.876-2.363 5.342-5.343 5.342zm4.932-9.76a6.348 6.348 0 0 0-4.11-2.26c-.308 0-.616-.103-.924-.103-3.596 0-6.576 2.98-6.576 6.575 0 2.26 1.233 4.315 2.98 5.548 1.027.72 2.26 1.027 3.596 1.027 1.335 0 2.568-.41 3.595-1.027 1.747-1.13 2.98-3.185 2.98-5.548.103-1.541-.514-2.98-1.541-4.212zm-4.932 9.76c-2.98 0-5.342-2.466-5.342-5.342a5.306 5.306 0 0 1 5.342-5.343 5.306 5.306 0 0 1 5.343 5.343c0 2.876-2.363 5.342-5.343 5.342zm4.932-9.76a6.348 6.348 0 0 0-4.11-2.26c-.308 0-.616-.103-.924-.103-3.596 0-6.576 2.98-6.576 6.575 0 2.26 1.233 4.315 2.98 5.548 1.027.72 2.26 1.027 3.596 1.027 1.335 0 2.568-.41 3.595-1.027 1.747-1.13 2.98-3.185 2.98-5.548.103-1.541-.514-2.98-1.541-4.212zm-4.932 9.76c-2.98 0-5.342-2.466-5.342-5.342a5.306 5.306 0 0 1 5.342-5.343 5.306 5.306 0 0 1 5.343 5.343c0 2.876-2.363 5.342-5.343 5.342zm4.932-9.76a6.348 6.348 0 0 0-4.11-2.26c-.308 0-.616-.103-.924-.103-3.596 0-6.576 2.98-6.576 6.575 0 2.26 1.233 4.315 2.98 5.548 1.027.72 2.26 1.027 3.596 1.027 1.335 0 2.568-.41 3.595-1.027 1.747-1.13 2.98-3.185 2.98-5.548.103-1.541-.514-2.98-1.541-4.212zm-4.932 9.76c-2.98 0-5.342-2.466-5.342-5.342a5.306 5.306 0 0 1 5.342-5.343 5.306 5.306 0 0 1 5.343 5.343c0 2.876-2.363 5.342-5.343 5.342zm4.932-9.76a6.348 6.348 0 0 0-4.11-2.26c-.308 0-.616-.103-.924-.103-3.596 0-6.576 2.98-6.576 6.575 0 2.26 1.233 4.315 2.98 5.548 1.027.72 2.26 1.027 3.596 1.027 1.335 0 2.568-.41 3.595-1.027 1.747-1.13 2.98-3.185 2.98-5.548.103-1.541-.514-2.98-1.541-4.212zm-4.932 9.76c-2.98 0-5.342-2.466-5.342-5.342a5.306 5.306 0 0 1 5.342-5.343 5.306 5.306 0 0 1 5.343 5.343c0 2.876-2.363 5.342-5.343 5.342zm88.151-18.185c-.41-.103-.822-.205-1.13-.308-.72-.103-1.541-.206-2.363-.206H32.26c-.513 0-.924 0-1.438.103-.41 0-.822.103-1.233.206-6.062 1.232-10.582 6.575-10.582 12.945 0 1.952.41 3.801 1.233 5.548a13.222 13.222 0 0 0 12.02 7.705h85.48c5.343 0 9.863-3.185 12.02-7.705.823-1.644 1.234-3.596 1.234-5.548 0-6.062-4.11-11.199-9.76-12.74zm7.192 18.288c-1.952 3.904-6.062 6.472-10.685 6.472H32.26c-4.623 0-8.63-2.67-10.685-6.472-.822-1.644-1.335-3.493-1.335-5.548 0-5.856 4.212-10.788 9.76-11.815.411-.103.822-.103 1.233-.206h86.404c.617 0 1.233 0 1.85.103l1.233.308c5.137 1.336 8.938 6.062 8.938 11.61.103 2.055-.411 3.904-1.233 5.548zM34.007 49.75c-.308 0-.616-.104-.925-.104-3.596 0-6.575 2.98-6.575 6.576 0 2.26 1.233 4.315 2.98 5.548 1.027.719 2.26 1.027 3.595 1.027 1.336 0 2.569-.41 3.596-1.027 1.747-1.13 2.98-3.185 2.98-5.548a6.897 6.897 0 0 0-1.541-4.315c-1.13-1.13-2.569-1.952-4.11-2.158zm4.418 6.472a5.306 5.306 0 0 1-5.343 5.342c-2.98 0-5.342-2.466-5.342-5.342a5.306 5.306 0 0 1 5.342-5.343 5.306 5.306 0 0 1 5.343 5.343zm-.411-4.315a6.348 6.348 0 0 0-4.11-2.26c-.308 0-.616-.103-.924-.103-3.596 0-6.576 2.98-6.576 6.575 0 2.26 1.233 4.315 2.98 5.548 1.027.72 2.26 1.027 3.596 1.027 1.335 0 2.568-.41 3.595-1.027 1.747-1.13 2.98-3.185 2.98-5.548.103-1.541-.514-2.98-1.541-4.212zm-4.932 9.76c-2.98 0-5.342-2.466-5.342-5.342a5.306 5.306 0 0 1 5.342-5.343 5.306 5.306 0 0 1 5.343 5.343c0 2.876-2.363 5.342-5.343 5.342zm4.932-9.76a6.348 6.348 0 0 0-4.11-2.26c-.308 0-.616-.103-.924-.103-3.596 0-6.576 2.98-6.576 6.575 0 2.26 1.233 4.315 2.98 5.548 1.027.72 2.26 1.027 3.596 1.027 1.335 0 2.568-.41 3.595-1.027 1.747-1.13 2.98-3.185 2.98-5.548.103-1.541-.514-2.98-1.541-4.212zm-4.932 9.76c-2.98 0-5.342-2.466-5.342-5.342a5.306 5.306 0 0 1 5.342-5.343 5.306 5.306 0 0 1 5.343 5.343c0 2.876-2.363 5.342-5.343 5.342z" fill="#d90754"/><path d="M129.658 88.175c-2.158-4.52-6.678-7.603-11.918-7.603H32.26c-5.24 0-9.863 3.082-11.917 7.603-.822 1.746-1.233 3.596-1.233 5.65 0 6.268 4.417 11.61 10.376 12.946.411.103.822.205 1.233.205.514.103 1.028.103 1.644.103h86.199c.41 0 .822-.103 1.233-.103 6.37-.924 11.199-6.472 11.199-13.048 0-2.054-.514-4.007-1.336-5.753zm-91.233 5.753a5.306 5.306 0 0 1-5.343 5.343c-2.98 0-5.342-2.466-5.342-5.343a5.306 5.306 0 0 1 5.342-5.342c2.98-.103 5.343 2.363 5.343 5.342z" fill="#fff"/><path d="M36.473 88.175a6.466 6.466 0 0 0-3.39-.925 6.466 6.466 0 0 0-3.391.925c-1.952 1.13-3.185 3.288-3.185 5.65a6.555 6.555 0 0 0 6.575 6.576c3.596 0 6.576-2.98 6.576-6.575 0-2.363-1.336-4.418-3.185-5.651zm-3.39 11.096c-2.98 0-5.343-2.466-5.343-5.343a5.306 5.306 0 0 1 5.342-5.342 5.306 5.306 0 0 1 5.343 5.342c0 2.877-2.363 5.343-5.343 5.343zm3.39-11.096a6.466 6.466 0 0 0-3.39-.925 6.466 6.466 0 0 0-3.391.925c-1.952 1.13-3.185 3.288-3.185 5.65a6.555 6.555 0 0 0 6.575 6.576c3.596 0 6.576-2.98 6.576-6.575 0-2.363-1.336-4.418-3.185-5.651zm-3.39 11.096c-2.98 0-5.343-2.466-5.343-5.343a5.306 5.306 0 0 1 5.342-5.342 5.306 5.306 0 0 1 5.343 5.342c0 2.877-2.363 5.343-5.343 5.343zm3.39-11.096a6.466 6.466 0 0 0-3.39-.925 6.466 6.466 0 0 0-3.391.925c-1.952 1.13-3.185 3.288-3.185 5.65a6.555 6.555 0 0 0 6.575 6.576c3.596 0 6.576-2.98 6.576-6.575 0-2.363-1.336-4.418-3.185-5.651zm-3.39 11.096c-2.98 0-5.343-2.466-5.343-5.343a5.306 5.306 0 0 1 5.342-5.342 5.306 5.306 0 0 1 5.343 5.342c0 2.877-2.363 5.343-5.343 5.343zm3.39-11.096a6.466 6.466 0 0 0-3.39-.925 6.466 6.466 0 0 0-3.391.925c-1.952 1.13-3.185 3.288-3.185 5.65a6.555 6.555 0 0 0 6.575 6.576c3.596 0 6.576-2.98 6.576-6.575 0-2.363-1.336-4.418-3.185-5.651zm-3.39 11.096c-2.98 0-5.343-2.466-5.343-5.343a5.306 5.306 0 0 1 5.342-5.342 5.306 5.306 0 0 1 5.343 5.342c0 2.877-2.363 5.343-5.343 5.343zm3.39-11.096a6.466 6.466 0 0 0-3.39-.925 6.466 6.466 0 0 0-3.391.925c-1.952 1.13-3.185 3.288-3.185 5.65a6.555 6.555 0 0 0 6.575 6.576c3.596 0 6.576-2.98 6.576-6.575 0-2.363-1.336-4.418-3.185-5.651zm-3.39 11.096c-2.98 0-5.343-2.466-5.343-5.343a5.306 5.306 0 0 1 5.342-5.342 5.306 5.306 0 0 1 5.343 5.342c0 2.877-2.363 5.343-5.343 5.343zm3.39-11.096a6.466 6.466 0 0 0-3.39-.925 6.466 6.466 0 0 0-3.391.925c-1.952 1.13-3.185 3.288-3.185 5.65a6.555 6.555 0 0 0 6.575 6.576c3.596 0 6.576-2.98 6.576-6.575 0-2.363-1.336-4.418-3.185-5.651zm-3.39 11.096c-2.98 0-5.343-2.466-5.343-5.343a5.306 5.306 0 0 1 5.342-5.342 5.306 5.306 0 0 1 5.343 5.342c0 2.877-2.363 5.343-5.343 5.343zm96.575-11.096c-2.158-4.52-6.678-7.603-11.918-7.603H32.26c-5.24 0-9.863 3.082-11.917 7.603-.822 1.746-1.233 3.596-1.233 5.65 0 6.268 4.417 11.61 10.376 12.946.411.103.822.205 1.233.205.514.103 1.028.103 1.644.103h86.199c.41 0 .822-.103 1.233-.103 6.37-.924 11.199-6.472 11.199-13.048 0-2.054-.514-4.007-1.336-5.753zm-10.48 17.671c-.41.103-.924.103-1.335.103H31.336c-.411 0-.925-.103-1.336-.206-5.548-1.027-9.76-5.958-9.76-11.815 0-2.054.513-4.007 1.438-5.65 2.055-3.802 5.96-6.37 10.582-6.37h85.48c4.623 0 8.527 2.568 10.582 6.37.925 1.643 1.439 3.596 1.439 5.65 0 6.062-4.624 11.199-10.583 11.918zM36.473 88.175a6.466 6.466 0 0 0-3.39-.925 6.466 6.466 0 0 0-3.391.925c-1.952 1.13-3.185 3.288-3.185 5.65a6.555 6.555 0 0 0 6.575 6.576c3.596 0 6.576-2.98 6.576-6.575 0-2.363-1.336-4.418-3.185-5.651zm-3.39 11.096c-2.98 0-5.343-2.466-5.343-5.343a5.306 5.306 0 0 1 5.342-5.342 5.306 5.306 0 0 1 5.343 5.342c0 2.877-2.363 5.343-5.343 5.343zm3.39-11.096a6.466 6.466 0 0 0-3.39-.925 6.466 6.466 0 0 0-3.391.925c-1.952 1.13-3.185 3.288-3.185 5.65a6.555 6.555 0 0 0 6.575 6.576c3.596 0 6.576-2.98 6.576-6.575 0-2.363-1.336-4.418-3.185-5.651zm-3.39 11.096c-2.98 0-5.343-2.466-5.343-5.343a5.306 5.306 0 0 1 5.342-5.342 5.306 5.306 0 0 1 5.343 5.342c0 2.877-2.363 5.343-5.343 5.343zm3.39-11.096a6.466 6.466 0 0 0-3.39-.925 6.466 6.466 0 0 0-3.391.925c-1.952 1.13-3.185 3.288-3.185 5.65a6.555 6.555 0 0 0 6.575 6.576c3.596 0 6.576-2.98 6.576-6.575 0-2.363-1.336-4.418-3.185-5.651zm-3.39 11.096c-2.98 0-5.343-2.466-5.343-5.343a5.306 5.306 0 0 1 5.342-5.342 5.306 5.306 0 0 1 5.343 5.342c0 2.877-2.363 5.343-5.343 5.343z" fill="#d90754"/><path d="M135.2 61.2H14.9C7.8 61.2 2 67 2 74.1 2 81.2 7.8 87 14.9 87h120.3c7.1 0 12.8-5.8 12.8-12.9 0-7.1-5.8-12.9-12.8-12.9zM15.7 68.8c-2.9 0-5.2 2.3-5.2 5.2 0 2.9 2.3 5.2 5.2 5.2 2.9 0 5.2-2.4 5.2-5.2-.1-2.8-2.4-5.2-5.2-5.2z" fill="url(#a)" transform="translate(-2.055 -1.106) scale(1.0274)"/></g><defs><linearGradient id="a" x2="1" gradientUnits="userSpaceOnUse" gradientTransform="rotate(90 14.538 60.477) scale(62.2381)"><stop offset="0" stop-color="#d90754"/><stop offset="1" stop-color="#972874"/></linearGradient></defs></svg>