<?xml version="1.0" encoding="UTF-8" standalone="no"?>
<!DOCTYPE svg PUBLIC "-//W3C//DTD SVG 1.1//EN" "http://www.w3.org/Graphics/SVG/1.1/DTD/svg11.dtd">
<svg width="100%" height="100%" viewBox="0 0 20 20" version="1.1" xmlns="http://www.w3.org/2000/svg" xmlns:xlink="http://www.w3.org/1999/xlink" xml:space="preserve" style="fill-rule:evenodd;clip-rule:evenodd;stroke-linejoin:round;stroke-miterlimit:1.41421;">
    <g transform="matrix(0.218818,0,0,0.218818,-0.393873,3.80744)">
        <rect x="14.4" y="52.7" width="66.2" height="13.9" style="fill:rgb(252,211,112);"/>
        <rect x="14.4" y="52.7" width="10.9" height="13.9" style="fill:rgb(230,185,92);"/>
        <path d="M80.6,49L89.6,22.2L87.7,20.2C87.7,20.2 64.2,48.7 49.2,17.3L45.7,17.3C30.7,48.7 7.2,20.2 7.2,20.2L5.3,22.2L14.3,49L80.6,49Z" style="fill:rgb(252,211,112);fill-rule:nonzero;"/>
        <path d="M84.3,49C84.3,51 82.6,52.7 80.6,52.7L14.4,52.7C13.4,52.7 12.5,52.3 11.8,51.6C11.1,51 10.7,50 10.7,49C10.7,47 12.4,45.3 14.4,45.3L80.6,45.3C81.6,45.3 82.5,45.7 83.2,46.4C83.9,47.1 84.3,48 84.3,49Z" style="fill:rgb(230,185,92);fill-rule:nonzero;"/>
        <path d="M84.3,70.3C84.3,72.3 82.6,74 80.6,74L14.4,74C13.4,74 12.5,73.6 11.8,72.9C11.1,72.2 10.7,71.3 10.7,70.3C10.7,68.3 12.4,66.6 14.4,66.6L80.6,66.6C81.6,66.6 82.5,67 83.2,67.7C83.9,68.4 84.3,69.3 84.3,70.3Z" style="fill:rgb(230,185,92);fill-rule:nonzero;"/>
        <path d="M21.6,70.3C21.6,68.3 23.3,66.6 25.3,66.6L14.4,66.6C12.4,66.6 10.7,68.3 10.7,70.3C10.7,72.3 12.4,74 14.4,74L25.3,74C23.2,74 21.6,72.3 21.6,70.3Z" style="fill:rgb(173,139,69);fill-rule:nonzero;"/>
        <g>
            <path d="M25.3,49L14.4,49L6.7,26.1L6.6,26.1C4,26.1 1.8,24 1.8,21.3C1.8,18.7 3.9,16.5 6.6,16.5C9.3,16.5 11.4,18.6 11.4,21.3C11.4,22.2 11.2,23 10.7,23.7C12.7,25.5 15.5,27.8 18.7,29.4L25.3,49Z" style="fill:rgb(230,185,92);fill-rule:nonzero;"/>
            <circle cx="47.5" cy="15.8" r="4.8" style="fill:rgb(230,185,92);"/>
            <circle cx="88.4" cy="21.3" r="4.8" style="fill:rgb(230,185,92);"/>
        </g>
        <path d="M21.6,49C21.6,47 23.3,45.3 25.3,45.3L14.4,45.3C12.4,45.3 10.7,47 10.7,49C10.7,51 12.4,52.7 14.4,52.7L25.3,52.7C23.2,52.7 21.6,51.1 21.6,49Z" style="fill:rgb(173,139,69);fill-rule:nonzero;"/>
        <path d="M47.2,41.9L42.4,34.4C42.3,34.3 42.3,34.1 42.4,34L47.2,26.5C47.3,26.3 47.7,26.3 47.8,26.5L52.6,34C52.7,34.1 52.7,34.3 52.6,34.4L47.8,41.9C47.7,42.1 47.3,42.1 47.2,41.9Z" style="fill:rgb(217,7,84);fill-rule:nonzero;"/>
        <g>
            <path d="M47.3,64.6L44.3,59.9C44.3,59.8 44.3,59.7 44.3,59.7L47.3,55C47.4,54.9 47.6,54.9 47.7,55L50.7,59.7C50.7,59.8 50.7,59.9 50.7,59.9L47.7,64.6C47.6,64.7 47.4,64.7 47.3,64.6Z" style="fill:rgb(217,7,84);fill-rule:nonzero;"/>
            <path d="M26.5,63.7L24.1,59.9C24.1,59.8 24.1,59.8 24.1,59.7L26.5,55.9C26.6,55.8 26.7,55.8 26.8,55.9L29.2,59.7C29.2,59.8 29.2,59.8 29.2,59.9L26.8,63.7C26.8,63.8 26.6,63.8 26.5,63.7Z" style="fill:rgb(217,7,84);fill-rule:nonzero;"/>
            <path d="M68.2,63.7L65.8,59.9C65.8,59.8 65.8,59.8 65.8,59.7L68.2,55.9C68.3,55.8 68.4,55.8 68.5,55.9L70.9,59.7C70.9,59.8 70.9,59.8 70.9,59.9L68.5,63.7C68.4,63.8 68.3,63.8 68.2,63.7Z" style="fill:rgb(217,7,84);fill-rule:nonzero;"/>
        </g>
    </g>
</svg>
