<svg width="170" height="170" viewBox="0 0 170 170" xmlns="http://www.w3.org/2000/svg" xmlns:xlink="http://www.w3.org/1999/xlink" xmlns:figma="http://www.figma.com/figma/ns"><title>Facil_icon</title><desc>Created using Figma</desc><use xlink:href="#b" transform="rotate(180 80 78)" fill="url(#c)" filter="url(#a)" figma:type="vector"/><defs><filter id="a" filterUnits="userSpaceOnUse" x="8087" y="870" width="170" height="170" color-interpolation-filters="sRGB"><feFlood flood-opacity="0" result="BackgroundImageFix"/><desc>type=&quot;dropShadow&quot; x=&quot;0&quot; y=&quot;4&quot; size=&quot;10&quot; spread=&quot;0&quot; color=&quot;0.333333,0.0666667,0.247059,0.5&quot; blend=&quot;normal&quot;</desc><feColorMatrix in="SourceAlpha" values="0 0 0 0 0 0 0 0 0 0 0 0 0 0 0 0 0 0 255 0"/><feOffset dy="4"/><feGaussianBlur stdDeviation="5"/><feColorMatrix values="0 0 0 0 0.333333 0 0 0 0 0.0666667 0 0 0 0 0.247059 0 0 0 0.5 0"/><feBlend in2="BackgroundImageFix" result="effect1_dropShadow"/><feBlend in="SourceGraphic" in2="effect1_dropShadow" result="shape"/></filter><linearGradient id="c" x2="1" gradientUnits="userSpaceOnUse" gradientTransform="matrix(0 224 -181.622 84.7568 165.811 -77.378)"><stop offset="0" stop-color="#972874"/><stop offset="1" stop-color="#C90851"/></linearGradient><path id="b" d="M46.062 0v46.062H0v4.839h46.062v48.208H0v4.838h46.062V150h4.839v-46.053h48.198V150h4.839v-46.053H150v-4.838h-46.062V50.9H150v-4.839h-46.062V0h-4.839v46.062H50.901V0h-4.839zm4.839 50.901h48.198v48.208H50.901V50.9zm77.315 6.048c-9.775 0-17.871 8.106-17.871 17.88 0 10.072 8.163 17.872 17.871 17.872 9.708 0 17.881-7.8 17.881-17.871 0-9.775-8.105-17.88-17.881-17.88zm-64.68 3.176l-3.42 3.42L71.578 75 60.115 86.464l3.421 3.42L75 78.422l11.464 11.464 3.42-3.421L78.422 75l11.464-11.454-3.421-3.421L75 71.588 63.536 60.125zm64.68 1.663c7.087 0 13.042 5.955 13.042 13.042 0 7.49-5.888 13.032-13.042 13.032s-13.032-5.542-13.032-13.032c0-7.087 5.946-13.042 13.032-13.042zM74.82 110.345c-9.775 0-17.87 8.106-17.87 17.881s8.096 17.871 17.87 17.871c10.073 0 17.881-8.163 17.881-17.871 0-9.708-7.808-17.881-17.88-17.881zm-63.98 2.817l-3.421 3.421 11.633 11.643L7.42 139.86l3.42 3.421 11.635-11.634 11.643 11.634 3.42-3.421-11.642-11.634 11.643-11.643-3.421-3.421-11.643 11.643-11.634-11.643zm63.98 2.022c7.492 0 13.042 5.888 13.042 13.042s-5.55 13.032-13.042 13.032c-7.086 0-13.032-5.945-13.032-13.032s5.946-13.042 13.032-13.042z"/></defs></svg>