<svg id="Capa_1" xmlns="http://www.w3.org/2000/svg" viewBox="0 0 150 150"><style>.st0{fill:url(#path0_fill_1_)}</style><title>Facil_icon</title><desc>Created using Figma</desc><linearGradient id="path0_fill_1_" gradientUnits="userSpaceOnUse" x1="-325.614" y1="373.771" x2="-324.641" y2="373.771" gradientTransform="matrix(0 -224 -181.622 84.7568 67960.063 -104435.18)"><stop offset="0" stop-color="#972874"/><stop offset="1" stop-color="#c90851"/></linearGradient><path id="path0_fill" class="st0" d="M103.2 148v-44.8H148v-4.7h-44.8v-47H148v-4.7h-44.8V2h-4.7v44.8h-47V2h-4.7v44.8H2v4.7h44.8v46.9H2v4.7h44.8V148h4.7v-44.8h46.9V148h4.8zm-4.7-49.5h-47v-47h46.9v47zm-75.3-5.9c9.5 0 17.4-7.9 17.4-17.4 0-9.8-7.9-17.4-17.4-17.4S5.8 65.4 5.8 75.2c0 9.5 7.9 17.4 17.4 17.4zm63-3.1l3.3-3.3L78.3 75l11.2-11.2-3.3-3.3L75 71.7 63.8 60.5l-3.3 3.3L71.7 75 60.5 86.1l3.3 3.3L75 78.3l11.2 11.2zm-63-1.6c-6.9 0-12.7-5.8-12.7-12.7 0-7.3 5.7-12.7 12.7-12.7 7 0 12.7 5.4 12.7 12.7 0 6.9-5.8 12.7-12.7 12.7zm52-47.3c9.5 0 17.4-7.9 17.4-17.4S84.7 5.8 75.2 5.8c-9.8 0-17.4 7.9-17.4 17.4s7.6 17.4 17.4 17.4zm62.2-2.7l3.3-3.3-11.3-11.3L140.7 12l-3.3-3.3L126.1 20 114.8 8.5l-3.3 3.3 11.3 11.3-11.3 11.3 3.3 3.3 11.3-11.3 11.3 11.5zm-62.2-2c-7.3 0-12.7-5.7-12.7-12.7s5.4-12.7 12.7-12.7c6.9 0 12.7 5.8 12.7 12.7s-5.8 12.7-12.7 12.7z"/></svg>