<svg viewBox="0 0 150 150" xmlns="http://www.w3.org/2000/svg" fill-rule="evenodd" clip-rule="evenodd" stroke-linejoin="round" stroke-miterlimit="1.414"><path d="M75 1C34.405 1 1 34.405 1 75s33.405 74 74 74 74-33.405 74-74S115.595 1 75 1zM17.2 75c.001-31.707 26.093-57.798 57.8-57.798a57.807 57.807 0 0 1 34.53 11.448l-80.88 80.88A57.52 57.52 0 0 1 17.2 75zM75 132.8a57.546 57.546 0 0 1-35.1-11.88l81-81a57.818 57.818 0 0 1 11.853 35.07c0 31.692-26.061 57.778-57.753 57.81z" fill="url(#a)" fill-rule="nonzero" transform="translate(21.305 21.35) scale(.71437)"/><defs><linearGradient id="a" x2="1" gradientUnits="userSpaceOnUse" gradientTransform="matrix(0 148 -148 0 76.46 1.32)"><stop offset="0" stop-color="#d90754"/><stop offset=".01" stop-color="#d90754"/><stop offset="1" stop-color="#950c49"/></linearGradient></defs></svg>