<?xml version="1.0" encoding="UTF-8" standalone="no"?>
<!DOCTYPE svg PUBLIC "-//W3C//DTD SVG 1.1//EN" "http://www.w3.org/Graphics/SVG/1.1/DTD/svg11.dtd">
<svg width="100%" height="100%" viewBox="0 0 150 150" version="1.1" xmlns="http://www.w3.org/2000/svg" xmlns:xlink="http://www.w3.org/1999/xlink" xml:space="preserve" style="fill-rule:evenodd;clip-rule:evenodd;stroke-linejoin:round;stroke-miterlimit:1.41421;">
    <g id="path0_fill" transform="matrix(0.714366,0,0,0.714366,21.3048,21.3495)">
        <path d="M75,1C34.405,1 1,34.405 1,75C1,115.595 34.405,149 75,149C115.595,149 149,115.595 149,75C149,34.405 115.595,1 75,1ZM17.2,75C17.201,43.293 43.293,17.202 75,17.202C87.44,17.202 99.554,21.218 109.53,28.65L28.65,109.53C21.199,99.564 17.18,87.444 17.2,75L17.2,75ZM75,132.8C62.312,132.819 49.968,128.641 39.9,120.92L120.9,39.92C128.587,49.993 132.753,62.319 132.753,74.99C132.753,106.682 106.692,132.768 75,132.8L75,132.8Z" style="fill:url(#_Linear1);fill-rule:nonzero;"/>
    </g>
    <defs>
        <linearGradient id="_Linear1" x1="0" y1="0" x2="1" y2="0" gradientUnits="userSpaceOnUse" gradientTransform="matrix(9.06239e-15,148,-148,9.06239e-15,76.4602,1.32)"><stop offset="0" style="stop-color:rgb(217,7,84);stop-opacity:1"/><stop offset="0.01" style="stop-color:rgb(217,7,84);stop-opacity:1"/><stop offset="1" style="stop-color:rgb(149,12,73);stop-opacity:1"/></linearGradient>
    </defs>
</svg>
