<svg id="Capa_1" xmlns="http://www.w3.org/2000/svg" viewBox="0 0 150 150"><style>.st0{fill:url(#path0_fill_1_)}</style><linearGradient id="path0_fill_1_" gradientUnits="userSpaceOnUse" x1="-323.349" y1="376.154" x2="-322.56" y2="376.154" gradientTransform="matrix(0 226 452.003 0 -169947.625 73098.5)"><stop offset="0" stop-color="#d90754"/><stop offset=".983" stop-color="#972874"/></linearGradient><path id="path0_fill" class="st0" d="M53.7 54.4c0 9.1 7.4 16.5 16.5 16.5s16.5-7.4 16.5-16.5-7.4-16.5-16.5-16.5-16.5 7.4-16.5 16.5zm4.3 0c0-6.7 5.5-12.2 12.2-12.2 6.7 0 12.2 5.4 12.2 12.2S77 66.5 70.2 66.5 58 61.1 58 54.4zm42.5 45.1v-1.9c0-12.5-13-21.9-30.2-21.9C53 75.8 40 85.2 40 97.6l-.2 9.7c0 1.1.4 2.1 1.2 3 1.1 1.2 2.9 1.8 4.8 1.8h18c1.2 0 2.2-1 2.2-2.1 0-1.2-1-2.1-2.2-2.1h-18c-1 0-1.5-.4-1.7-.5l.2-9.6c0-10.1 11.1-17.6 25.9-17.6 14.8 0 25.9 7.6 25.9 17.6v1.8H96v8.3H77.6c-1.2 0-2.2 1-2.2 2.1s1 2.1 2.2 2.1h20.7c1.2 0 2.2-1 2.2-2.1V99.5zm45.4-6.4l.1-1.3c0-7.4-8.1-12.9-19-12.9-10.8 0-19 5.5-19 12.9l-.1 7c.1.1.6.4 1.3.4h13.2c.9 0 1.6.7 1.6 1.6s-.7 1.6-1.6 1.6h-13.2c-1.4 0-2.7-.5-3.5-1.3-.6-.6-.9-1.4-.9-2.2l.1-7.1c0-9.1 9.5-16 22.1-16s22.1 6.9 22.1 16v9c0 .9-.7 1.6-1.6 1.6h-15.2c-.9 0-1.6-.7-1.6-1.6s.7-1.6 1.6-1.6h13.5v-6.1zm-31-33c0 6.7 5.4 12 12.1 12 6.6 0 12.1-5.4 12.1-12s-5.4-12-12.1-12c-6.6-.1-12.1 5.3-12.1 12zm3.2 0c0-4.9 4-8.9 8.9-8.9s8.9 4 8.9 8.9-4 8.9-8.9 8.9-8.9-4-8.9-8.9zm-68.8 10v-.6c0-3.2-3.4-5.6-7.9-5.6s-7.9 2.4-7.9 5.5l-.1 3c.1.1.2.2.5.2h5.5c.4 0 .7.3.7.7 0 .4-.3.7-.7.7h-5.5c-.6 0-1.1-.2-1.5-.6-.3-.3-.4-.6-.4-.9l.1-3c0-3.9 3.9-6.9 9.2-6.9 5.2 0 9.2 3 9.2 6.9v3.9c0 .4-.3.7-.7.7h-6.3c-.4 0-.7-.3-.7-.7 0-.4.3-.7.7-.7h5.6v-2.6zM36.5 55.9c0 2.9 2.3 5.2 5 5.2 2.8 0 5-2.3 5-5.2s-2.2-5.2-5-5.2-5 2.4-5 5.2zm1.3 0c0-2.1 1.7-3.8 3.7-3.8s3.7 1.7 3.7 3.8c0 2.1-1.7 3.8-3.7 3.8-2.1 0-3.7-1.7-3.7-3.8zm70 6.8v-.5c0-3-3.3-5.3-7.6-5.3s-7.6 2.3-7.6 5.3l-.1 2.8c.1.1.2.2.5.2h5.3c.3 0 .6.3.6.6s-.3.6-.6.6H93c-.6 0-1.1-.2-1.4-.5-.2-.2-.4-.6-.4-.9l.1-2.9c0-3.7 3.8-6.6 8.9-6.6 5.1 0 8.9 2.8 8.9 6.6v3.7c0 .4-.3.6-.6.6h-6.1c-.3 0-.6-.3-.6-.6 0-.4.3-.6.6-.6h5.4v-2.5zM95.3 49.2c0 2.7 2.2 4.9 4.9 4.9s4.9-2.2 4.9-4.9-2.2-4.9-4.9-4.9-4.9 2.1-4.9 4.9zm1.3 0c0-2 1.6-3.7 3.6-3.7s3.6 1.6 3.6 3.7c0 2-1.6 3.7-3.6 3.7-2-.1-3.6-1.7-3.6-3.7zM29.9 89.8v-.9c0-5.2-5.8-9.2-13.4-9.2-7.7 0-13.4 3.9-13.4 9.1l-.1 5c.1.1.4.3.9.3h9.3c.6 0 1.1.5 1.1 1.1 0 .6-.5 1.1-1.1 1.1H4c-1 0-1.9-.3-2.5-.9-.4-.4-.7-1-.6-1.5l.1-5c0-6.5 6.7-11.4 15.6-11.4 8.9 0 15.6 4.9 15.6 11.4v6.4c0 .6-.5 1.1-1.1 1.1H20.5c-.6 0-1.1-.5-1.1-1.1 0-.6.5-1.1 1.1-1.1H30v-4.4zM8 66.3c0 4.7 3.8 8.6 8.5 8.6s8.5-3.8 8.5-8.6-3.8-8.6-8.5-8.6c-4.6.1-8.5 3.9-8.5 8.6zm2.3 0c0-3.5 2.8-6.3 6.3-6.3s6.3 2.8 6.3 6.3-2.8 6.3-6.3 6.3c-3.5.1-6.3-2.8-6.3-6.3z"/></svg>