<svg viewBox="0 0 150 150" xmlns="http://www.w3.org/2000/svg" fill-rule="evenodd" clip-rule="evenodd" stroke-linejoin="round" stroke-miterlimit="1.414"><path d="M38.829 1.73c5.92 2.256 10.187 6.197 13.497 11.51 3.93 5.768 4.644 15.81 1.943 22.887-4.846 12.701-18.272 19.53-31.093 16.455L17.39 67.748l6.299 2.399c1.763.671 2.657 2.676 1.982 4.446-.675 1.77-2.678 2.67-4.442 2l-6.298-2.4-1.905 4.992c-.675 1.77-2.678 2.671-4.441 2-1.764-.672-2.658-2.677-1.983-4.447l1.905-4.992-6.298-2.399C.444 68.676-.45 66.671.225 64.901c.675-1.77 2.679-2.67 4.442-1.999l6.298 2.399 5.787-15.166C5.136 43.902-.308 29.814 4.514 17.175 9.746 3.464 25.162-3.474 38.829 1.732V1.73zM10.875 19.6c-3.906 10.236 1.186 21.657 11.39 25.543 10.202 3.886 21.611-1.249 25.517-11.486C51.688 23.42 46.596 12 36.393 8.113 26.19 4.226 14.781 9.362 10.875 19.599v.001zm82.94 70.1c5.917-2.261 11.725-2.164 17.733-.406 6.774 1.682 13.995 8.697 16.696 15.774 4.846 12.701-.618 26.737-12.228 32.986l5.786 15.165 6.296-2.406c1.762-.674 3.765.226 4.44 1.995.675 1.769-.218 3.776-1.981 4.45l-6.295 2.406 1.905 4.992c.674 1.77-.219 3.777-1.981 4.45-1.763.674-3.765-.226-4.441-1.995l-1.905-4.992-6.295 2.406c-1.763.674-3.765-.226-4.44-1.995-.675-1.769.218-3.776 1.981-4.45l6.295-2.406-5.787-15.166c-12.816 3.089-26.26-3.791-31.083-16.429-5.233-13.712 1.642-29.156 15.304-34.378V89.7zm-8.946 31.948c3.906 10.237 15.312 15.363 25.51 11.464 10.198-3.898 15.287-15.328 11.38-25.565-3.905-10.237-15.311-15.362-25.51-11.464-10.198 3.898-15.286 15.329-11.38 25.565zM47.282 87.774c-1.965.416-3.122 2.459-2.437 4.445.59 1.54 2.305 2.443 3.89 2.108l3.55-.752-10.529 16.281c-5.13-2.644-11.09-3.581-17.111-2.307-13.946 2.951-22.877 16.763-19.91 30.787 2.725 12.877 14.626 21.547 27.324 20.525 3.11-.325 6.529-1.381 6.529-1.381 12.087-4.223 19.456-16.971 16.731-29.848-1.187-5.61-4.118-10.384-8.05-13.947l10.628-16.436.593 2.805c.35 1.658 1.802 2.883 3.49 2.725 2.083-.174 3.47-2.066 3.052-4.042l-2.495-11.793a2.337 2.337 0 0 0-2.768-1.812l-12.487 2.642zm-11.578 63.589c-11.51 3.502-23.35-4.25-24.754-16.207-1.091-9.226 4.597-18.022 13.373-20.679 11.51-3.501 23.35 4.25 24.754 16.207 1.092 9.227-4.597 18.023-13.373 20.679zM134.451 9.59c.252-2.086 2.186-3.417 4.136-2.931l12.385 3.085a2.336 2.336 0 0 1 1.696 2.84l-2.914 11.697c-.488 1.96-2.564 3.055-4.513 2.3-1.587-.597-2.357-2.333-1.947-3.976l.693-2.782-16.746 10.13c1.978 4.925 2.525 10.5 1.139 16.064-3.182 12.772-15.384 21.013-28.101 19.523 0 0-3.536-.545-6.475-1.613-11.866-4.635-18.776-17.638-15.594-30.41 3.465-13.909 17.539-22.422 31.37-18.976 5.973 1.488 10.923 4.937 14.379 9.558l16.588-10.035-3.52-.877c-1.572-.392-2.719-1.954-2.576-3.597zM85.19 33.376c-3.968 11.367 3.288 23.516 15.171 25.403 9.054 1.45 18.017-3.973 21.071-12.747 3.967-11.367-3.289-23.516-15.172-25.402-9.054-1.45-18.017 3.972-21.07 12.746z" fill="url(#a)" transform="translate(9 -.001) scale(.88585)"/><defs><linearGradient id="a" x2="1" gradientUnits="userSpaceOnUse" gradientTransform="rotate(90 76.309 76.26) scale(169.379)"><stop offset="0" stop-color="#d90754"/><stop offset="1" stop-color="#972874"/></linearGradient></defs></svg>