<?xml version="1.0" encoding="UTF-8" standalone="no"?>
<!DOCTYPE svg PUBLIC "-//W3C//DTD SVG 1.1//EN" "http://www.w3.org/Graphics/SVG/1.1/DTD/svg11.dtd">
<svg width="100%" height="100%" viewBox="0 0 173 190" version="1.1" xmlns="http://www.w3.org/2000/svg" xmlns:xlink="http://www.w3.org/1999/xlink" xml:space="preserve" style="fill-rule:evenodd;clip-rule:evenodd;stroke-linejoin:round;stroke-miterlimit:1.41421;">
    <g id="b" transform="matrix(1,0,0,1,10,6)">
        <path d="M38.829,1.73C44.749,3.986 49.016,7.927 52.326,13.24C56.256,19.008 56.97,29.05 54.269,36.127C49.423,48.828 35.997,55.657 23.176,52.582L17.39,67.748L23.689,70.147C25.452,70.818 26.346,72.823 25.671,74.593C24.996,76.363 22.993,77.263 21.229,76.593L14.931,74.193L13.026,79.185C12.351,80.955 10.348,81.856 8.585,81.185C6.821,80.513 5.927,78.508 6.602,76.738L8.507,71.746L2.209,69.347C0.444,68.676 -0.45,66.671 0.225,64.901C0.9,63.131 2.904,62.231 4.667,62.902L10.965,65.301L16.752,50.135C5.136,43.902 -0.308,29.814 4.514,17.175C9.746,3.464 25.162,-3.474 38.829,1.732L38.829,1.73ZM10.875,19.6C6.969,29.836 12.061,41.257 22.265,45.143C32.467,49.029 43.876,43.894 47.782,33.657C51.688,23.42 46.596,12 36.393,8.113C26.19,4.226 14.781,9.362 10.875,19.599L10.875,19.6ZM93.815,89.7C99.732,87.439 105.54,87.536 111.548,89.294C118.322,90.976 125.543,97.991 128.244,105.068C133.09,117.769 127.626,131.805 116.016,138.054L121.802,153.219L128.098,150.813C129.86,150.139 131.863,151.039 132.538,152.808C133.213,154.577 132.32,156.584 130.557,157.258L124.262,159.664L126.167,164.656C126.841,166.426 125.948,168.433 124.186,169.106C122.423,169.78 120.421,168.88 119.745,167.111L117.84,162.119L111.545,164.525C109.782,165.199 107.78,164.299 107.105,162.53C106.43,160.761 107.323,158.754 109.086,158.08L115.381,155.674L109.594,140.508C96.778,143.597 83.334,136.717 78.511,124.079C73.278,110.367 80.153,94.923 93.815,89.701L93.815,89.7ZM84.869,121.648C88.775,131.885 100.181,137.011 110.379,133.112C120.577,129.214 125.666,117.784 121.759,107.547C117.854,97.31 106.448,92.185 96.249,96.083C86.051,99.981 80.963,111.412 84.869,121.648ZM47.282,87.774C45.317,88.19 44.16,90.233 44.845,92.219C45.435,93.759 47.15,94.662 48.735,94.327L52.285,93.575L41.756,109.856C36.626,107.212 30.666,106.275 24.645,107.549C10.699,110.5 1.768,124.312 4.735,138.336C7.46,151.213 19.361,159.883 32.059,158.861C35.169,158.536 38.588,157.48 38.588,157.48C50.675,153.257 58.044,140.509 55.319,127.632C54.132,122.022 51.201,117.248 47.269,113.685L57.897,97.249L58.49,100.054C58.84,101.712 60.292,102.937 61.98,102.779C64.063,102.605 65.45,100.713 65.032,98.737L62.537,86.944C62.316,85.864 61.357,85.081 60.254,85.081C60.091,85.081 59.929,85.098 59.769,85.132L47.282,87.774L47.282,87.774ZM35.704,151.363C24.194,154.865 12.354,147.113 10.95,135.156C9.859,125.93 15.547,117.134 24.323,114.477C35.833,110.976 47.673,118.727 49.077,130.684C50.169,139.911 44.48,148.707 35.704,151.363L35.704,151.363ZM134.451,9.59C134.703,7.504 136.637,6.173 138.587,6.659L150.972,9.744C152.008,10.001 152.741,10.938 152.741,12.005C152.741,12.201 152.716,12.395 152.668,12.584L149.754,24.281C149.266,26.241 147.19,27.336 145.241,26.581C143.654,25.984 142.884,24.248 143.294,22.605L143.987,19.823L127.241,29.953C129.219,34.878 129.766,40.453 128.38,46.017C125.198,58.789 112.996,67.03 100.279,65.54C100.279,65.54 96.743,64.995 93.804,63.927C81.938,59.292 75.028,46.289 78.21,33.517C81.675,19.608 95.749,11.095 109.58,14.541C115.553,16.029 120.503,19.478 123.959,24.099L140.547,14.064L137.027,13.187C135.455,12.795 134.308,11.233 134.451,9.59L134.451,9.59ZM85.19,33.376C81.222,44.743 88.478,56.892 100.361,58.779C109.415,60.229 118.378,54.806 121.432,46.032C125.399,34.665 118.143,22.516 106.26,20.63C97.206,19.18 88.243,24.602 85.19,33.376Z" style="fill:url(#_Linear1);"/>
    </g>
    <defs>
        <linearGradient id="_Linear1" x1="0" y1="0" x2="1" y2="0" gradientUnits="userSpaceOnUse" gradientTransform="matrix(1.03715e-14,169.379,-169.379,1.03715e-14,152.568,-0.0497053)"><stop offset="0" style="stop-color:rgb(217,7,84);stop-opacity:1"/><stop offset="1" style="stop-color:rgb(151,40,116);stop-opacity:1"/></linearGradient>
    </defs>
</svg>
