<?xml version="1.0" encoding="UTF-8" standalone="no"?>
<!DOCTYPE svg PUBLIC "-//W3C//DTD SVG 1.1//EN" "http://www.w3.org/Graphics/SVG/1.1/DTD/svg11.dtd">
<svg width="100%" height="100%" viewBox="0 0 240 196" version="1.1" xmlns="http://www.w3.org/2000/svg" xmlns:xlink="http://www.w3.org/1999/xlink" xml:space="preserve" style="fill-rule:evenodd;clip-rule:evenodd;stroke-linejoin:round;stroke-miterlimit:1.41421;">
    <g id="b" transform="matrix(1,0,0,1,15.5,11)">
        <path d="M103.501,0C84.447,0 69.001,15.446 69.001,34.5C69.001,39.302 70.88,45.415 73.699,51.841C76.522,58.274 80.32,65.094 84.202,71.307C88.084,77.52 92.068,83.157 95.264,87.231C96.864,89.271 98.278,90.934 99.383,92.081C99.939,92.659 100.435,93.124 100.832,93.437C101.037,93.597 101.241,93.735 101.408,93.825C101.576,93.915 101.783,94 102.001,94C102.215,94 102.424,93.916 102.595,93.829C102.803,93.717 103.003,93.588 103.191,93.445C103.61,93.133 104.139,92.671 104.735,92.095C105.921,90.948 107.453,89.285 109.193,87.246C112.67,83.173 117.03,77.537 121.288,71.324C125.545,65.112 129.721,58.292 132.826,51.858C135.927,45.432 138.001,39.312 138.001,34.5C138.001,15.446 122.555,0 103.501,0L103.501,0ZM81.001,34.5C81.001,22.074 91.074,12 103.501,12C115.927,12 126.001,22.074 126.001,34.5C126.001,46.926 115.927,57 103.501,57C91.074,57 81.001,46.926 81.001,34.5ZM171.296,138.383C167.037,136.059 162.678,133.922 158.232,131.979C158.092,132.129 157.926,132.32 157.778,132.521C157.683,132.651 157.61,132.761 157.556,132.87C157.524,132.93 157.514,132.971 157.508,132.991C157.504,133.004 157.503,133.008 157.501,133C157.497,133.197 157.418,133.385 157.28,133.525C157.19,133.62 157.048,133.727 156.923,133.8C156.636,133.954 156.333,134.076 156.02,134.166C155.476,134.326 154.918,134.432 154.353,134.484C154.469,134.686 154.643,134.935 154.836,135.211C154.984,135.422 155.137,135.639 155.252,135.827C155.311,135.924 155.37,136.033 155.41,136.123C155.466,136.241 155.497,136.369 155.501,136.5L155.501,139.09L154.919,138.993L151.919,138.493L151.798,138.473L151.701,138.4L149.983,137.112L147.407,138.83L146.465,141.186L146.339,141.5L142.162,141.5L142.036,141.186L141.041,138.697L141.036,138.686L139.541,135.197L139.501,135.103L139.501,133.686C139.065,133.822 138.555,133.974 138.056,134.108C137.324,134.304 136.544,134.485 136.06,134.499C136.057,134.56 136.061,134.621 136.071,134.681C136.117,135.038 136.29,135.462 136.448,135.776L136.727,136.334L136.122,136.485L134.122,136.985L133.673,137.097L133.526,136.658L133.092,135.355L131.6,134.608L130.171,136.037L131.892,138.188L132.001,138.325L132.001,142.077L131.43,141.995L127.93,141.495L127.501,141.434L127.501,136.207L124.578,133.285L124.078,134.036L124.448,134.776L124.609,135.099L124.355,135.354L122.855,136.854L122.636,137.072L122.343,136.974L120.843,136.474L120.809,136.463L120.777,136.447L119.172,135.645L118.613,136.483L119.88,138.172L121.136,139.428L123.843,138.526L124.501,138.306L124.501,142.047L124.492,142.092L122.992,150.092L122.782,151.209L122.101,150.3L120.98,148.806L116.385,154.32L116.353,154.359L116.314,154.39L114.2,156.081L119.394,162.691L120.029,163.5L108.233,163.5L108.085,163.277L105.233,159L98.176,159L98.044,158.703L96.044,154.203L96.001,154.106L96.001,152C96.001,151.655 96.233,151.409 96.374,151.277C96.531,151.131 96.74,150.982 96.941,150.839C97.421,150.497 97.853,150.176 98.054,149.776C98.16,149.563 98.151,149.421 98.119,149.306C98.083,149.162 97.999,149.042 97.889,148.886L97.853,148.835C97.775,148.728 97.703,148.616 97.638,148.5C97.56,148.344 97.513,148.174 97.501,148L97.501,145.603L96.041,142.197L96.001,142.103L96.001,142C96,141.465 95.968,140.931 95.904,140.4C95.877,140.149 95.831,139.9 95.766,139.655C95.74,139.563 95.703,139.475 95.657,139.392C95.639,139.357 95.631,139.342 95.647,139.354C95.377,139.084 94.875,138.772 94.517,138.574L92.655,139.691L93.448,141.276L93.501,141.382L93.501,142.93C93.667,143.52 93.886,144.379 94.018,145.098C94.086,145.474 94.135,145.845 94.138,146.113C94.144,146.263 94.125,146.412 94.082,146.556C94.048,146.66 93.991,146.754 93.914,146.831C93.804,146.939 93.655,147 93.501,147C93.281,147 93.072,146.915 92.918,146.836C92.748,146.746 92.585,146.643 92.43,146.528C92.234,146.381 92.044,146.224 91.863,146.059L88.638,146.981L88.001,147.163L88.001,144.839L85.815,143.964L85.564,143.864L85.511,143.598L85.024,141.164L84.128,139.373L82.278,138.447L81.656,138.137L82.147,137.646L83.319,136.474L80.854,133.597L78.687,134.464L78.282,134.626L78.066,134.248L76.066,130.748L76.001,130.633L76.001,128L73.001,128L73.601,127.2L76.98,122.695C66.656,124.719 56.573,127.816 46.893,131.936L47.39,132.682L49.708,135L53.001,135L53.001,141.809L52.725,141.947L50.725,142.947L50.501,143.059L50.277,142.947L48.277,141.947L48.001,141.809L48.001,138.783L46.078,137.63L45.001,138.707L45.001,141.877L44.638,141.981L41.501,142.877L41.501,144L44.652,144L46.278,145.084L46.951,145.533L46.249,145.934L43.001,147.79L43.001,151L39.001,151L39.001,148.809L38.001,148.309L38.001,150.809L37.725,150.947L35.725,151.947L35.619,152L34.154,152L34.032,151.676L32.806,148.405C32.03,149.339 31,151.231 31,154L31,156.707L30.146,155.854L28.922,154.63L26.902,155.842L25.964,158.186L25.753,158.713L25.257,158.437L20.757,155.937L20.283,155.674L20.584,155.223L21.438,153.942L20.535,151.686L20.5,151.596L20.5,151.362L17.748,152.934L17.364,153.153L17.1,152.8L15.625,150.833C9.988,155.789 6.345,160.509 4.83,164.406C4.461,165.373 3.529,166.015 2.494,166.015C1.123,166.015 -0.006,164.887 -0.006,163.515C-0.006,163.2 0.054,162.887 0.17,162.594C2.13,157.551 6.548,152.107 12.604,146.833C18.648,141.576 26.673,136.216 35.941,131.52C54.423,122.176 78.737,115.026 104.499,115C130.332,115.037 155.052,123.843 173.688,133.992C183.031,139.089 191.045,144.616 196.982,149.536C202.864,154.413 207.128,159.019 208.755,162.422C208.916,162.759 209,163.127 209,163.5C209,164.872 207.871,166.001 206.5,166.001C205.538,166.001 204.659,165.446 204.244,164.579C203.122,162.231 199.612,158.212 193.791,153.385C188.027,148.602 180.412,143.348 171.295,138.383L171.296,138.383Z" style="fill:url(#_Linear1);"/>
    </g>
    <defs>
        <linearGradient id="_Linear1" x1="0" y1="0" x2="1" y2="0" gradientUnits="userSpaceOnUse" gradientTransform="matrix(1.2257e-14,200.172,-200.172,1.2257e-14,229.775,-20.6718)"><stop offset="0" style="stop-color:rgb(201,8,81);stop-opacity:1"/><stop offset="1" style="stop-color:rgb(151,40,116);stop-opacity:1"/></linearGradient>
    </defs>
</svg>
