<svg id="Capa_1" xmlns="http://www.w3.org/2000/svg" viewBox="0 0 150 150"><style>.st0{fill:url(#path0_fill_1_)}</style><title>ubicación_icon</title><desc>Created using Figma</desc><linearGradient id="path0_fill_1_" gradientUnits="userSpaceOnUse" x1="-322.81" y1="376.614" x2="-322.121" y2="376.614" gradientTransform="matrix(0 199 250.549 0 -94285.148 64243.5)"><stop offset="0" stop-color="#c90851"/><stop offset="1" stop-color="#972874"/></linearGradient><path id="path0_fill" class="st0" d="M74.3 17.8c-13.1 0-23.8 10.6-23.8 23.8 0 3.3 1.3 7.5 3.2 11.9 1.9 4.4 4.6 9.1 7.2 13.4 2.7 4.3 5.4 8.2 7.6 11 1.1 1.4 2.1 2.6 2.8 3.3.4.4.7.7 1 .9.1.1.3.2.4.3.1.1.3.1.4.1.1 0 .3-.1.4-.1.1-.1.3-.2.4-.3.3-.2.7-.5 1.1-.9.8-.8 1.9-1.9 3.1-3.3 2.4-2.8 5.4-6.7 8.3-11 2.9-4.3 5.8-9 7.9-13.4 2.1-4.4 3.6-8.6 3.6-12 .2-13-10.5-23.7-23.6-23.7zM58.8 41.6c0-8.6 6.9-15.5 15.5-15.5S89.8 33 89.8 41.6s-6.9 15.5-15.5 15.5-15.5-7-15.5-15.5zm62.2 71.6c-2.8-1.5-5.8-3-9-4.4-.1.1-.2.2-.3.4-.1.1-.1.2-.2.2v.1c0 .2-.1.3-.2.4-.1.1-.2.1-.2.2l-.6.3c-.4.1-.8.2-1.1.2.1.1.2.3.3.5.1.1.2.3.3.4 0 .1.1.1.1.2s.1.2.1.3v1.8l-.4-.1-2.1-.3h-.1l-.1-.1-1.2-.9-1.8 1.2-.6 1.6-.1.2H101l-.1-.2-.7-1.7-1-2.4V110c-.3.1-.7.2-1 .3-.5.1-1 .3-1.4.3v.1c0 .2.2.5.3.8l.2.4-.4.1-1.4.3-.3.1-.2-.4-.3-.9-1-.5-1 1 1.2 1.5.1.1v2.6l-.4-.1-2.4-.3h-.3v-3.7l-2-2-.3.5.3.5.1.2-.2.2-1 1-.2.2-.2-.1-1-.3-1.1-.6-.4.6.9 1.2.9.9 1.9-.6.5-.2v2.6l-1 5.5-.1.8-.5-.6-.8-1-3.2 3.8-1.5 1.2 3.6 4.6.4.6h-8.4l-.1-.2-2-2.9h-4.8l-.1-.2-1.4-3.1v-1.6c0-.2.2-.4.3-.5.1-.1.3-.2.4-.3.3-.2.6-.5.8-.7.1-.1.1-.2 0-.3 0-.1-.1-.2-.2-.3 0-.1-.1-.1-.1-.2s-.1-.2-.1-.3v-1.7l-1-2.3v-.2c0-.3 0-.7-.1-1.1 0-.2-.1-.4-.1-.5 0-.1-.1-.1-.1-.2-.2-.2-.5-.4-.8-.5l-1.3.8.5 1.1v1.2c.1.4.3 1 .4 1.5 0 .3.1.5.1.7v.3c0 .1-.1.1-.1.2-.1.1-.2.1-.3.1-.2 0-.3-.1-.4-.1-.1-.1-.2-.1-.3-.2-.1-.1-.3-.2-.4-.3l-2.2.6-.4.1V118l-1.5-.6-.2-.1v-.2l-.3-1.7-.6-1.2-1.3-.6-.4-.2.3-.3.8-.8-1.7-2-1.5.6-.3.1-.1-.3-1.4-2.4V106h-2.3l.4-.6 2.3-3.1c-7.5 1.5-14.4 3.7-20.7 6.4l.3.5 1.6 1.6h2.2v4.7l-.2.1-1.4.7-.2.1-.2-.1-1.4-.7-.2-.1v-2.1l-1.3-.8-.7.7v2.2l-.3.1-2.2.6v.8h2.2l.1.1 1 .7.5.3-.5.3-2.2 1.3v2.2h-2.7v-1.5l-.7-.3v1.7l-.2.1-1.4.7h-1.1l-.1-.2-.8-2.3c-.5.6-1.2 1.9-1.2 3.9v1.8l-.6-.6-.8-.8-1.4.8-.6 1.6-.1.4-.3-.2-3.1-1.7-.3-.2.2-.3.6-.9-.6-1.6v-.3l-1.9 1.1-.3.2-.2-.2-1-1.4c-3.9 3.4-6.4 6.7-7.4 9.4-.3.9-1.3 1.3-2.2 1-.9-.3-1.3-1.3-1-2.2 1.4-3.5 4.4-7.2 8.6-10.9 4.2-3.6 9.7-7.3 16.1-10.6C40.5 102 57.3 97.1 75 97c17.8 0 34.8 6.1 47.7 13.1 6.4 3.5 12 7.3 16 10.7 4.1 3.4 7 6.5 8.1 8.9.4.9 0 1.9-.8 2.3-.9.4-1.9 0-2.3-.8-.8-1.6-3.2-4.4-7.2-7.7s-9.2-6.9-15.5-10.3z"/></svg>