<svg viewBox="0 0 147 156" xmlns="http://www.w3.org/2000/svg" fill-rule="evenodd" clip-rule="evenodd" stroke-linejoin="round" stroke-miterlimit="1.414"><path d="M32.459 34.971a30.98 30.98 0 0 1 3.603-14.55c10.626.381 19.892 6.111 25.193 14.584a34.845 34.845 0 0 0-4.114 16.48c0 2.241.21 4.433.613 6.556a34.772 34.772 0 0 0-21.669-8.476 30.983 30.983 0 0 1-3.626-14.594zm27.283 30.86c-4.954-6.586-12.464-11.136-21.052-12.174 4.955 6.586 12.464 11.136 21.052 12.174zm-31.17-30.86a34.885 34.885 0 0 0 3.232 14.713c-10.394.924-19.478 6.405-25.246 14.433a31.013 31.013 0 0 1-2.67-12.631c0-16.066 12.168-29.28 27.773-30.916a34.882 34.882 0 0 0-3.09 14.401h.001zm5.269 18.48c-10.63.367-19.903 6.086-25.214 14.552 5.311 8.464 14.584 14.182 25.212 14.55C38.019 75.838 44.41 70.647 51.992 68c-7.58-2.648-13.971-7.838-18.151-14.55v.001zm25.901 16.717c-8.589 1.039-16.098 5.59-21.053 12.178 8.588-1.039 16.1-5.59 21.053-12.178zm-27.94 16.15c-10.392-.922-19.476-6.402-25.244-14.43a31.026 31.026 0 0 0-2.668 12.63c0 16.065 12.168 29.279 27.772 30.914a34.891 34.891 0 0 1-3.09-14.403 34.884 34.884 0 0 1 3.23-14.71v-.001zm4.263 29.265a30.987 30.987 0 0 1-3.606-14.554c0-5.274 1.31-10.24 3.624-14.59a34.768 34.768 0 0 0 21.67-8.48 35.281 35.281 0 0 0-.612 6.558c0 5.96 1.489 11.571 4.115 16.483-5.3 8.471-14.566 14.201-25.191 14.583zm-2.247 3.888C15.04 118.882.002 103.455.002 84.517a34.853 34.853 0 0 1 4.132-16.514A34.855 34.855 0 0 1 0 51.486C0 32.548 15.038 17.12 33.816 16.532 39.98 6.608 50.968 0 63.501 0c12.533 0 23.522 6.608 29.685 16.532C111.965 17.122 127 32.548 127 51.486A34.865 34.865 0 0 1 122.867 68 34.854 34.854 0 0 1 127 84.517c0 18.938-15.036 34.365-33.815 34.954C87.022 129.393 76.033 136 63.5 136c-12.531 0-23.52-6.607-29.683-16.529h.001zm54.785-.152c-5.645 7.756-14.787 12.795-25.102 12.795-10.316 0-19.457-5.039-25.103-12.795 10.371-1.023 19.408-6.586 25.103-14.676 5.696 8.09 14.732 13.653 25.102 14.676zm6.737-3.887c15.604-1.635 27.772-14.849 27.772-30.915 0-4.497-.953-8.77-2.669-12.63-5.767 8.028-14.851 13.508-25.244 14.432a34.871 34.871 0 0 1 3.232 14.71 34.876 34.876 0 0 1-3.091 14.403zm-4.421-28.993a30.99 30.99 0 0 1 3.624 14.59 30.987 30.987 0 0 1-3.606 14.554c-10.624-.382-19.89-6.112-25.19-14.583a34.857 34.857 0 0 0 4.114-16.483c0-2.24-.21-4.432-.613-6.556a34.774 34.774 0 0 0 21.67 8.478h.001zm-23.661-16.27c4.954 6.588 12.466 11.14 21.056 12.177-4.956-6.589-12.466-11.14-21.056-12.178v.001zm25.905 12.383C88.983 75.84 82.593 70.648 75.011 68c7.58-2.648 13.971-7.838 18.151-14.55 10.628.368 19.9 6.087 25.212 14.551-5.311 8.465-14.583 14.183-25.21 14.551h-.001zm-32.135 1.965c0 4.323.881 8.439 2.473 12.179a31.02 31.02 0 0 0 2.473-12.179c0-4.322-.881-8.439-2.473-12.178a31.037 31.037 0 0 0-2.473 12.178zm62.084-33.031c0-16.065-12.168-29.279-27.771-30.915a34.893 34.893 0 0 1 3.09 14.4c0 5.256-1.159 10.24-3.233 14.713 10.394.924 19.477 6.404 25.245 14.431a31.01 31.01 0 0 0 2.669-12.63v.001zm-34.8 2.171c-4.955 6.586-12.463 11.136-21.051 12.174 4.954-6.586 12.463-11.136 21.05-12.174h.001zm2.605-4.092a34.767 34.767 0 0 0-21.67 8.479c.401-2.124.612-4.317.612-6.558 0-5.96-1.488-11.57-4.114-16.481 5.3-8.473 14.569-14.204 25.194-14.585a30.985 30.985 0 0 1 3.604 14.551 30.983 30.983 0 0 1-3.626 14.594zM63.5 31.36c-5.695-8.09-14.733-13.654-25.105-14.677C44.04 8.927 53.185 3.886 63.502 3.886c10.316 0 19.46 5.04 25.105 12.798-10.372 1.022-19.41 6.586-25.106 14.677l-.001-.001zm-2.472 20.125c0-4.322.881-8.437 2.472-12.177a31.03 31.03 0 0 1 2.472 12.177c0 4.322-.881 8.437-2.472 12.176a31.04 31.04 0 0 1-2.472-12.176z" fill="url(#a)" transform="translate(10 6)"/><defs><linearGradient id="a" x2="1" gradientUnits="userSpaceOnUse" gradientTransform="rotate(90 122.922 93.248) scale(326.992)"><stop offset="0" stop-color="#d90754"/><stop offset=".98" stop-color="#972874"/><stop offset="1" stop-color="#972874"/></linearGradient></defs></svg>