<?xml version="1.0" encoding="UTF-8" standalone="no"?>
<!DOCTYPE svg PUBLIC "-//W3C//DTD SVG 1.1//EN" "http://www.w3.org/Graphics/SVG/1.1/DTD/svg11.dtd">
<svg width="100%" height="100%" viewBox="0 0 269 153" version="1.1" xmlns="http://www.w3.org/2000/svg" xmlns:xlink="http://www.w3.org/1999/xlink" xml:space="preserve" style="fill-rule:evenodd;clip-rule:evenodd;stroke-linejoin:round;stroke-miterlimit:1.41421;">
    <g id="b" transform="matrix(1,0,0,1,10,6)">
        <path d="M115.184,54.627C100.112,54.627 87.781,42.395 87.781,27.313C87.781,12.233 100.053,0 115.184,0C130.315,0 142.587,12.232 142.587,27.314C142.587,42.395 130.256,54.627 115.184,54.627L115.184,54.627ZM115.184,7.125C104.044,7.125 94.93,16.151 94.93,27.314C94.93,38.476 103.984,47.502 115.184,47.502C126.384,47.502 135.438,38.476 135.438,27.313C135.438,16.151 126.324,7.125 115.184,7.125L115.184,7.125ZM165.388,102.243L165.403,102.243L165.402,103.257C165.404,103.264 165.403,103.272 165.403,103.28L165.403,119.108L165.379,119.108C165.395,119.245 165.403,119.384 165.403,119.526C165.403,121.485 163.795,123.088 161.829,123.088L128.579,123.088C128.163,123.762 128.021,124.571 128.182,125.346C128.376,126.285 128.124,127.263 127.501,127.992C126.883,128.716 125.958,129.108 125.008,129.049C123.676,128.968 122.438,129.772 121.971,131.022C121.633,131.915 120.897,132.601 119.982,132.875C119.07,133.146 118.082,132.97 117.319,132.401C116.251,131.606 114.777,131.606 113.709,132.401C112.946,132.97 111.957,133.146 111.045,132.875C110.13,132.602 109.394,131.915 109.057,131.022C108.59,129.771 107.352,128.967 106.02,129.049C105.07,129.108 104.145,128.716 103.526,127.992C102.903,127.263 102.652,126.285 102.846,125.346C103.01,124.551 102.853,123.746 102.448,123.089L74.735,123.089C71.578,123.089 68.659,122.02 66.753,120.06C65.382,118.695 64.668,116.913 64.727,115.132L65.025,99.1C65.025,78.437 86.59,62.82 115.184,62.82C143.778,62.82 165.343,78.437 165.343,99.16L165.388,102.243ZM101.384,115.963C101.637,115.168 101.56,114.304 101.17,113.566C100.721,112.718 100.69,111.709 101.085,110.835C101.476,109.964 102.253,109.325 103.183,109.11C104.485,108.806 105.446,107.685 105.548,106.352C105.622,105.398 106.137,104.531 106.938,104.008C107.738,103.488 108.732,103.376 109.626,103.704C110.877,104.161 112.291,103.742 113.09,102.676C113.662,101.914 114.561,101.464 115.514,101.463C116.464,101.463 117.36,101.912 117.937,102.676C118.736,103.742 120.15,104.161 121.401,103.704C122.294,103.376 123.292,103.489 124.089,104.008C124.891,104.531 125.405,105.398 125.479,106.352C125.58,107.686 126.541,108.807 127.844,109.11C128.77,109.323 129.547,109.96 129.941,110.834C130.336,111.708 130.305,112.718 129.856,113.566C129.467,114.304 129.39,115.168 129.643,115.963L158.062,115.963L158.062,102.243L158.237,102.243L158.194,99.219C158.194,82.534 139.727,69.946 115.184,69.946C90.641,69.946 72.174,82.475 72.174,99.159L71.876,115.073C72.174,115.37 73.126,115.963 74.736,115.963L101.384,115.963ZM113.928,122.75L113.118,121.99L107.647,116.863L109.231,115.065L113.928,119.42L121.755,111.712L123.378,113.471L114.722,121.971L113.928,122.75ZM223.21,102.776C222.544,102.088 222.395,101.043 222.843,100.196C223.163,99.591 223.185,98.87 222.903,98.246C222.624,97.624 222.069,97.167 221.405,97.013C220.475,96.797 219.788,95.996 219.716,95.043C219.663,94.362 219.295,93.742 218.723,93.369C218.154,92.999 217.442,92.918 216.804,93.152C215.91,93.479 214.9,93.179 214.329,92.417C213.92,91.873 213.278,91.552 212.598,91.551C211.919,91.551 211.278,91.871 210.866,92.418C210.295,93.18 209.286,93.479 208.392,93.152C207.754,92.918 207.042,92.998 206.473,93.369C205.901,93.739 205.534,94.359 205.479,95.044C205.407,95.996 204.721,96.797 203.791,97.014C203.127,97.167 202.571,97.623 202.292,98.245C202.01,98.87 202.032,99.591 202.352,100.197C202.802,101.045 202.652,102.09 201.985,102.776C201.793,102.975 201.641,103.206 201.536,103.455L182.617,103.455C181.439,103.455 180.741,103.021 180.523,102.803L180.741,91.154C180.741,78.94 194.262,69.769 212.231,69.769C230.2,69.769 243.721,78.984 243.721,91.198L243.753,93.412L243.623,93.412L243.623,103.455L223.66,103.455C223.554,103.203 223.401,102.972 223.21,102.776L223.21,102.776ZM182.617,108.671L203.538,108.671C203.422,109.324 203.605,109.996 204.036,110.5C204.478,111.017 205.138,111.297 205.817,111.255C206.767,111.195 207.646,111.766 207.986,112.665C208.227,113.303 208.753,113.793 209.406,113.989C210.057,114.182 210.763,114.056 211.308,113.65C212.072,113.083 213.124,113.083 213.888,113.65C214.433,114.056 215.139,114.182 215.79,113.989C216.443,113.793 216.969,113.303 217.21,112.665C217.544,111.772 218.428,111.198 219.379,111.255C220.058,111.298 220.719,111.018 221.16,110.5C221.591,109.996 221.774,109.324 221.658,108.671L246.383,108.671C247.818,108.668 248.998,107.486 248.998,106.051C248.998,105.953 248.992,105.855 248.981,105.757L248.998,105.757L248.998,94.309C249,94.257 249,94.205 248.998,94.153L248.998,93.412L248.955,91.154C248.955,75.984 233.166,64.553 212.231,64.553C191.296,64.553 175.508,75.984 175.508,91.111L175.29,102.847C175.246,104.151 175.769,105.455 176.772,106.454C178.168,107.889 180.306,108.671 182.617,108.671L182.617,108.671ZM210.887,106.213L211.466,106.756L212.032,106.2L218.216,100.128L217.056,98.872L211.466,104.378L208.11,101.267L206.979,102.551L210.887,106.213ZM32.741,96.957L50.286,96.957C51.302,96.954 52.137,96.116 52.137,95.1C52.137,95.03 52.133,94.959 52.125,94.889L52.138,94.889L52.138,86.123L52.106,84.52C52.106,73.75 40.939,65.633 26.131,65.633C11.323,65.633 0.156,73.75 0.156,84.49L0.002,92.822C-0.029,93.748 0.341,94.674 1.051,95.383C2.038,96.402 3.55,96.958 5.184,96.958L20.67,96.958C20.854,96.958 21.033,96.93 21.202,96.879C21.198,96.941 21.189,97.002 21.177,97.063C21.087,97.493 21.203,97.94 21.488,98.273C21.772,98.604 22.194,98.783 22.628,98.756C23.237,98.719 23.803,99.086 24.017,99.657C24.172,100.068 24.507,100.381 24.925,100.505C25.342,100.629 25.793,100.548 26.142,100.288C26.63,99.925 27.304,99.925 27.792,100.288C28.143,100.548 28.594,100.629 29.011,100.505C29.428,100.381 29.764,100.068 29.92,99.658C30.138,99.082 30.7,98.717 31.307,98.756C31.741,98.783 32.163,98.604 32.448,98.272C32.732,97.94 32.848,97.492 32.758,97.062C32.751,97.027 32.746,96.992 32.741,96.957L32.741,96.957ZM33.524,91.677C33.253,92.191 33.324,92.816 33.692,93.254L48.336,93.254L48.336,86.124L48.426,86.124L48.404,84.551C48.404,75.879 38.841,69.337 26.131,69.337C13.421,69.337 3.858,75.848 3.858,84.52L3.704,92.791C3.858,92.946 4.351,93.254 5.184,93.254L20.243,93.254C20.611,92.816 20.683,92.191 20.411,91.678C20.205,91.29 20.191,90.829 20.371,90.429C20.553,90.029 20.907,89.738 21.331,89.641C21.926,89.503 22.366,88.99 22.412,88.381C22.446,87.944 22.681,87.547 23.048,87.308C23.412,87.071 23.868,87.019 24.276,87.169C24.849,87.379 25.49,87.189 25.859,86.699C26.121,86.351 26.532,86.145 26.968,86.145C27.402,86.145 27.812,86.35 28.076,86.699C28.446,87.189 29.086,87.379 29.659,87.169C30.068,87.019 30.524,87.071 30.888,87.309C31.254,87.546 31.489,87.942 31.523,88.38C31.569,88.989 32.009,89.502 32.604,89.64C33.028,89.738 33.383,90.03 33.564,90.429C33.744,90.829 33.729,91.29 33.524,91.678L33.524,91.677ZM26.243,95.876L25.873,95.529L23.372,93.185L24.096,92.363L26.243,94.353L29.821,90.83L30.563,91.634L26.605,95.52L26.243,95.876L26.243,95.876ZM168.622,47.399C168.477,47.399 168.339,47.369 168.213,47.315C168.114,47.498 168.082,47.711 168.125,47.915C168.181,48.184 168.109,48.463 167.931,48.672C167.754,48.879 167.49,48.991 167.218,48.974C166.837,48.951 166.484,49.18 166.35,49.537C166.254,49.793 166.044,49.989 165.782,50.067C165.521,50.144 165.239,50.094 165.021,49.931C164.716,49.704 164.295,49.704 163.99,49.931C163.841,50.042 163.659,50.102 163.473,50.102C163.112,50.102 162.787,49.876 162.661,49.537C162.527,49.18 162.173,48.951 161.793,48.974C161.521,48.991 161.257,48.879 161.08,48.672C160.902,48.464 160.831,48.184 160.886,47.916C160.922,47.743 160.905,47.563 160.838,47.399L153.072,47.399C152.141,47.399 151.281,47.079 150.72,46.491C150.326,46.101 150.11,45.565 150.123,45.011L150.211,40.2C150.211,33.998 156.564,29.31 164.99,29.31C173.415,29.31 179.768,33.998 179.768,40.218L179.787,41.143L179.786,41.447L179.787,46.205L179.779,46.205C179.784,46.248 179.787,46.292 179.787,46.335C179.787,46.915 179.312,47.395 178.732,47.4L168.622,47.4L168.622,47.399ZM163.821,46.957L162.912,46.105C162.846,45.792 162.642,45.524 162.358,45.377L162.71,44.978L164.053,46.222L166.289,44.02L166.753,44.523L164.279,46.951L164.053,47.174L163.821,46.957ZM160.407,44.55C160.523,44.769 160.542,45.026 160.46,45.26L153.072,45.26C152.598,45.26 152.317,45.083 152.229,44.993L152.317,40.217C152.317,35.21 157.759,31.45 164.99,31.45C172.222,31.45 177.662,35.227 177.662,40.235L177.675,41.143L177.624,41.143L177.624,45.261L168.622,45.261L168.552,45.263C168.469,45.029 168.487,44.77 168.603,44.55C168.731,44.308 168.74,44.02 168.628,43.77C168.516,43.521 168.294,43.339 168.028,43.277C167.656,43.19 167.381,42.87 167.352,42.489C167.331,42.216 167.184,41.968 166.955,41.819C166.727,41.671 166.442,41.638 166.187,41.732C165.83,41.863 165.426,41.743 165.198,41.438C165.034,41.221 164.777,41.093 164.505,41.093C164.233,41.093 163.976,41.221 163.812,41.438C163.584,41.743 163.18,41.863 162.823,41.732C162.568,41.638 162.283,41.671 162.056,41.819C161.827,41.968 161.679,42.216 161.658,42.489C161.629,42.87 161.354,43.19 160.982,43.277C160.717,43.339 160.495,43.521 160.383,43.769C160.27,44.019 160.279,44.308 160.407,44.55L160.407,44.55ZM71.091,60.008C71.127,60.012 71.163,60.014 71.201,60.014L81.617,60.014C82.214,60.014 82.702,59.509 82.702,58.892C82.702,58.848 82.699,58.804 82.694,58.762L82.702,58.762L82.702,53.451L82.683,52.481C82.683,45.958 76.138,41.042 67.457,41.042C58.777,41.042 52.23,45.958 52.23,52.462L52.14,57.509C52.122,58.069 52.339,58.63 52.755,59.059C53.333,59.677 54.22,60.013 55.178,60.013L63.753,60.013C63.818,60.173 63.838,60.352 63.801,60.53C63.746,60.798 63.818,61.077 63.995,61.285C64.174,61.493 64.436,61.605 64.708,61.588C65.088,61.565 65.442,61.794 65.576,62.151C65.701,62.49 66.026,62.717 66.388,62.717C66.575,62.717 66.756,62.657 66.906,62.545C67.211,62.318 67.631,62.318 67.936,62.545C68.156,62.708 68.436,62.758 68.697,62.681C68.959,62.603 69.17,62.407 69.266,62.151C69.4,61.794 69.753,61.565 70.133,61.588C70.405,61.605 70.669,61.492 70.846,61.285C71.024,61.077 71.095,60.798 71.04,60.53C71.003,60.355 71.021,60.172 71.09,60.007L71.091,60.008ZM71.518,57.165C71.42,57.351 71.391,57.566 71.436,57.771L80.473,57.771L80.473,53.452L80.527,53.452L80.513,52.501C80.513,47.248 74.907,43.286 67.457,43.286C60.007,43.286 54.4,47.23 54.4,52.482L54.31,57.491C54.4,57.584 54.69,57.771 55.178,57.771L63.404,57.771C63.449,57.566 63.42,57.351 63.322,57.165C63.194,56.923 63.186,56.635 63.298,56.385C63.41,56.136 63.632,55.954 63.898,55.892C64.27,55.805 64.544,55.485 64.573,55.104C64.594,54.831 64.742,54.583 64.971,54.434C65.198,54.286 65.483,54.254 65.738,54.347C66.096,54.478 66.5,54.358 66.728,54.053C66.892,53.836 67.149,53.709 67.421,53.709C67.692,53.709 67.949,53.836 68.113,54.053C68.343,54.359 68.744,54.478 69.103,54.347C69.358,54.254 69.643,54.286 69.87,54.434C70.099,54.584 70.246,54.831 70.267,55.104C70.297,55.487 70.571,55.807 70.943,55.892C71.208,55.952 71.43,56.134 71.543,56.384C71.655,56.634 71.646,56.922 71.518,57.164L71.518,57.165ZM66.968,59.789L66.736,59.572L65.173,58.107L65.625,57.593L66.968,58.837L69.204,56.635L69.668,57.138L67.194,59.566L66.968,59.789L66.968,59.789ZM192.169,38.559C192.169,49.6 201.197,58.555 212.231,58.555C223.266,58.555 232.295,49.6 232.295,38.56C232.295,27.52 223.309,18.565 212.231,18.565C201.153,18.565 192.169,27.519 192.169,38.56L192.169,38.559ZM197.402,38.559C197.402,30.389 204.076,23.781 212.231,23.781C220.388,23.781 227.06,30.388 227.06,38.56C227.06,46.732 220.432,53.339 212.231,53.339C204.032,53.339 197.402,46.732 197.402,38.559ZM67.457,38.464C62.882,38.464 59.139,34.614 59.139,29.866C59.139,25.119 62.864,21.269 67.457,21.269C72.051,21.269 75.777,25.119 75.777,29.866C75.777,34.614 72.032,38.464 67.457,38.464ZM67.457,23.512C64.075,23.512 61.309,26.352 61.309,29.866C61.309,33.38 64.058,36.221 67.457,36.221C70.857,36.221 73.607,33.38 73.607,29.866C73.607,26.352 70.839,23.512 67.457,23.512L67.457,23.512ZM156.917,18.654C156.917,23.18 160.551,26.851 164.991,26.851C169.432,26.851 173.065,23.181 173.065,18.654C173.065,14.127 169.449,10.456 164.991,10.456C160.533,10.456 156.917,14.127 156.917,18.654ZM159.023,18.654C159.023,15.304 161.709,12.594 164.991,12.594C168.273,12.594 170.959,15.304 170.959,18.654C170.959,22.004 168.291,24.713 164.991,24.713C161.691,24.713 159.023,22.004 159.023,18.653L159.023,18.654ZM26.131,61.374C18.326,61.374 11.941,55.017 11.941,47.179C11.941,39.339 18.296,32.982 26.131,32.982C33.967,32.982 40.322,39.34 40.322,47.179C40.322,55.017 33.936,61.375 26.131,61.375L26.131,61.374ZM26.131,36.686C20.362,36.686 15.642,41.376 15.642,47.179C15.642,47.182 15.642,47.186 15.642,47.189C15.642,52.939 20.373,57.67 26.123,57.67C26.126,57.67 26.129,57.67 26.132,57.67C31.932,57.67 36.621,52.98 36.621,47.178C36.621,41.376 31.901,36.685 26.131,36.685L26.131,36.686Z" style="fill:url(#_Linear1);"/>
    </g>
    <defs>
        <linearGradient id="_Linear1" x1="0" y1="0" x2="1" y2="0" gradientUnits="userSpaceOnUse" gradientTransform="matrix(273.92,201.025,-201.025,273.92,223.725,-229.53)"><stop offset="0" style="stop-color:rgb(217,7,84);stop-opacity:1"/><stop offset="1" style="stop-color:rgb(85,17,63);stop-opacity:1"/></linearGradient>
    </defs>
</svg>
