<svg id="Capa_1" xmlns="http://www.w3.org/2000/svg" viewBox="0 0 150 150"><style>.st0{fill:url(#path0_fill_1_)}</style><title>usuarios_icon</title><desc>Created using Figma</desc><linearGradient id="path0_fill_1_" gradientUnits="userSpaceOnUse" x1="-323.31" y1="374.927" x2="-322.724" y2="374.927" gradientTransform="matrix(273.975 201.065 386.654 -417.815 -56374.516 221687.063)"><stop offset="0" stop-color="#d90754"/><stop offset="1" stop-color="#55113f"/></linearGradient><path id="path0_fill" class="st0" d="M69.5 36.1c-8.9 0-16 7.2-16 16s7.2 16 16 16 16-7.2 16-16c.1-8.9-7.1-16-16-16zm0 27.8c-6.6 0-11.9-5.3-11.9-11.8 0-6.5 5.3-11.8 11.9-11.8s11.9 5.3 11.9 11.8c0 6.5-5.3 11.8-11.9 11.8zm29.4 32v-1.8c0-12.1-12.6-21.3-29.4-21.3-16.7 0-29.4 9.1-29.4 21.2l-.2 9.4c0 1 .4 2.1 1.2 2.9 1.1 1.1 2.8 1.8 4.7 1.8H62c.2.4.3.9.2 1.3-.1.6 0 1.1.4 1.5.4.4.9.7 1.5.6.8-.1 1.5.4 1.8 1.2.2.5.6.9 1.2 1.1.5.2 1.1.1 1.6-.3.6-.5 1.5-.5 2.1 0 .5.3 1 .4 1.6.3.5-.2 1-.6 1.2-1.1.3-.7 1-1.2 1.8-1.2.6 0 1.1-.2 1.5-.6.4-.4.5-1 .4-1.5-.1-.5 0-.9.2-1.3H97c1.1 0 2.1-.9 2.1-2.1v-9.5l-.2-.6zm-29.6 11.6l-.5.5-.5-.4-3.2-3 .9-1 2.8 2.5 4.6-4.5 1 1-5.1 4.9zm25.4-11.6v8H78c-.1-.5-.1-1 .1-1.4.3-.5.3-1.1 0-1.6-.2-.5-.7-.9-1.2-1-.8-.2-1.3-.8-1.4-1.6 0-.6-.3-1.1-.8-1.4-.5-.3-1.1-.4-1.6-.2-.7.3-1.6 0-2-.6-.3-.5-.9-.7-1.4-.7s-1.1.3-1.4.7c-.5.6-1.3.9-2 .6-.5-.2-1.1-.1-1.6.2s-.8.8-.8 1.4c-.1.8-.6 1.4-1.4 1.6-.5.1-1 .5-1.2 1-.2.5-.2 1.1.1 1.6.2.4.3.9.1 1.4H45.9c-.9 0-1.5-.3-1.7-.5l.2-9.3c0-9.8 10.8-17.1 25.2-17.1 14.4 0 25.2 7.4 25.2 17.1v1.8h-.1zm53.2-5.1v-1.3c0-8.9-9.2-15.6-21.5-15.6s-21.5 6.7-21.5 15.6l-.1 6.9c0 .8.3 1.5.9 2.1.8.8 2.1 1.3 3.4 1.3h12.2c-.1.4 0 .8.3 1.1.3.3.6.5 1 .4.6 0 1.1.3 1.3.8.1.4.5.7.8.8.4.1.8 0 1.1-.2.5-.3 1.1-.3 1.5 0 .3.2.7.3 1.1.2.4-.1.7-.4.8-.8.2-.5.7-.9 1.3-.8.4 0 .8-.1 1-.4.3-.3.4-.7.3-1.1h14.5c.8 0 1.5-.7 1.5-1.5v-7.5zm-21.6 7.4l-.3.3-.3-.3-2.3-2.1.7-.7 2 1.8 3.3-3.2.7.7-3.8 3.5zm18.5-7.4v5.9h-11.7c-.1-.1-.2-.3-.3-.4-.4-.4-.5-1-.2-1.5.2-.4.2-.8 0-1.1-.2-.4-.5-.6-.9-.7-.5-.1-.9-.6-1-1.2 0-.4-.3-.8-.6-1-.3-.2-.7-.3-1.1-.1-.5.2-1.1 0-1.4-.4-.2-.3-.6-.5-1-.5s-.8.2-1 .5c-.3.4-.9.6-1.5.4-.4-.1-.8-.1-1.1.1-.3.2-.6.6-.6 1 0 .6-.4 1-1 1.2-.4.1-.7.4-.9.7-.2.4-.2.8 0 1.1.3.5.2 1.1-.2 1.5-.1.1-.2.3-.3.4h-11c-.7 0-1.1-.3-1.2-.4l.1-6.8c0-7.1 7.9-12.5 18.4-12.5 10.5 0 18.4 5.4 18.4 12.5l.1 1.3zM32.6 86.5v-.9c0-6.3-6.5-11.1-15.2-11.1s-15.2 4.8-15.2 11l-.1 4.9c0 .5.2 1.1.6 1.5.6.6 1.5.9 2.4.9h9.4v.1c-.1.3 0 .5.2.7.2.2.4.3.7.3.4 0 .7.2.8.5.1.2.3.4.5.5.2.1.5 0 .7-.1.3-.2.7-.2 1 0 .2.2.5.2.7.1.2-.1.4-.3.5-.5.1-.3.5-.6.8-.5.3 0 .5-.1.7-.3.2-.2.2-.5.2-.7v-.1h10.3c.6 0 1.1-.5 1.1-1.1v-5.2zM17.7 92l-.2.2-.3-.2-1.5-1.4.4-.5 1.3 1.2 2.1-2.1.4.5-2.2 2.3zm12.7-5.5v4.2h-8.6c-.2-.3-.3-.6-.1-.9.1-.2.1-.5 0-.7-.1-.2-.3-.4-.6-.5-.3-.1-.6-.4-.6-.7 0-.3-.2-.5-.4-.6-.1-.3-.4-.3-.6-.2-.3.1-.7 0-.9-.3-.2-.2-.4-.3-.6-.3-.3 0-.5.1-.6.3-.2.3-.6.4-.9.3-.2-.1-.5-.1-.7.1-.2.1-.4.4-.4.6 0 .4-.3.7-.6.7-.2.1-.5.2-.6.5-.1.2-.1.5 0 .7.2.3.1.7-.1.9h-9c-.5 0-.8-.2-.9-.3l.1-4.8c0-5.1 5.6-8.9 13-8.9s13 3.8 13 8.9l.1 1zm77-26.4v-.5c0-3.6-3.7-6.4-8.7-6.4-4.9 0-8.7 2.7-8.7 6.4v2.8c0 .3.1.6.4.9.3.3.8.5 1.4.5h4.5v.3c0 .2 0 .3.1.4.1.1.3.2.4.2.2 0 .4.1.5.3.1.1.2.3.3.3.2 0 .3 0 .4-.1.2-.1.4-.1.6 0 .1.1.3.1.4.1.2 0 .3-.2.3-.3.1-.2.3-.3.5-.3s.3-.1.4-.2c.1-.1.1-.3.1-.4 0-.1 0-.3.1-.4.1 0 .2.1.2.1h5.9c.3 0 .6-.3.6-.6v-3.1zm-9.1 3.5l-.1.1-.2-.1-.5-.5c0-.2-.2-.3-.3-.4l.2-.2.8.7 1.3-1.3.3.3-1.5 1.4zm7.8-3.5v2.4h-5.3v-.4c.1-.1.1-.3 0-.5-.1-.1-.2-.3-.4-.3-.2-.1-.4-.2-.4-.5 0-.2-.1-.3-.2-.4-.1-.1-.3-.1-.5-.1-.2.1-.4 0-.6-.2-.1-.1-.2-.2-.4-.2s-.3.1-.4.2c-.1.2-.4.2-.6.2-.1-.1-.3 0-.4.1-.1.1-.2.2-.2.4s-.2.4-.4.5c-.2 0-.3.1-.4.3-.1.1-.1.3 0 .5.1.1.1.3 0 .4h-4.3c-.3 0-.4-.1-.5-.2l.1-2.8c0-2.9 3.2-5.1 7.4-5.1s7.4 2.2 7.4 5.1l.1.6zm-55.6 7.3v-.6c0-3.8-3.8-6.7-8.9-6.7s-8.9 2.9-8.9 6.7l-.1 3c0 .3.1.7.4.9.3.4.9.6 1.4.6h5c0 .1.1.2 0 .3 0 .2 0 .3.1.4.1.1.3.2.4.2.2 0 .4.1.5.3.1.2.2.3.3.3s.3 0 .5-.1.4-.1.6 0c.1.1.3.1.4.1.2 0 .3-.2.3-.3.1-.2.3-.3.5-.3s.3-.1.4-.2c.1-.1.1-.3.1-.4v-.3h6.2c.3 0 .6-.3.6-.7v-3.2zm-9.1 3.5l-.1.1-.1-.1-.9-.9.3-.3.8.7 1.3-1.3.3.3-1.6 1.5zm7.8-3.5v2.5h-5.3v-.4c.1-.1.1-.3 0-.5-.1-.1-.2-.3-.4-.3s-.4-.2-.4-.5c0-.2-.1-.3-.2-.4-.1-.1-.3-.1-.5 0s-.4 0-.6-.2c-.1-.1-.2-.2-.4-.2s-.3.1-.4.2c-.1.2-.4.3-.6.2-.2-.1-.3 0-.5 0-.1.1-.2.2-.2.4s-.2.4-.4.5c-.2 0-.3.1-.4.3-.1.1-.1.3 0 .5.1.1.1.2 0 .4h-4.8c-.3 0-.5-.1-.5-.2l.1-2.9c0-3.1 3.3-5.4 7.6-5.4 4.4 0 7.6 2.3 7.6 5.4l.3.6zm77.2-20.5c-6.5 0-11.7 5.2-11.7 11.7s5.3 11.7 11.7 11.7c6.5 0 11.7-5.2 11.7-11.7s-5.2-11.7-11.7-11.7zm0 20.4c-4.8 0-8.7-3.9-8.7-8.7s3.9-8.7 8.7-8.7c4.8 0 8.7 3.9 8.7 8.7s-3.9 8.7-8.7 8.7zM41.6 48.5c-2.7 0-4.9 2.3-4.9 5 0 2.8 2.2 5 4.9 5s4.9-2.3 4.9-5-2.2-5-4.9-5zm0 8.8c-2 0-3.6-1.7-3.6-3.7 0-2.1 1.6-3.7 3.6-3.7s3.6 1.7 3.6 3.7-1.6 3.7-3.6 3.7zm57.1-15.1c-2.6 0-4.7 2.1-4.7 4.8 0 2.7 2.1 4.8 4.7 4.8s4.7-2.1 4.7-4.8c0-2.7-2.1-4.8-4.7-4.8zm0 8.3c-1.9 0-3.5-1.6-3.5-3.5 0-2 1.6-3.5 3.5-3.5s3.5 1.6 3.5 3.5-1.6 3.5-3.5 3.5zm-81.3 4.9c-4.6 0-8.3 3.7-8.3 8.3 0 4.6 3.7 8.3 8.3 8.3 4.6 0 8.3-3.7 8.3-8.3 0-4.6-3.7-8.3-8.3-8.3zm0 14.4c-3.4 0-6.1-2.7-6.1-6.1s2.8-6.1 6.1-6.1 6.1 2.7 6.1 6.1-2.7 6.1-6.1 6.1z"/></svg>